<svg xmlns="http://www.w3.org/2000/svg" viewBox="0 0 7806.8 5217.07"><defs><style>.cls-1{isolation:isolate;}.cls-2{fill:#cce2ff;}.cls-3{opacity:0.5;}.cls-4{fill:#9bc1f9;}.cls-5{fill:#c5ddf9;}.cls-16,.cls-6{fill:#fff;}.cls-6{mix-blend-mode:soft-light;}.cls-7{fill:#327f6b;}.cls-8{fill:#3c8f7c;}.cls-9{fill:#13375b;}.cls-10{fill:#184655;}.cls-11{fill:#f47458;}.cls-12{fill:#f48c7f;}.cls-13{fill:#f37168;}.cls-14{fill:#d54a41;}.cls-15{fill:#f7a491;}.cls-17{fill:#466eb6;}.cls-18{fill:#eab054;}.cls-19{fill:#f7cc7f;}.cls-20{fill:#355389;}.cls-21{fill:#243554;}.cls-22{fill:#2e5b9a;}.cls-23{fill:#75a1de;}.cls-24{fill:#215e4b;}.cls-25{fill:#b75742;}.cls-26{fill:#50bfa5;}.cls-27{fill:#96d9c9;}.cls-28{fill:#b0c1ec;}</style></defs><g class="cls-1"><g id="Layer_1" data-name="Layer 1"><path class="cls-2" d="M6795.57,4601.21c-485.44-23.73-2136.84,16.47-2639.08,32.14s-1085.23-20.68-1388.06-74.14S715.12,4563.76,794.56,4707.5s779.92,64.29,1574.27,122.06,2580.89-7.22,2983.87,0,772.52-14.44,1291.84-43.32S7077,4615,6795.57,4601.21Z"/><g class="cls-3"><rect class="cls-4" x="4721.96" y="418.94" width="1908.02" height="4277.93" transform="translate(11351.93 5115.81) rotate(180)"/><polygon class="cls-5" points="6562.54 481.22 6562.54 4672.89 4803.05 4681.75 4790.1 481.22 6562.54 481.22"/><polygon class="cls-6" points="5807.11 4667.43 5596.63 4667.43 4896.59 481.22 5107.07 481.22 5807.11 4667.43"/><polygon class="cls-6" points="5525.35 481.22 5959.2 481.22 6562.54 4056.79 6562.54 4629.8 6225.39 4629.8 5525.35 481.22"/></g><path class="cls-7" d="M4672.46,460.91c-2,2.83-5.09,6.76-9.57,12.18l-.18.24c.18.64,56.83,205.81,12.21,221.39C4634,709,4630.56,558.58,4647.15,495.53a309.57,309.57,0,0,0-23.91,44.1c-11.5,26.29-19.37,60.2-24.56,98,8.32,13.62,59.13,99.23,33.68,116.84-20.64,14.29-34.16-42-37.89-79.17-3,33.61-4.28,69.13-4.42,104.4,27.49,6.74,110.51,30.58,112.08,73.18,1.74,47.61-69.62,33.57-112.06-54.73.24,35.08,1.52,69.49,3.3,101.08,19.77,17.83,101,94.48,87.94,138.78-13.27,44.86-64.25-6.52-85.76-104.52,4,56.12,9.07,98.72,11.31,112.17.74,4.43,1.57,10.13,2.45,16.85h0c.32,2.46.66,5.06,1,7.78h0s126.33,170.22,90.16,209.41c-25.65,27.79-64-85.93-84.22-154.48,7,72.78,13.12,167.69,7.27,197l-.46-.09c4.46,65.62,7.53,184.93-28.63,191-50,8.33,0-125,0-125s-61,24.35-66.68,0c-9.46-40.78,76-98.19,89.81-107.15-.16-36.24-3.46-87.61-7.57-134.25-4.6,100-29.59,129.76-39.32,133-12.06,4.08-36.89-20.39-28.38-97.7,6.62-60.07,43.4-98.91,59.49-113.26-1.1-8.53-2.16-15.89-3.13-21.71-2.15-12.91-6.88-52.47-10.78-105.09-9.77,82.25-32.9,149.54-53.75,107.86-20.33-40.63,32.75-118.35,51.38-143.6-2.15-36.68-3.67-77.46-3.68-118.87-15.51,40.66-83.53,117.1-92,73.35-8.34-43,76.09-87.77,92.17-95.87.49-35.45,2.2-70.87,5.67-104.12-18.88,33.52-76.47,102.18-83.31,65.12-7.8-42.32,88.75-107.28,88.75-107.28l.14.16c5.2-31.47,12.47-59.72,22.39-82.4a314.73,314.73,0,0,1,22.59-42.22c-35.69,24.21-90.3,45.74-88.1,20.48,2.38-27.42,86.37-49.59,113.16-56,.91-1.31,1.53-1.87,1.91-1.85,9.6-11.81,19.71-23,30-33.43h11.71A479.42,479.42,0,0,0,4672.46,460.91Z"/><path class="cls-7" d="M4745.14,532.29c-26.65,15-16.89-59.95-8-109h26C4768,464.29,4769.1,518.79,4745.14,532.29Z"/><path class="cls-7" d="M4710.3,528.08c-35.41-5-3.58-58.4,46.31-104.78h52.25C4782.52,471.56,4742.45,532.58,4710.3,528.08Z"/><path class="cls-7" d="M4851.82,423.3h53.57c27.47,34.25,48.22,76.43,29.55,114.27C4908.58,591,4873,495.09,4851.82,423.3Z"/><path class="cls-8" d="M4819.06,423.3h8.87c-2.27,15.85-4.74,33.44-7.32,52.48,21.44,42.3,130.94,265.51,78.76,313.4-57.7,53-78.25-218.15-78.25-218.15l-3-76.36c-8.74,65.86-18.39,146.16-26,229.06,19.84,16.34,101.92,88.39,67.76,135.8-31.78,44.09-59.85-77.83-68.92-123-4.87,54.84-8.79,110.55-10.89,163.71,21,9.75,109.4,53.73,85.14,92.13-23.49,37.18-72.3-45.35-85.92-70-1,32.59-1.22,64-.51,93.45,22.9,10.76,125.39,60.91,100.07,84.82-28.46,26.88-86.95-45.08-86.95-45.08s45.85,184.19-4,164.43-16.55-175.47-18.13-179.42l.85-5c-1-24.21-1.23-49.95-.89-76.75-9.25,23.7-27.13,63.2-37.9,46.19-12.67-20,26-60.82,38.42-73.1.94-36.53,2.86-74.63,5.45-113.14-18,45.45-55.6,111.12-74.7,80.33-21.41-34.54,59.08-123.88,79.71-145.85,4.79-56.59,10.69-112.63,16.77-164.44C4772.14,655,4689.68,795.11,4663,747.29c-27.75-49.8,115.2-205.8,144.06-236.5C4811.35,478.11,4815.44,448.53,4819.06,423.3Z"/><path class="cls-8" d="M5107.93,472.15c-21.62,57.66-64.33,154.89-106.26,153.76-56.55-1.52,24.17-127.67,107.43-186.47.16-4.08.31-7.88.46-11.45,13.57,2.62,27.06,5.42,40.09,9.77,47.46,33,127.84,102.16,103.16,170.56-29.09,80.62-105.94-111.22-129-172.28-1.12,28.57-2.56,70.63-3.69,121.39,33.92,52,175.4,276.93,124.59,335.32-57.57,66.15-114.4-232.93-114.4-232.93l-10.82-70.69c-1.29,72.06-1.78,157.81.07,245.82,27.73,18.38,121.07,85.74,90,141-28.34,50.4-71.75-66.36-89.52-120.33,1.5,59.35,4.09,119.3,8.26,176.41,28.32,9.7,125.33,46.64,103.83,91-20.53,42.34-80.44-34-101.66-63.33,3,35.36,6.57,69.36,11,101.13,31.05,10.68,143.9,52.05,119.44,81-28.3,33.46-102.39-39.27-102.39-39.27s74.08,199.2,16.15,183.46c-51.06-13.87-43.5-153.29-42.53-189.08-4.77-28.89-8.79-60.1-12.17-92.87-7.78,27.64-21.56,66-34.63,49.76-15.73-19.59,17.47-65.7,31.43-83.44-3.44-39.3-6.05-80.37-8-122-15.29,52.34-47,121.9-71,91.46-27.17-34.51,44.92-137.74,68.12-169.16-1.74-61.42-2.25-122.44-2.06-179.3-22.88,80-93,232.38-127.28,184.35-36.14-50.56,95.19-233.45,128.23-277.92C5105.59,548.89,5106.79,505.87,5107.93,472.15Z"/><path class="cls-7" d="M5049.57,567.35c-30.35,35.52-61.69-81-75.57-142-.47,41.82-1,97.82-1.3,162.66,18.73,19.22,76.75,83.19,68.65,130.58-7.85,46-52.6-49.83-68.83-86.72-.11,33.87-.16,69.62-.11,106.61,23.44,20.38,80.1,75.64,53.07,113.16-21.89,30.38-41.76-29.8-53-75.71.11,42.11.36,85.48.76,129.23,28.35,22.69,107.17,92.87,78.4,151.16-25.53,51.74-61-57.52-78.07-119.62.52,46.64,1.24,93.44,2.2,139.35,15.55,26,72.24,125.69,41.21,147.17-16.77,11.61-29.91-12.82-38.55-44.51,1.33,42.82,2.94,84,4.86,122.53,20.68,13.69,106.09,73.21,96.16,116-6.2,26.74-73.17,0-73.17,0s54.88,146.36,0,137.21c-38.91-6.49-36.44-132.5-31.71-205.3q-1.21-20.09-2.3-41.35c-8.11,30.48-21.88,52.55-37.45,33.9-27.39-32.79,23.32-110.6,33.51-125.52-1.43-40.07-2.61-81.9-3.56-124.61-21.06,41-101.16,138.89-110.34,89.09-8.83-47.88,85.69-118.19,109.4-135-.79-42.52-1.38-85.58-1.81-128.37-15.21,32.4-67.1,136.16-105.82,130.74-44.91-6.28,34.52-102.28,105.74-138.1-.4-42-.65-83.6-.78-124.15-.15,1.07-.29,2.11-.46,3.24-4.28,27.51-52.12,131.35-73.44,97s73.44-131.18,73.44-131.18a6.78,6.78,0,0,1,.38.86c-.08-39.17,0-77.09.06-113-15.08,38.08-67.77,122.6-84.64,94.25-16-26.91,59-106.85,84.78-133.05.22-52,.57-98.81.95-137.87-17.88,39.16-72.1,147-88.67,107.9-17.65-41.63,68.92-121.68,89-139.47,0-3.84.08-7.56.12-11.18h43C5037.58,470.39,5074.72,537.91,5049.57,567.35Z"/><path class="cls-7" d="M6676.91,460.91c2,2.83,5.09,6.76,9.57,12.18l.18.24c-.18.64-56.83,205.81-12.21,221.39,40.91,14.29,44.36-136.14,27.77-199.19a310.63,310.63,0,0,1,23.92,44.1c11.49,26.29,19.36,60.2,24.55,98-8.32,13.62-59.13,99.23-33.68,116.84,20.64,14.29,34.16-42,37.89-79.17,3,33.61,4.28,69.13,4.42,104.4-27.49,6.74-110.51,30.58-112.08,73.18-1.74,47.61,69.62,33.57,112.06-54.73-.24,35.08-1.52,69.49-3.3,101.08-19.77,17.83-101,94.48-87.93,138.78,13.26,44.86,64.24-6.52,85.75-104.52-4,56.12-9.07,98.72-11.31,112.17-.74,4.43-1.57,10.13-2.45,16.85h0c-.32,2.46-.66,5.06-1,7.78h0s-126.33,170.22-90.16,209.41c25.65,27.79,64-85.93,84.22-154.48-7,72.78-13.12,167.69-7.26,197l.45-.09c-4.46,65.62-7.52,184.93,28.63,191,50,8.33,0-125,0-125s61,24.35,66.68,0c9.46-40.78-76-98.19-89.81-107.15.16-36.24,3.46-87.61,7.57-134.25,4.6,100,29.59,129.76,39.33,133,12.05,4.08,36.88-20.39,28.37-97.7-6.62-60.07-43.4-98.91-59.49-113.26,1.1-8.53,2.16-15.89,3.13-21.71,2.15-12.91,6.88-52.47,10.78-105.09,9.77,82.25,32.9,149.54,53.75,107.86,20.33-40.63-32.75-118.35-51.38-143.6,2.15-36.68,3.67-77.46,3.68-118.87,15.51,40.66,83.53,117.1,92,73.35,8.34-43-76.09-87.77-92.17-95.87-.49-35.45-2.2-70.87-5.67-104.12,18.88,33.52,76.47,102.18,83.31,65.12,7.8-42.32-88.75-107.28-88.75-107.28l-.14.16c-5.2-31.47-12.47-59.72-22.39-82.4a315.81,315.81,0,0,0-22.58-42.22c35.68,24.21,90.29,45.74,88.1,20.48-2.39-27.42-86.38-49.59-113.17-56-.91-1.31-1.52-1.87-1.91-1.85-9.6-11.81-19.71-23-30-33.43H6642.5A479.42,479.42,0,0,1,6676.91,460.91Z"/><path class="cls-7" d="M6604.23,532.29c26.65,15,16.89-59.95,8-109h-26C6581.42,464.29,6580.27,518.79,6604.23,532.29Z"/><path class="cls-7" d="M6639.08,528.08c35.4-5,3.58-58.4-46.32-104.78h-52.25C6566.86,471.56,6606.92,532.58,6639.08,528.08Z"/><path class="cls-7" d="M6497.55,423.3H6444c-27.46,34.25-48.21,76.43-29.55,114.27C6440.8,591,6476.33,495.09,6497.55,423.3Z"/><path class="cls-8" d="M6530.31,423.3h-8.87c2.27,15.85,4.74,33.44,7.32,52.48-21.44,42.3-130.93,265.51-78.76,313.4,57.7,53,78.25-218.15,78.25-218.15l3-76.36c8.74,65.86,18.39,146.16,26,229.06-19.85,16.34-101.93,88.39-67.76,135.8,31.77,44.09,59.85-77.83,68.91-123,4.87,54.84,8.79,110.55,10.9,163.71-21,9.75-109.41,53.73-85.15,92.13,23.49,37.18,72.3-45.35,85.92-70,1,32.59,1.22,64,.51,93.45-22.9,10.76-125.39,60.91-100.07,84.82,28.46,26.88,86.95-45.08,86.95-45.08s-45.84,184.19,4,164.43,16.55-175.47,18.13-179.42l-.85-5c1-24.21,1.23-49.95.89-76.75,9.26,23.7,27.13,63.2,37.9,46.19,12.67-20-26-60.82-38.42-73.1-.94-36.53-2.86-74.63-5.45-113.14,18,45.45,55.6,111.12,74.7,80.33,21.41-34.54-59.08-123.88-79.71-145.85-4.79-56.59-10.69-112.63-16.77-164.44,25.31,66.23,107.77,206.35,134.42,158.53,27.74-49.8-115.21-205.8-144.07-236.5C6538,478.11,6533.93,448.53,6530.31,423.3Z"/><path class="cls-8" d="M6241.45,472.15c21.61,57.66,64.32,154.89,106.25,153.76,56.55-1.52-24.17-127.67-107.43-186.47-.16-4.08-.31-7.88-.46-11.45-13.57,2.62-27.06,5.42-40.09,9.77-47.45,33-127.84,102.16-103.16,170.56,29.09,80.62,105.95-111.22,128.95-172.28,1.12,28.57,2.57,70.63,3.69,121.39-33.92,52-175.4,276.93-124.59,335.32C6162.18,958.9,6219,659.82,6219,659.82l10.82-70.69c1.29,72.06,1.78,157.81-.07,245.82-27.73,18.38-121.07,85.74-90,141,28.34,50.4,71.75-66.36,89.52-120.33-1.49,59.35-4.09,119.3-8.26,176.41-28.32,9.7-125.33,46.64-103.83,91,20.53,42.34,80.44-34,101.66-63.33-3,35.36-6.57,69.36-11,101.13-31,10.68-143.9,52.05-119.44,81,28.3,33.46,102.39-39.27,102.39-39.27s-74.08,199.2-16.15,183.46c51.06-13.87,43.5-153.29,42.53-189.08,4.77-28.89,8.79-60.1,12.17-92.87,7.78,27.64,21.56,66,34.63,49.76,15.73-19.59-17.46-65.7-31.43-83.44,3.44-39.3,6-80.37,8-122,15.29,52.34,47,121.9,71,91.46,27.18-34.51-44.92-137.74-68.11-169.16,1.73-61.42,2.25-122.44,2.05-179.3,22.88,80,93,232.38,127.28,184.35,36.14-50.56-95.19-233.45-128.23-277.92C6243.78,548.89,6242.58,505.87,6241.45,472.15Z"/><path class="cls-7" d="M6299.8,567.35c30.35,35.52,61.7-81,75.57-142,.47,41.82,1,97.82,1.3,162.66-18.73,19.22-76.74,83.19-68.65,130.58,7.85,46,52.6-49.83,68.83-86.72.11,33.87.16,69.62.12,106.61-23.45,20.38-80.11,75.64-53.08,113.16,21.89,30.38,41.76-29.8,53-75.71-.11,42.11-.36,85.48-.76,129.23-28.35,22.69-107.17,92.87-78.4,151.16,25.53,51.74,61-57.52,78.07-119.62-.52,46.64-1.24,93.44-2.2,139.35-15.55,26-72.24,125.69-41.21,147.17,16.77,11.61,29.91-12.82,38.55-44.51-1.33,42.82-2.94,84-4.86,122.53-20.68,13.69-106.09,73.21-96.16,116,6.2,26.74,73.17,0,73.17,0s-54.88,146.36,0,137.21c38.91-6.49,36.44-132.5,31.71-205.3q1.21-20.09,2.31-41.35c8.1,30.48,21.87,52.55,37.44,33.9,27.39-32.79-23.32-110.6-33.51-125.52,1.43-40.07,2.61-81.9,3.57-124.61,21.05,41,101.15,138.89,110.33,89.09,8.83-47.88-85.69-118.19-109.4-135,.8-42.52,1.39-85.58,1.82-128.37,15.2,32.4,67.09,136.16,105.81,130.74,44.91-6.28-34.52-102.28-105.74-138.1.4-42,.65-83.6.78-124.15.15,1.07.29,2.11.47,3.24,4.27,27.51,52.12,131.35,73.43,97s-73.43-131.18-73.43-131.18a5.75,5.75,0,0,0-.39.86c.08-39.17,0-77.09-.06-113,15.08,38.08,67.77,122.6,84.64,94.25,16-26.91-59-106.85-84.77-133.05-.23-52-.58-98.81-1-137.87,17.87,39.16,72.09,147,88.66,107.9,17.66-41.63-68.92-121.68-89-139.47-.05-3.84-.09-7.56-.13-11.18h-43C6311.79,470.39,6274.65,537.91,6299.8,567.35Z"/><polygon class="cls-9" points="5276.28 409.03 5243.3 409.03 4531.08 409.03 4531.08 446.52 5243.3 446.52 5276.28 446.52 6829.44 446.52 6829.44 409.03 5276.28 409.03"/><path class="cls-10" d="M5361.77,1029.81h6V458.25a454.68,454.68,0,0,0,201.79,78.82c60,8.07,123.72,5,189.32-9.11,96.37-20.75,168.87-59.72,187.38-70.29V691.32h6V447l-4.61,2.83c-.78.48-79.63,48.47-190.27,72.26C5655.57,544,5505,549.26,5366.55,450l-4.78-3.43Z"/><path class="cls-11" d="M5949.33,650h0a55.28,55.28,0,0,1,55.28,55.28V823.17H5894V705.24A55.29,55.29,0,0,1,5949.33,650Z"/><path class="cls-11" d="M5364.79,1008.24h0a55.28,55.28,0,0,1,55.28,55.29v117.92H5309.51V1063.53A55.28,55.28,0,0,1,5364.79,1008.24Z"/><path class="cls-9" d="M5314.22,1999.59c55.81-23.91,118.29-48.16,175.51-27.84,36,12.8,63.78,41.45,90.12,69.18,28.88,30.4,59.56,65,60.27,106.92.29,17.05-4.55,33.74-9.87,49.93-10.37,31.54-23,62.9-43.46,89.06-33.14,42.4-84,67.55-135.87,82-45.87,12.8-57.26,8.29-104.83,6.23-32.12-1.39-83-52.44-103.88-76.9-33.14-38.88-30.26-207.4,4.7-249.88,9.24-11.23,22.51-22.18,37.2-32.29a297.42,297.42,0,0,1,29.54-17.84C5313.85,1998.69,5314,1999.17,5314.22,1999.59Z"/><path class="cls-12" d="M4690.58,2785.74c-4.07-11.79,53.24-21.1,56.33-33s-72.27-13.09-74.94-23.56c-4.9-19.3,82.62-3.77,80.93-12.8s-91.16-29.47-81.43-44.91,90.56,30.89,93.05,20.4-79-36.32-77.5-59.33c.83-12.3,133.74,61.82,149.21,55.18s-16.39-64.56-4.07-73.1,47.18,117.67,55.65,121.91,188,107.54,252,124.09c7.85-21.41,64.11-134.89,71-155.14,35.82,25.68,77.46,31.41,114.45,54.84-27.09,67.21-119.94,232.59-138.68,241-57.06,25.54-276.76-158-320.63-189.4s-69.14-21.4-98.87-31.39S4694.65,2797.53,4690.58,2785.74Z"/><path class="cls-9" d="M5700.72,3675.1l-20.2-17c74-86.61,114.69-251.68,117.67-477.35,2.27-172-18.35-319.6-18.56-321.07l26.22-3.66c.21,1.49,21.09,150.76,18.82,324.72-1.33,102.44-10.31,193.39-26.67,270.33C5777.32,3548.4,5744.59,3623.76,5700.72,3675.1Z"/><path class="cls-11" d="M5609.66,2557.62c12.36,0,488-27.75,496.25,34.06s24.73,544-57.69,560.44-482.15-57.69-482.15-57.69Z"/><path class="cls-13" d="M5291,2839s121.46-88,158.18-151-25-22-88.06-38.56c-23.87-6.27-17.83-144.92-63-99.85-74.05,73.94-134.54,220.79-134.54,220.79Z"/><path class="cls-14" d="M5472.6,2486s128.07-25.06,186.5,23.33-12.51,478.55-12.45,549.87S5686.77,3332,5686.77,3332s-388.14,67.32-449.79-39.73c0,0-17.54-407.86-14.93-459.15s60.16-261,76.07-283.5S5472.6,2486,5472.6,2486Z"/><path class="cls-15" d="M5473.41,2289.72s.67,3.8,1.88,10.25c5.81,31,28.18,133.73,43.29,162,18.26,34.14-62.51,143-140.26,129.73-23.14-4,19.56-100,17.51-110.22-3.93-19.48-9.26-46.06-14.71-73.31-3.07-15.38-6.19-31-9.11-45.62-8.32-41.63-15.1-75.68-15.1-75.68Z"/><path class="cls-11" d="M5475.29,2300c-1.21-6.45-1.88-10.25-1.88-10.25l-116.5-2.87s6.78,34.05,15.1,75.68c2.91,14.57,6,30.07,9.06,45.36,18-2.62,36.78-11.27,55.62-27.58a145.26,145.26,0,0,0,42.14-62C5477.39,2311.05,5476.2,2304.78,5475.29,2300Z"/><path class="cls-15" d="M5395,2027.84s54.91-6.28,89.33,37.75,71.52,180.17-14,254.2-170-9.77-182.51-98.61S5270.44,2024.63,5395,2027.84Z"/><path class="cls-9" d="M5388.86,2013.28s73.36,129.47,125.84,135.46,59.37,74.78,59.37,74.78-18.76-158.53-70.72-189.1S5388.86,2013.28,5388.86,2013.28Z"/><path class="cls-15" d="M4904.73,2974.33l358.77-86.41s126.88-168.63,249.08-314c37.6,35.38,59.23,90.47,97.08,125.49l-268.88,307.25a52.71,52.71,0,0,1-38.45,18l-382,9.09Z"/><path class="cls-13" d="M5471.94,2876.37s170.59-139.13,207.32-202.13,9.48-168.53-53.57-185.11-268.78,268.61-268.78,268.61Z"/><path class="cls-16" d="M5337.5,2276.37l57.68-6.34s1.08,21.86-24.2,25.37C5340.15,2299.68,5337.5,2276.37,5337.5,2276.37Z"/><path class="cls-15" d="M4660.72,3010.19c-3.77-5.75,5.67-15.49,12.75-22.8,7.84-8.1,55.32-28.43,63.39-30.88s77.27,7.22,103.76,15.82,43.94,5.07,43.94,5.07c6.94-1.41,17.39-3.29,25.49-5l16.61,61.22c-62.18-.77-127.2,3.81-133.09,3.66-18.69-.46-52.91-19.84-60.86-22.69s-24-.6-34.83,4.43-42.28,17-47.56,14.17S4660.72,3010.19,4660.72,3010.19Z"/><path class="cls-15" d="M5497,2181.63c-4.87,22.89,4.34,44.23,20.57,47.68s33.32-12.3,38.19-35.18-4.35-44.23-20.57-47.68S5501.85,2158.75,5497,2181.63Z"/><path class="cls-9" d="M5458.6,1941.34c3.65-13,8.91-26.31,19.11-35.24,16-14,42.84-13,57.69,2.19,5.86,6,10,13.76,17.06,18.28,15.9,10.19,40.39.16,53.89,13.36,4.25,4.15,6.46,9.88,9.25,15.12,9.76,18.34,27.33,31.71,36.46,50.38a65.56,65.56,0,0,1,3.54,48.17c-5.65,17.79-18.92,32.5-34.67,42.52s-33.88,15.7-52.16,19.48c-8.92,1.85-18.27,3.25-27,.78-9.66-2.72-17.39-9.78-24.74-16.62-11.47-10.68-23.44-22.15-27.75-37.22-1.61-5.65-2.35-12.11-6.8-16-7.74-6.69-19.74-2.16-27-10.55-5.32-6.17-4-13.36-4.27-21.08C5450.46,1989.86,5451.79,1965.68,5458.6,1941.34Z"/><path class="cls-12" d="M5007.21,4313.65s117.82,140,118.6,152.18-4.69,145.12-18.7,157.3-55.17,20.82-41.94,34.52c10,10.36,86.95,8.15,137.94,5.37,14.89-.82,33.56-118.51,39.45-135.81,8.56-25.13,29.39-81.72,21.6-99.23-3.79-8.53-21.94-26.07-47.51-42.43-26.89-17.22-129.77-159.07-129.77-159.07Z"/><path class="cls-17" d="M5215,4384.72s-79.11,220.74-110.08,231.39c-8.22,2.83-47.68,10-55.12,27.3-2.24,5.21,0,22.61,0,22.61h164.89s20.86-97.26,29.1-140c0,0,43.65-104.41,38.8-113.9S5215,4384.72,5215,4384.72Z"/><path class="cls-15" d="M4301.51,4380.89s-96.21,134.22-87.74,176.69c4.53,22.74,24.71,52.5,13.13,73.9s-24.82,26.75-24.82,26.75L3902,4663c-16.34.26-5.54-10.15,7.64-19.73,21.58-15.69,39-26.06,107.91-59,4.49-2.15,20.86-12.44,26.76-16,15-9,30-23.26,42.93-37.51,21.55-23.73,116.31-217.08,116.31-217.08Z"/><path class="cls-17" d="M4044.31,4568.21c79.37,20.15,138,6.45,170.86-6.63,8.47,23.72,19.69,53.48,13.74,70.65-7.29,21-17.66,25.76-26.83,26-72.49,1.88-265.56,4.44-320.84,5.16a8.93,8.93,0,0,1-7-14.69C3887.93,4632.51,4038.39,4571.79,4044.31,4568.21Z"/><path class="cls-18" d="M4649.52,3552.81S4768.65,3687.56,4799,3708.9s322,553.46,322,553.46l-103.89,75.17s-260.61-322-383-494.27c-103.48-145.64-65.37-136.41-126.22-225.06a117.65,117.65,0,0,1,18.27-154.39q8.25-7.39,18-15.43c90.08-74.4,707.56-158.14,707.56-158.14l394.95,38.33S5324,3552.81,5311.92,3558.78s-445.62,68.62-454.65,68.62S4649.52,3552.81,4649.52,3552.81Z"/><path class="cls-19" d="M5686.77,3332s67.75,201.4-33.87,295.38-705.3,83.55-904,83.55c0,0-81.3,220.79-90.33,256.6s-403.46,498.28-403.46,498.28L4146.7,4397.2s424.53-817.54,457.65-853.34,505.84-179,623.26-211.84S5686.77,3332,5686.77,3332Z"/><path class="cls-10" d="M3840.16,2563H4434.7a38.78,38.78,0,0,1,35.87,23.84l183.07,442.46h327.77a16.52,16.52,0,0,1,16.6,16.43h0a16.52,16.52,0,0,1-16.6,16.44H4048.53a65.16,65.16,0,0,1-59.41-38.11l-184.33-406.91C3793.27,2591.76,3812,2563,3840.16,2563Z"/><path class="cls-16" d="M4160.26,2820.67c4,19.88,21.51,33.17,39.07,29.69s28.55-22.41,24.53-42.29-21.51-33.16-39.07-29.68S4156.24,2800.8,4160.26,2820.67Z"/><polygon class="cls-20" points="2418.19 4672.89 2372.88 4672.89 2469.46 3833.52 2514.76 3833.52 2418.19 4672.89"/><polygon class="cls-20" points="2929.68 4672.89 2974.99 4672.89 2878.41 3833.52 2833.11 3833.52 2929.68 4672.89"/><polygon class="cls-20" points="1650.64 4672.89 1605.34 4672.89 1701.91 3833.52 1747.22 3833.52 1650.64 4672.89"/><polygon class="cls-20" points="2162.14 4672.89 2207.44 4672.89 2110.87 3833.52 2065.56 3833.52 2162.14 4672.89"/><path class="cls-21" d="M2383.91,3924.73h-618c-72.44,0-137.16-58.72-144.58-131.15L1519.2,2796c-7.41-72.43,45.29-131.15,117.73-131.15h618c72.43,0,137.16,58.72,144.57,131.15l102.13,997.55C2509.05,3866,2456.34,3924.73,2383.91,3924.73Z"/><path class="cls-22" d="M2555.52,3924.73h-618c-72.44,0-137.17-58.72-144.58-131.15L1690.81,2796c-7.41-72.43,45.29-131.15,117.72-131.15h618c72.44,0,137.17,58.72,144.58,131.15l102.13,997.55C2680.65,3866,2628,3924.73,2555.52,3924.73Z"/><path class="cls-21" d="M2638.33,3970.73h-876c-67.88,0-128.54-55-135.49-122.9h0c-6.94-67.88,42.45-122.9,110.32-122.9h876c67.88,0,128.54,55,135.49,122.9h0C2755.6,3915.71,2706.2,3970.73,2638.33,3970.73Z"/><path class="cls-22" d="M2857,3970.73h-876c-67.88,0-128.54-55-135.49-122.9h0c-7-67.88,42.45-122.9,110.32-122.9h876c67.88,0,128.54,55,135.49,122.9h0C2974.28,3915.71,2924.88,3970.73,2857,3970.73Z"/><path class="cls-12" d="M3024.52,2962c4.07-11.79-53.24-21.1-56.33-33s72.27-13.09,74.93-23.57c4.9-19.29-82.62-3.77-80.92-12.79s91.15-29.48,81.42-44.92-90.55,30.89-93,20.4,79-36.31,77.49-59.33c-.82-12.29-133.73,61.82-149.2,55.18s16.38-64.56,4.06-73.09-47.18,117.67-55.65,121.91-188,107.54-252,124.09c-7.85-21.41-64.1-134.9-71-155.15-35.83,25.69-77.47,31.41-114.46,54.84,27.09,67.22,119.94,232.6,138.68,241,57.06,25.54,276.76-158,320.64-189.4s69.13-21.39,98.86-31.39S3020.45,2973.75,3024.52,2962Z"/><path class="cls-9" d="M2466.88,2426.71c2.66-64.09-6.78-127.37-35.45-187-24.67-51.33-85.71-80.46-141.37-80.53-176.75-.23-199.23,233.3-311.74,323.39-34.38,27.52-72.81,49.94-105.34,79.62-120.13,109.61-66,312.51,44.28,408.6,76.55,66.69,196.84,104.57,291.18,52.44,49.25-27.21,86.63-72.44,113.27-122,37.79-70.33,62.16-151.49,89-226.45C2439.37,2595,2463.35,2511.89,2466.88,2426.71Z"/><path class="cls-14" d="M2400.78,3016.55s-132-135.35-166-194.16,23.13-20.52,81.45-36c22.09-5.86,16.5-135.29,58.25-93.22,68.51,69,154.63,189.72,154.63,189.72Z"/><path class="cls-13" d="M2213.1,2633.8s-118.47-23.39-172.53,21.78,11.58,446.73,11.53,513.3S2015,3423.53,2015,3423.53s359.06,62.85,416.09-37.08c0,0,16.23-380.74,13.81-428.62s-55.65-243.68-70.37-264.65S2213.1,2633.8,2213.1,2633.8Z"/><path class="cls-15" d="M2212.35,2450.55s-.62,3.54-1.74,9.57c-5.37,28.92-26.06,124.83-40,151.2-16.89,31.87,57.83,133.51,129.75,121.1,21.41-3.69-18.1-93.38-16.2-102.88,3.63-18.19,8.56-43,13.61-68.44l8.43-42.58c7.69-38.86,14-70.65,14-70.65Z"/><path class="cls-11" d="M2210.61,2460.12c1.12-6,1.74-9.57,1.74-9.57l107.77-2.68s-6.27,31.79-14,70.65c-2.69,13.6-5.56,28.07-8.39,42.34-16.63-2.44-34-10.52-51.45-25.75a135.63,135.63,0,0,1-39-57.85C2208.67,2470.46,2209.78,2464.6,2210.61,2460.12Z"/><path class="cls-15" d="M2284.89,2206.08s-50.8-5.86-82.64,35.24-66.16,168.2,12.94,237.29,157.25-9.11,168.84-92S2400.12,2203.08,2284.89,2206.08Z"/><path class="cls-15" d="M2407.43,2385.34c-9.45,18.32-25.29,28.46-35.4,22.66s-10.65-25.37-1.21-43.68,25.29-28.46,35.4-22.65S2416.87,2367,2407.43,2385.34Z"/><path class="cls-9" d="M2290.57,2192.49s-67.86,120.86-116.41,126.45-54.92,69.81-54.92,69.81,17.36-148,65.42-176.53S2290.57,2192.49,2290.57,2192.49Z"/><path class="cls-15" d="M2186.89,2349.31c4,21.46-4,41.14-17.73,44s-28.09-12.3-32-33.76,4-41.15,17.74-44S2182.94,2327.84,2186.89,2349.31Z"/><path class="cls-12" d="M2643.62,4339.89s-109,130.68-109.71,142.06,4.33,135.47,17.3,146.84,51,19.43,38.79,32.23c-9.25,9.67-80.43,7.6-127.6,5-13.77-.76-31-110.63-36.49-126.77-7.93-23.46-27.19-76.29-20-92.63,3.51-8,20.3-24.34,43.95-39.61,24.88-16.08,120.05-148.49,120.05-148.49Z"/><path class="cls-14" d="M2451.41,4406.23s73.19,206.06,101.83,216c7.61,2.64,44.11,9.34,51,25.48,2.08,4.86,0,21.1,0,21.1H2451.69s-19.29-90.78-26.92-130.68c0,0-40.38-97.46-35.89-106.32S2451.41,4406.23,2451.41,4406.23Z"/><path class="cls-15" d="M3296.44,4402.65s89,125.31,81.17,165c-4.19,21.23-22.86,49-12.14,69s23,25,23,25l277.64,4.46c15.12.25,5.12-9.46-7.07-18.41-20-14.65-36.06-24.33-99.82-55.11-4.16-2-19.3-11.61-24.76-14.94-13.84-8.44-27.74-21.72-39.71-35-19.94-22.15-107.59-202.65-107.59-202.65Z"/><path class="cls-19" d="M3534.38,4577.52c-73.43,18.81-127.71,6-158.07-6.19-7.83,22.14-18.21,49.93-12.7,65.95,6.74,19.61,16.33,24.05,24.81,24.27,67.07,1.76,245.67,4.15,296.81,4.82a8.34,8.34,0,0,0,6.49-13.71C3679,4637.55,3539.85,4580.86,3534.38,4577.52Z"/><path class="cls-23" d="M2974.51,3629.64s-110.21,125.79-138.31,145.71S2538.33,4292,2538.33,4292l96.1,70.17s241.09-300.61,354.32-461.4c95.73-136,60.47-127.34,116.76-210.09,31-45.56,24-107.17-16.9-144.13q-7.62-6.9-16.61-14.4c-83.34-69.46-654.55-147.62-654.55-147.62l-365.35,35.78s298.51,209.32,309.65,214.89,412.22,64.07,420.58,64.07S2974.51,3629.64,2974.51,3629.64Z"/><path class="cls-23" d="M2015,3423.53s-62.67,188,31.33,275.75,652.46,78,836.29,78c0,0,75.2,206.11,83.56,239.53S3339.39,4482,3339.39,4482l100.27-64.07s-392.73-763.17-423.37-796.59-467.93-167.12-576.55-197.76S2015,3423.53,2015,3423.53Z"/><path class="cls-16" d="M2326.26,2434.87l-67.69-5s-.36,25.82,29.35,28.9C2324.13,2462.48,2326.26,2434.87,2326.26,2434.87Z"/><path class="cls-15" d="M2737.1,3019.18c4.07-11.79-53.24-21.1-56.33-33s72.27-13.09,74.93-23.57c4.91-19.3-82.61-3.77-80.92-12.79s91.16-29.48,81.42-44.92-90.55,30.89-93,20.4,79-36.32,77.5-59.33c-.83-12.29-133.74,61.82-149.21,55.18s16.39-64.56,4.06-73.1-47.18,117.68-55.65,121.92-188,107.54-252,124.09c-7.85-21.42-64.11-134.9-71-155.15-35.83,25.69-77.47,31.41-114.46,54.84,27.09,67.22,119.94,232.6,138.68,241,57.07,25.54,276.77-158,320.64-189.4s69.14-21.39,98.87-31.39S2733,3031,2737.1,3019.18Z"/><path class="cls-14" d="M2085.22,3011.81s-77.74-172.34-89.55-239.22,45.58-150.84,105.68-145.42,150.2,303,150.2,303Z"/><rect class="cls-22" x="3299.86" y="3085.02" width="1813.96" height="1582.49" transform="translate(8413.68 7752.53) rotate(180)"/><rect class="cls-22" x="5112.31" y="3109.17" width="1044.61" height="1560.01"/><rect class="cls-21" x="3297.03" y="3109.17" width="2859.89" height="286.52" transform="translate(9453.95 6504.86) rotate(180)"/><rect class="cls-21" x="5011.86" y="3109.17" width="100.45" height="1560.01" transform="translate(10124.17 7778.35) rotate(180)"/><rect class="cls-20" x="3172.2" y="3060.87" width="3102.83" height="48.3" transform="translate(9447.24 6170.04) rotate(180)"/><path class="cls-24" d="M5668.35,4444.53h8.32a491,491,0,0,1,17.73-91.38c36.3-122.49,20.42-138.34,81.66-214.91s65.79-235.35,65.79-235.35,29.49-180.34,0-259.73-31.76-158.79-103.21-242.72c0,0-13.61,112.29-30.63,163.33s-33.16,99.8-20.55,222.3,20.45,132.69,23.34,164.45-1.65,165.62,5.15,187.72-39.69,175.22-43.1,241C5671.83,4399,5670,4421.54,5668.35,4444.53Z"/><path class="cls-8" d="M5694.43,4444.53c11.82-27.26,32.62-54.35,69-70.61,95.27-42.53,159.54-41.59,203.77-143.66s44.24-241.58,59.55-270.5c0,0-40.83-6.81-81.66,66.34s-68.53,127.6-92.11,170.13-57.6,30.63-86.53,63c-24.23,27.09-46.62,90.11-55.12,122.09a125.73,125.73,0,0,1-12.08,29.75c-4.82,8.5-10.49,18.85-13.89,26.23a40.88,40.88,0,0,0-2.25,7.28Z"/><path class="cls-24" d="M5425.6,3960.73c-6.8,87.33,48.77,80.53,51,136.1s74.86,149.71,108.49,216.63c17.49,34.8,23.94,88,26.12,131.07h27c-10.45-109-54.66-184.83-81.09-245.63-34-78.25-39.13-114-10.21-175.23s-13.61-219.46,27.56-290,20.07-181.25,10.61-223.78,1-71.45,9.46-116.29-9.46-110-9.46-110c-1.54,55.58-43.84,131.57-74.46,180.34s-88.47,181.47-81.66,241.58,3.4,64.65,3.4,64.65C5410.86,3850.71,5432.41,3873.4,5425.6,3960.73Z"/><path class="cls-8" d="M5587.72,4373.56c3.47,10.43,14.61,37,24.81,71h16.56c-7.53-43.18-20.55-93.29-42.51-122-44.23-57.85-132.7-82.8-142.91-124.76s1.14-167.86-63.51-238.18c0,0,9.07,78.29,0,99.25S5294,4177.35,5339.33,4259s147.44,71.46,179.2,89.6S5582.05,4356.55,5587.72,4373.56Z"/><path class="cls-8" d="M5546.88,3997c-1.13,83.93,64.65,115.68,63.52,162.18s13.61,96.41,26.09,133.84c7.89,23.69,3.52,89.65,2.12,151.56h18.26c4.59-45.5,9.63-111.13,8-140.22-2.27-39.7,15.88-71.46,18.15-140.64s17-131.56-13.61-218.9-24.95-191.67-153.12-288.08c0,0-22.68,102.08-5.67,157.65S5548,3913,5546.88,3997Z"/><path class="cls-7" d="M5546.88,3997c-1.13,83.93,64.65,115.68,63.52,162.18s13.61,96.41,26.09,133.84c7.89,23.69,3.52,89.65,2.12,151.56h7.58c1-12.93,2-21.06,2-21.06L5652,4267s-7.56-122.49-21.18-222.3-114.55-388-114.55-388-22.68,102.08-5.67,157.65S5548,3913,5546.88,3997Z"/><path class="cls-11" d="M5676.73,4372.91H5501.06a18.62,18.62,0,0,0-18.1,22.94l64,270a18.6,18.6,0,0,0,18.09,14.33h211a18.61,18.61,0,0,0,18.1-14.33l64-270a18.63,18.63,0,0,0-18.1-22.94Z"/><circle class="cls-19" cx="3771.55" cy="2392.27" r="56.54"/><rect class="cls-25" x="3611.25" y="2964.09" width="20.84" height="66.88" rx="1.18" transform="translate(7243.33 5995.06) rotate(180)"/><path class="cls-26" d="M3512.23,2260.71c17.42-22.82,36.95-35.43,58.07-37.47,32.56-3.15,58.51,19.52,58.77,19.75l13-14.63c-1.31-1.17-32.67-28.54-73.63-24.58-26.74,2.59-50.87,17.75-71.72,45.06Z"/><path class="cls-25" d="M3660.2,2210l89.08,89.08a10.5,10.5,0,0,1,0,14.83L3712.16,2351a10.48,10.48,0,0,1-14.83,0l-89.08-89.08a10.48,10.48,0,0,1,0-14.83l37.12-37.12A10.48,10.48,0,0,1,3660.2,2210Z"/><path class="cls-11" d="M3859.34,2290l-190.08,190.08A134.41,134.41,0,0,1,3859.34,2290Z"/><path class="cls-25" d="M3285.38,2622.84,3476,2234.54l59.5,29.21-190.62,388.3Zm199.94-361-172.64,351.67,22.87,11.22,172.63-351.67Z"/><path class="cls-25" d="M3272.2,2647.52l62.72-21.42,139.78,409.36L3412,3056.87Zm50,4.48-24.11,8.23L3424.7,3031l24.1-8.23Z"/><path class="cls-27" d="M3659.11,2494.35l10.35,10.36a2.93,2.93,0,0,0,4.14,0L3884,2294.32a2.92,2.92,0,0,0,0-4.14l-10.35-10.35a2.93,2.93,0,0,0-4.14,0l-210.38,210.39A2.9,2.9,0,0,0,3659.11,2494.35Z"/><circle class="cls-11" cx="3311.76" cy="2644.3" r="48.33"/><path class="cls-11" d="M3317.73,2996h449.44a0,0,0,0,1,0,0v58.7a7.5,7.5,0,0,1-7.5,7.5H3325.24a7.5,7.5,0,0,1-7.5-7.5V2996A0,0,0,0,1,3317.73,2996Z" transform="translate(7084.91 6058.19) rotate(180)"/><ellipse class="cls-20" cx="3239.81" cy="1274.56" rx="352.62" ry="352.34"/><ellipse class="cls-16" cx="3239.81" cy="1274.57" rx="310.61" ry="310.36"/><rect class="cls-5" x="3004.54" y="1225.35" width="7.36" height="95.82" transform="translate(1734.97 4281.48) rotate(-90)"/><rect class="cls-5" x="3468.36" y="1225.35" width="7.36" height="95.82" transform="translate(2198.79 4745.29) rotate(-90)"/><rect class="cls-5" x="3235.75" y="997.35" width="7.36" height="95.74"/><rect class="cls-5" x="3235.75" y="1458.94" width="7.36" height="95.74"/><path class="cls-28" d="M3248.46,1274.56a8.66,8.66,0,1,1-8.65-8.64A8.65,8.65,0,0,1,3248.46,1274.56Z"/><path class="cls-28" d="M3239.81,1278.43a3.89,3.89,0,0,1-2.74-1.13l-155.52-155.4a3.87,3.87,0,1,1,5.47-5.47l155.52,155.4a3.87,3.87,0,0,1-2.73,6.6Z"/><path class="cls-28" d="M3289.81,1431.62a2.83,2.83,0,0,1-1.4-1.63l-50.27-151.73a2.81,2.81,0,0,1,5.34-1.77l50.27,151.73a2.82,2.82,0,0,1-3.94,3.4Z"/></g></g></svg>