<svg id="Слой_1" data-name="Слой 1" xmlns="http://www.w3.org/2000/svg" viewBox="0 0 2448 2000"><defs><style>.cls-1{fill:#cce2ff;}.cls-2{fill:#dfedfb;}.cls-3{fill:#cde3fd;}.cls-4{fill:#d54a41;}.cls-5{fill:#75a1de;}.cls-6{fill:#f37168;}.cls-7{fill:#ffb27d;}.cls-8{fill:#e2915a;}.cls-9{fill:#ce5b59;}.cls-10{fill:#233862;}.cls-11{fill:#c8dbf4;}.cls-12{fill:#d4e4f8;}.cls-13{fill:#2e5b9a;}.cls-14{fill:#163560;}.cls-15{fill:#f4a269;}.cls-16{fill:#213f7a;}.cls-17{fill:#ffb93e;}.cls-18{fill:#ed7d2b;}.cls-19{fill:#f99746;}.cls-20{fill:#ffeac5;}.cls-21{fill:#f2ccaa;}.cls-22{fill:#e8945b;}.cls-23{fill:#ebf3fa;}.cls-24{fill:#fff;}.cls-25{fill:#b5453c;}.cls-26{fill:#95c0f4;}.cls-27{fill:#b0d4ff;}.cls-28{fill:#ed975d;}.cls-29{fill:#9ec3f6;}</style></defs><path class="cls-1" d="M2253.7,1791.4c-175.23-9.71-771.33,6.74-952.62,13.16s-391.74-8.46-501-30.35-741.18,1.88-712.51,60.7,281.53,26.32,568.27,50,931.61-3,1077.08,0,278.85-5.91,466.31-17.74S2355.27,1797,2253.7,1791.4Z"/><path class="cls-2" d="M1736.48,426.49l-28-1.27-.67,0a6.69,6.69,0,0,0-6.89,5.64L1697.33,454a7.67,7.67,0,0,1-.26,1.1,6.58,6.58,0,0,1-5.7,4.44A116.86,116.86,0,0,0,1647,472.29a7.28,7.28,0,0,1-1.77.61,6.8,6.8,0,0,1-6.32-2.15L1626.06,456a6.8,6.8,0,0,0-6.75-2.05,7.2,7.2,0,0,0-2.13,1l-23.45,16.41a6.82,6.82,0,0,0-2,9l13,22.48a6.6,6.6,0,0,1-.29,7.07c-2.07,3.06-4,6.2-5.83,9.48a116.93,116.93,0,0,0-8.31,18.9v0a6.72,6.72,0,0,1-6.14,4.62l-26.37,1.06-1.32.07a6.58,6.58,0,0,0-6.34,6.28L1548.89,579a6.88,6.88,0,0,0,5.79,7.09l25.74,4a6.64,6.64,0,0,1,5.58,5.49,117.34,117.34,0,0,0,11.68,34.18,6.69,6.69,0,0,1-1.55,8.12l-17.4,15.27a6.82,6.82,0,0,0-1.09,9.06l16.47,23.55a6.52,6.52,0,0,0,8.61,1.9l26.44-15.3a6.83,6.83,0,0,1,7.19.21q4,2.65,8.27,5a118.35,118.35,0,0,0,16.41,7.47,6.48,6.48,0,0,1,4.36,5.92l1.24,31.69a6.71,6.71,0,0,0,6.38,6.43l28.73,1.33a6.73,6.73,0,0,0,6.67-4.7,4.61,4.61,0,0,0,.22-.94l4.46-28.56a6.64,6.64,0,0,1,4.9-5.48,4,4,0,0,1,.69-.15,19.22,19.22,0,0,0,2.07-.38,116.32,116.32,0,0,0,24-6.84,6.46,6.46,0,0,1,7.41,1.81l16.13,18.37a6.81,6.81,0,0,0,9,1.07l5.22-3.64,18.18-12.76a6.73,6.73,0,0,0,2-8.88l-12.86-22.13a6.48,6.48,0,0,1,.64-7.42,117.67,117.67,0,0,0,19.17-33.07l5.53-.22,22.7-.92a6.49,6.49,0,0,0,6-4.58,6.3,6.3,0,0,0,.29-1.69l1.38-28.81a6.77,6.77,0,0,0-5.67-6.91l-17.6-2.71a6.68,6.68,0,0,1-5.6-5.92,117.55,117.55,0,0,0-9.2-35.88,6.47,6.47,0,0,1,1.68-7.59l22-19.29a6.46,6.46,0,0,0,1-8.53l-16.68-23.79a6.54,6.54,0,0,0-8.67-1.93l-27.5,15.93a6.64,6.64,0,0,1-7.47-.52,114.19,114.19,0,0,0-15-9.81q-4.32-2.37-8.74-4.35a6.75,6.75,0,0,1-4-5.81l-1.2-30.38A6.8,6.8,0,0,0,1736.48,426.49Zm-87,112.69A72.44,72.44,0,0,1,1667,521.92a41.77,41.77,0,0,1,5.29-3.15c8.5-4.22,20-7,28.25-6.61,63.15,3.26,85.65,78.22,35.86,115.74-.83.61-1.65,1.21-2.51,1.8-7.94,5.56-22.46,9.72-32.13,9.33a77.3,77.3,0,0,1-14.41-1.95C1642,626.31,1624.11,575.26,1649.52,539.18Z"/><path class="cls-3" d="M2116.21,625.78l-42.65-7.32-1-.17a10.31,10.31,0,0,0-11.63,7.32L2051,660.35a11.37,11.37,0,0,1-.62,1.64,10.14,10.14,0,0,1-9.58,5.71,180.47,180.47,0,0,0-70.42,11.08,11.53,11.53,0,0,1-2.84.6,10.49,10.49,0,0,1-9.26-4.5l-16.86-25a10.49,10.49,0,0,0-10-4.43,11.33,11.33,0,0,0-3.46,1.1l-39.07,20.64a10.55,10.55,0,0,0-4.75,13.45l15.68,36.93a10.2,10.2,0,0,1-1.8,10.78c-3.75,4.3-7.34,8.72-10.74,13.41a180.1,180.1,0,0,0-16.36,27.37l0,0a10.38,10.38,0,0,1-10.28,5.89l-40.6-3.43-2-.15a10.16,10.16,0,0,0-10.91,8.41l-7.5,43.6a10.63,10.63,0,0,0,7.52,12l38.66,11.07a10.28,10.28,0,0,1,7.49,9.48,180.88,180.88,0,0,0,11.35,54.61,10.34,10.34,0,0,1-3.93,12.14l-29.6,20a10.52,10.52,0,0,0-3.39,13.67l20.71,39.25a10.06,10.06,0,0,0,12.83,4.55l43.43-18.37a10.57,10.57,0,0,1,11,1.7q5.61,4.83,11.71,9.25a182.9,182.9,0,0,0,23.71,14.59,10,10,0,0,1,5.54,9.9l-4.18,48.79a10.36,10.36,0,0,0,8.55,11.07l43.75,7.55a10.42,10.42,0,0,0,11.13-5.92,8.26,8.26,0,0,0,.51-1.4l12.3-42.89a10.25,10.25,0,0,1,8.57-7.46,6.57,6.57,0,0,1,1.08-.1,32.3,32.3,0,0,0,3.24-.18,180,180,0,0,0,38.05-5.89,10,10,0,0,1,11,4.19l21.2,31.24a10.51,10.51,0,0,0,13.63,3.37l8.69-4.58,30.31-16.05a10.38,10.38,0,0,0,4.71-13.23l-15.45-36.37a10,10,0,0,1,2.39-11.24,182.17,182.17,0,0,0,22.32-25.46,179.4,179.4,0,0,0,13.4-21.54l8.51.74,35,2.93a10,10,0,0,0,10.07-5.86,9,9,0,0,0,.77-2.54l7.64-43.88a10.45,10.45,0,0,0-7.37-11.66l-26.43-7.52a10.33,10.33,0,0,1-7.45-10.15,181.4,181.4,0,0,0-7.21-56.73,10,10,0,0,1,4-11.31l37.41-25.33a10,10,0,0,0,3.19-12.87l-21-39.64a10.09,10.09,0,0,0-12.92-4.62l-45.18,19.13a10.26,10.26,0,0,1-11.36-2.23,174.33,174.33,0,0,0-21.12-17.9q-6.15-4.47-12.55-8.35a10.38,10.38,0,0,1-4.95-9.66l4-46.78A10.5,10.5,0,0,0,2116.21,625.78Zm-154.83,156a111.41,111.41,0,0,1,30-23.09,63.38,63.38,0,0,1,8.71-3.81c13.83-4.85,32-6.93,44.55-4.72,96.11,17.1,116.2,136.25,32.74,184.19-1.38.77-2.76,1.54-4.19,2.28-13.22,7-36.27,10.59-51,8.13A121.13,121.13,0,0,1,2000.5,939C1933.22,913.8,1915.54,832.14,1961.38,781.74Z"/><path class="cls-2" d="M698.92,935.77c-2.4-59.5,47.47-85.93,98.46-85.93s106.48,13.21,111.28,92.33c3.1,50.89-24,82.21-102.16,82.21-26.35,0-46.83-4.16-62.51-11.57l-39.06,34.7,19.19-48C707.12,983.74,700,961.44,698.92,935.77Z"/><path class="cls-4" d="M213.79,1832.33s-2.12-16.49-7-26.29-36.1-3.57-36.1-3.57-6.24,5.35-7.58,30.31Z"/><path class="cls-4" d="M320.09,1832.11c-7.33-4.48-3.16-37.86-3.16-37.86s34.16-27.32,38.85-6.4,32.46,30.32,48.26,32.88c10.9,1.77,14.28,7.81,15.32,11.38Z"/><path class="cls-5" d="M249.33,1589.32a159.1,159.1,0,0,1,2.51,18.46c3.17,61.94,52.14,203.56,60.9,206.86,13.55,5.12,34.89-5.75,46.05-9.31,4.63-1.48,7.75-6.14,6.72-10.88-24.25-111.47-33.16-272-36.4-367-1.64-47.87-9.85-80.94-9.85-80.94s-119.43-31.86-120.14,8.45C198.5,1390.6,238.68,1530.48,249.33,1589.32Z"/><path class="cls-5" d="M249.33,1589.32l79.78-161.89c-1.64-47.87-9.85-80.94-9.85-80.94s-119.43-31.86-120.14,8.45C198.5,1390.6,238.68,1530.48,249.33,1589.32Z"/><path class="cls-5" d="M275.9,1355.08l-63.13,457.56s-27.72,6.68-49.29,1.34c0,0-18.48-243.36-16.94-302.19s-13.26-157.42,3.38-168.29S275.9,1355.08,275.9,1355.08Z"/><path class="cls-6" d="M145.48,1237.6l-7.86,109.86a8.76,8.76,0,0,0,6.32,9c8.8,2.55,19,4.33,38.54,8.39a374.06,374.06,0,0,0,73.54,7.39c48.36.3,66.67-16.36,66.67-16.36,2.08,0-1.1-10.09-4-58.21-1-16.3-1.91-37-2.58-63.08-.62-23.49-1-51.41-1.07-84.53-.05-39.84-61.71-82.7-62.85-82.7v0c0,5.74-9,16.32-23,17.24-16.52,1.08-36.8-7.15-36.8-16.67,0-.09-29.88,47.8-40.49,98.83-1.35,6.46-2.39,13.29-3.22,20.47,0,.11,0,.22,0,.33-.15,1.31-.29,2.63-.43,4,0,.23,0,.47-.07.7-.12,1.21-.24,2.43-.35,3.66l-.09,1c-.11,1.13-.2,2.25-.29,3.39l0,.31c-.07.84-.13,1.69-.19,2.54-.05.59-.09,1.2-.14,1.81-.07,1-.13,2-.2,3,0,.5-.07,1-.1,1.51-.06,1-.11,1.91-.17,2.88,0,.42,0,.85-.08,1.28-.08,1.39-.15,2.8-.22,4.21,0,.12,0,.22,0,.34-.07,1.36-.14,2.73-.2,4.1,0,.34,0,.68-.05,1-.06,1.29-.12,2.59-.17,3.9l0,.58c-.13,3.19-.25,6.44-.38,9.73a2,2,0,0,1,0,.25Z"/><path class="cls-6" d="M252.22,1067.42s57.34-.49,71.14,18.86,44.06,123.47,28.27,158.12-45.34-14.34-61.73-35.55S252.22,1067.42,252.22,1067.42Z"/><path class="cls-7" d="M252.81,1058.66l0,5.93s1.62,18.54-21.21,21.25-39.74-3.53-39.12-17.84c2.06-11.07,3.93-22.38,4.09-31.54a64.62,64.62,0,0,0-.82-11.1l44.24-.89,13,2.13Z"/><path class="cls-8" d="M253,1026.6l-.16,32.06a37.34,37.34,0,0,1-15.95,3.52c-20.33,0-33.47-14.91-40.33-25.72a64.62,64.62,0,0,0-.82-11.1l44.24-.89Z"/><path class="cls-7" d="M192.33,1018.24c5.13,27.62,40.77,26.71,56.17,25,4.33-.48,7.06-1,7.06-1,4.89-1.31,7.61-9,8.88-19.09,2.51-20-.66-49.24-4-56.74-5.08-11.27-14.63-23.46-50.52-14.66S185.74,982.85,192.33,1018.24Z"/><path class="cls-9" d="M310.86,1145s22.17,49,21.53,63.65a76.76,76.76,0,0,0-21.53,2.77C293.52,1216.6,310.86,1145,310.86,1145Z"/><path class="cls-10" d="M271.42,940.06A118.61,118.61,0,0,1,237,930.75c-15.12-6.58-34.2.66-40.4,3.93A9.37,9.37,0,0,1,198.1,931s-2.78,2-3.19,4.73c-.28.21-.41.36-.34.4s-3.15-.57-5.17.34c0,0,1.41-.2,1.92.71a.77.77,0,0,0,.23.25c-23.59,11.4-25.77,48.68-18.18,57.31,9.13,10.38,20.08,33.75,20.08,33.75s4-5.52,2.34-14.66,6.22-9.13,16.19-13.28,1.66-15.78,10.38-22.83,40.68-2.91,40.27-8.31C274.49,965,271.42,941.28,271.42,940.06Z"/><path class="cls-9" d="M185.1,1236.75c9.36,37.6,110.61,57,133.62,61-1-16.3-1.91-37-2.58-63.08Z"/><path class="cls-7" d="M207.32,1249c-1,0-22.51-3.21-26.36-5.14s-21.51-27-10-33.44,42.58,19.29,42.58,19.29Z"/><path class="cls-9" d="M338.35,1256.42S255,1260.94,199.12,1249c0,0-1.41-16.15,16.16-23.33,0,0,87.14-18.47,108.08-13.32S338.35,1256.42,338.35,1256.42Z"/><path class="cls-6" d="M147,1191c17.29,20.85,39.89,37.87,64.81,41.85h0a46.48,46.48,0,0,0,6.17-27.83,55.72,55.72,0,0,0-9.08-25.54,57.21,57.21,0,0,1-4.9-9.88c-13.6-34.72-11.58-101.64-11.58-101.64s-57.79,6.06-75.79,31.78C105.62,1115.53,119.68,1158.07,147,1191Z"/><path class="cls-8" d="M248.5,1043.21c4.33-.48,7.06-1,7.06-1,4.89-1.31,7.61-9,8.88-19.09-9.16,2.26-13.36,9.34-15.11,12.36C248.54,1036.8,248.38,1039.85,248.5,1043.21Z"/><path class="cls-7" d="M271.78,1058.84s20-32.93,4.44-34.37-21.76,9.07-24,12.93.59,21.26.59,21.26Z"/><path class="cls-6" d="M195.71,1204a43.07,43.07,0,0,0,3.41,11.43,54.71,54.71,0,0,0,12.7,17.5h0c51.83-23.4,62.32-103.74,64.07-147.88.71-17.74,0-29.64,0-29.64-23.38-7.74-29.95,5.72-29.95,5.72s-27.61,65.65-41.93,108.55C198.54,1186.06,195,1199.15,195.71,1204Z"/><path class="cls-9" d="M147,1191c17.29,20.85,39.89,37.87,64.81,41.85h0c51.83-23.4,62.32-103.74,64.07-147.88,0,0-24.52,89-57.9,120-6,5.63-12.36,9.36-18.88,10.33,0,0-42.1-11.9-50.93-23.1C147.56,1191.49,147.18,1191.09,147,1191Z"/><path class="cls-11" d="M1801.78,1477.69s32.93-38.63,1.86-63c0,0-22.68-13.65-41.14-12.49,0,0,26.28,43.81,17.83,48.19s-25.77-50.92-25.77-50.92-51.55-4.85-68.1,3.16c0,0,44.15,35.93,34.88,38.11s-57-33.09-57-33.09-47.93,8.3-45.3,37.55,19.19,38.24,26.45,37.44,49.71-17.13,50.65-11.18-24.58,25.47-42.49,26.43c0,0,33.92,37.19,56.36,26.37s24.32-27.89,38.31-34.33,26-6.45,20.18.09-31.1,13-39.07,27.15-15.13,23.77,8.11,20.2,61-20.68,62.59-40.16Z"/><path class="cls-11" d="M1642.65,1445.89s130.26-5.37,159.13,31.8c0,0,6.41,19,26,36.34l3.07,8.3s-22.64-23.73-30.72-25.15C1800.17,1497.18,1812.68,1451,1642.65,1445.89Z"/><path class="cls-11" d="M1827.82,1514s28,20.6,30.06,57.54l-5.07.47s-9-38.18-25.22-53.08S1827.82,1514,1827.82,1514Z"/><path class="cls-11" d="M1976.48,1375.82s-52.64-29.29-28.22-69.3c0,0,19.55-24.58,40.56-31,0,0-11,59.6.17,61s7.52-67.3,7.52-67.3,55.29-26.78,77-24.73c0,0-34.18,58.25-23,56.82s49.59-60.4,49.59-60.4,56.73-10.67,65.93,22.94-5.47,50.47-13.87,52.6-62.36,1.57-60.94,8.57,37.89,18.12,58.19,11.76c0,0-22.27,55.42-51.71,52.7s-38.6-20.92-56.82-22.27-31.52,3.59-22.4,8.47,40,1.5,54.7,14,26.68,20.14-.63,25.82-76.38,2.32-86.25-18.68Z"/><path class="cls-11" d="M2140.18,1274.45s-147,48.06-163.7,101.37c0,0,.77,23.82-13.87,51.19l0,10.51s15.32-35.78,23.71-40.71C1986.35,1396.81,1953.29,1350.65,2140.18,1274.45Z"/><path class="cls-11" d="M1962.61,1427s-22.6,34.52-9.55,76.44l5.84-1.58s-5.8-46.19,6-69.47S1962.61,1427,1962.61,1427Z"/><path class="cls-12" d="M1892.76,1335.46s69.17-39,36.69-91.56c0,0-26-32.26-53.68-40.49,0,0,15,78.47.22,80.36s-10.41-88.65-10.41-88.65-73.07-34.9-101.7-32c0,0,45.48,76.55,30.69,74.74s-65.8-79.26-65.8-79.26-74.86-13.65-86.75,30.72,7.57,66.49,18.67,69.23,82.21,1.62,80.39,10.87-49.81,24.15-76.62,15.91c0,0,29.76,72.89,68.54,69.09s50.73-27.85,74.74-29.76,41.58,4.5,29.59,11-52.64,2.26-72,18.81-35,26.75,1,34,100.7,2.49,113.55-25.26Z"/><path class="cls-12" d="M1676.24,1203s194.15,62.28,216.52,132.43c0,0-.84,31.41,18.66,67.38l0,13.85s-20.46-47-31.56-53.49C1879.9,1363.2,1923.15,1302.12,1676.24,1203Z"/><path class="cls-12" d="M1911.42,1402.84s30,45.34,13.14,100.69l-7.71-2s7.31-60.93-8.43-91.52S1911.42,1402.84,1911.42,1402.84Z"/><path class="cls-10" d="M2344.4,1824.28l-568.81,1.41c-84.61-96.87-93.22-227.82,19.18-338.09,14.13-13.87,41.24-23.7,70.46-30.63,53.87-12.76,115-15.69,115.43-15.94.17-.07,32.28-26.08,51.61-49.46,60-72.62,111.08-66.36,111.08-66.36,61.17-11.88,113.34-15.35,152,6.2v0c35.83,20,60.07,61.47,69.11,137.68q2.58,21.62,3.49,47.06c2.19,61.85,14.36,116.87,21.58,163.46h0C2400,1747.13,2400.09,1796.94,2344.4,1824.28Z"/><path class="cls-13" d="M2265,1407.74c-37.12,20.2-41.26,86.79-99.35,104S2009,1527.27,1953,1587.92c-54,58.51-113.43-90.43-87.79-132.3,53.87-12.77,115-15.69,115.43-15.95.17-.06,32.28-26.08,51.61-49.46,60-72.62,111.08-66.36,111.08-66.36,61.17-11.87,113.34-15.34,152,6.2v0C2315,1351.49,2302.14,1387.54,2265,1407.74Z"/><path class="cls-10" d="M2037.19,1426.8s-186.24-2.45-211,13.42,25.58,268.1,25.58,268.1,48.17,1.4,52-11.35c0,0-9-118.23-1.47-138.68s2.77-48.74,2.77-48.74,94.25,14.11,124.15,7S2037.19,1426.8,2037.19,1426.8Z"/><path class="cls-7" d="M2080.29,1296.43c0,.14-26.21,61.09-39,67.58s-59,59.63-68.94,58.71,11.6,8.06,11.6,8.06,80.84-37.26,85.54-39.59,29.46-43.06,32.86-63.73S2080.29,1296.43,2080.29,1296.43Z"/><path class="cls-7" d="M1909.62,1727.13c-6.21,12-7.61,34-9.45,41.47s-34.39,32.86-37.19,31.59c-7.12-3.21-.32-15.62,4-24.69.18-.36.34-.73.51-1.08,4.29-9.14.6-29.53,2.82-40.07s-8.46-38.89-8.46-38.89l18-22.71s12.64,24,21.68,28.42A21.34,21.34,0,0,1,1906,1704C1912.08,1709,1914.73,1717.28,1909.62,1727.13Z"/><path class="cls-7" d="M1846.42,1797.28c-12.46,5.14-27.74,21.07-34,25.58s-47.48,2.91-48.8.14c-3.5-7.32,10.92-12.54,20.09-16.76l.4-.19,0,0c9.07-4.56,19.22-22.07,27.59-28.58s18.62-35.17,18.62-35.17l28.39-5.75s-5.85,26.52-1.77,35.69a23.22,23.22,0,0,1,1,2.62C1860.58,1783.36,1857.71,1792.62,1846.42,1797.28Z"/><path class="cls-14" d="M2133.8,1269.37c-3.8-4.38,56.09-22.43,68.87,26.72,0,0,110.22-29.31,42.46-78.42-23.45-17-25.81-35.14-29.21-51.74s-26.79-64.31-67.42-40.63c0,0-18.56.08-30.31,10.25C2091.48,1158.69,2062.29,1305.78,2133.8,1269.37Z"/><path class="cls-5" d="M2115,1435.44s-193.14,19.63-210.11,39.34-83.71,276.06-83.71,276.06,19.71,11,37.62.72c0,0,51.11-87,73.72-114.25s31.07-111.59,34.81-112.46,124.76,16.9,166.44-15.09S2115,1435.44,2115,1435.44Z"/><path class="cls-6" d="M2222.58,1260.19s-46.07-20.58-104.49-11.17c-11.93,1.92-22.69,5.84-31.23,19.91-12.06,19.86-17.71,30.52-17.71,30.52s1.16,9.21,17.64,16.54c-4.49,16.47,4.1,45.23-3.82,56.4s-57,38.83-59.43,54.22c-4.46,28.29,83.87,79.56,110.22,74.09C2209.56,1485,2261.06,1281.86,2222.58,1260.19Z"/><path class="cls-14" d="M2196.51,1201.92s9.09-17.87,10.29-32.53c.86-10.47-8-48.13-45.8-39a52.39,52.39,0,0,0-20.84,10.2c-7.8,6.41-18.67,19.68-2.1,51.72l4.55,10.92Z"/><path class="cls-7" d="M2144.65,1262.19c-3.83,4-2.33,17.45,15.58,16.45,11.75-.66,36.94-15.19,34.58-25.23-1.12-4.78-10.15-17.09-12.27-45.41l-2.14.6-35.87,10.08s1.73,11.4,2.6,22.21C2147.87,1250,2146.23,1260.52,2144.65,1262.19Z"/><path class="cls-15" d="M2144.53,1218.68s1.73,11.4,2.6,22.21c20.35-2.18,29.67-21.63,33.27-32.29Z"/><path class="cls-7" d="M2143.76,1235.26s46.94-11.8,39.14-40.92-7-50.26-37.3-43.95-33.13,19-32.88,29.32S2131.34,1237.59,2143.76,1235.26Z"/><path class="cls-14" d="M2124.12,1155.4s15.76,30,45.49,33.27c17.4,1.9,22.18,13.36,22.18,13.36s-5.22-32.78-14-52.83C2177.82,1149.2,2129.4,1136.55,2124.12,1155.4Z"/><path class="cls-14" d="M2129.5,1159.37s-10.28,10.49-13.45,17.89c-4.7,11,4.46,34,8.24,39,0,0-21.84-37.06-14.54-53.11C2117.49,1146.13,2129.5,1159.37,2129.5,1159.37Z"/><path class="cls-7" d="M1986.31,1429.7s-9.35,9.9-10.49,10.43c-6.18,2.89-14,1.21-17.76,2.15s-3.12-1.39-.34-3.3,9.63-1.16,6.83-1.86-17.91-3.51-23.6-2c-9,2.41-16.11-.42-16.68-1.34s20.57-11.25,26.61-10.9,23.39-.49,23.39-.49Z"/><path class="cls-7" d="M2238.46,1278.45s5.61,137.69-10.58,157-114.59-2.13-114.59-2.13l-6.82-10.06s87.45-12.8,93.32-14.46c8.44-2.38,2.57-97.2,2.57-97.2Z"/><path class="cls-6" d="M2216.87,1258c1.4,0,18.79,5.8,31.22,30.58,12.21,24.34,16.65,36.16,16.65,36.16s-54.59,42-76.21,26.44S2196.9,1257.44,2216.87,1258Z"/><path class="cls-7" d="M2113.29,1433.31s-7.83,7.94-10.82,12-23.81,11.4-24.28,9.23,9.32-8.78,10.21-11.25,11.56-14.85,18.07-16.26S2113.29,1433.31,2113.29,1433.31Z"/><path class="cls-7" d="M2106.47,1423.25s-32.13,7.43-37.58,9.66-17,18.59-12.43,21c2.89,1.55,15.57-5.14,22-6.54s24.67,1.77,33-14.71C2112.43,1430.85,2106.47,1423.25,2106.47,1423.25Z"/><path class="cls-4" d="M1846.42,1797.28c-12.46,5.14-27.74,21.07-34,25.58s-47.48,2.91-48.8.14c-3.5-7.32,10.92-12.54,20.09-16.76l.4-.19,0,0,1.3-.42s17.79,6.35,32.58,0c11.54-4.95,28.64-23.3,39.93-30.77C1860.58,1783.36,1857.71,1792.62,1846.42,1797.28Z"/><path class="cls-4" d="M1909.62,1727.13c-6.21,12-7.61,34-9.45,41.47s-34.39,32.86-37.19,31.59c-7.12-3.21-.32-15.62,4-24.69a20.17,20.17,0,0,0,9.94-3.69c8.13-5.42,21.93-25.88,23.16-38,1-9.83.38-23.93,5.84-29.87C1912.08,1709,1914.73,1717.28,1909.62,1727.13Z"/><polygon class="cls-16" points="2065.04 1458.11 1925.09 1458.11 1882.99 1353.42 2022.73 1353.42 2065.04 1458.11"/><polygon class="cls-16" points="1923.45 1454.03 2108.26 1454.03 2108.26 1458.11 1925.09 1458.11 1923.45 1454.03"/><path class="cls-16" d="M1960.42,1405.77c-1.05-3.68,1.07-6.67,4.75-6.67a9.57,9.57,0,0,1,8.58,6.67c1,3.68-1.08,6.66-4.76,6.66A9.55,9.55,0,0,1,1960.42,1405.77Z"/><path class="cls-10" d="M2225.24,1457.47s-18.3,17.13-94.87,19.57S1954,1564,1953,1587.92s154.14,60.25,156.54,56.83,98.38-85.81,98.38-85.81Z"/><path class="cls-10" d="M2389.54,1678.27c-41.22-74.22-135.35,28.14-158.75-6.49s33.07-78.59,84-116.46c49.9-37.1,49.69-85.6,49.66-87.56,1.72,14.41,2.89,30.06,3.49,47C2370.15,1576.66,2382.32,1631.68,2389.54,1678.27Z"/><path class="cls-17" d="M1724.14,641.86a331.36,331.36,0,0,1-75.45,213c-40.94,49.85-64,112-64,176.52v93a106.75,106.75,0,0,1-25.48,69.2,108,108,0,0,1-74.75,38.12c-2.41.16-4.66,0-7.11,0H1305.59c-2.31,0-4.8.15-7.08,0-55.85-3.58-100.23-50.61-100.23-107.32v-92.85a277.35,277.35,0,0,0-63.69-176.28,331.38,331.38,0,0,1-75.78-211.39c0-184.53,149.82-332.67,332.68-332.67A332,332,0,0,1,1724.14,641.86Z"/><path class="cls-18" d="M1484.45,1231.71c-.86,6.66-15.35,117.85-15.48,118.9-2.4,18.35-23.37,32.37-48.45,32.37H1364c-24.85,0-45.79-13.79-48.42-32-2.74-19.18-13.27-92.69-17.07-119.24Z"/><path class="cls-19" d="M1462,1231.71h-31.94c-51.55,14.9-102.68,29.63-126.37,36.32l1.25,8.69,0,.19,1.26,8.8c19.18-5.31,65.24-18.51,177.83-51.14l.37-2.86Z"/><path class="cls-19" d="M1312.27,1327.88h0v.2h0l1.28,8.84c22.19-6.24,68-19.37,163.28-47l1.26-9.59v-.08l1.25-9.53c-60.24,17.44-133.15,38.5-168.33,48.5Z"/><path class="cls-19" d="M1333.49,1375.08l.31.18a54.32,54.32,0,0,0,13.16,5.47h0c26.15-7.49,65-18.7,122.67-35.41l1.25-9.61v-.08l1.25-9.53c-51.55,14.92-110.69,32-147.22,42.46A43.42,43.42,0,0,0,1333.49,1375.08Z"/><polygon class="cls-20" points="1324.21 1231.71 1252.32 807.36 1267.15 804.85 1339.46 1231.71 1324.21 1231.71"/><polygon class="cls-20" points="1452.08 1231.71 1436.72 1231.71 1513.7 811.47 1528.5 814.17 1452.08 1231.71"/><path class="cls-20" d="M1431.18,883.31a29.46,29.46,0,0,1-6.5-.8c-4-.91-6.57-3.7-7.37-8.06-1.72-9.4,5.66-26.65,16-41.27-5.41-9.45-12.63-17.25-20.19-19.54-11.17-3.38-28.3,6.93-40.24,20.1a89.37,89.37,0,0,1,5.87,9.57c6.11,11.55,10.51,26.31,4.5,33.14-2.23,2.53-6.78,4.83-15.81,1.42-11.27-4.25-15.32-13.8-11.12-26.2A60.34,60.34,0,0,1,1367,833.41c-9.25-12.06-21.6-21.22-33.77-19.69a37.36,37.36,0,0,0-16.72,6.31c7.79,14.49,9.58,32.88,4.17,42.74-3.67,6.72-10.1,8.85-18.1,6-5.74-2-8.74-9.95-7.63-20.14a46.47,46.47,0,0,1,15.61-29.78,38.55,38.55,0,0,0-8.66-9.7c-21-16.28-38.31,1.19-39,2l-3.27-3.17c.21-.22,21-21.13,45.11-2.38a43,43,0,0,1,9.48,10.54,41.71,41.71,0,0,1,18.48-6.89c13.65-1.72,27.26,7.91,37.37,20.72,13-14.11,31.49-24.54,44.4-20.64,8.16,2.46,15.85,10.33,21.73,20,5.48-7.1,11.57-13.29,17.51-17.22,9.5-6.3,15.69-4.85,19.2-2.54a34.49,34.49,0,0,1,9.23,9.23,51.38,51.38,0,0,1,8.84-5.69c11-5.48,21.12-5.08,28.47,1.13l-2.94,3.48c-7.93-6.71-18.13-3.21-23.5-.53a47.24,47.24,0,0,0-8.47,5.48c7.33,13.21,8.75,30.44,4.56,38.78-2.65,5.25-7.37,7.08-12.89,5-9.94-3.64-12.37-10.49-12.66-15.6-.54-9.77,6.23-20.89,15.07-29.08a29.67,29.67,0,0,0-8.21-8.44c-4.3-2.83-10.09-.19-14.19,2.53-5.92,3.91-12.12,10.36-17.61,17.69,6.83,13,10.37,28.14,7.79,37.9C1445.13,876.23,1441.53,883.31,1431.18,883.31Zm4.52-45.67c-9,13.15-15.36,28-13.91,36,.46,2.53,1.7,3.94,3.9,4.44,8.92,2,14.4-.58,16.29-7.74C1444.18,862.06,1441.31,849.13,1435.7,837.64Zm-65.85-.33a54,54,0,0,0-9.19,15.82c-3.46,10.18-.63,17.07,8.41,20.48,3.64,1.37,8.46,2.46,10.78-.17,3.58-4.06,1.48-15.57-5.1-28A87.67,87.67,0,0,0,1369.85,837.31Zm-56.94-14.42a41.91,41.91,0,0,0-13.41,26.25c-.84,7.76,1.07,14.08,4.64,15.35,5.79,2,10,.75,12.58-3.91C1321.35,852.13,1319.67,835.87,1312.91,822.89Zm168,2.9c-7.91,7.6-13.29,17.34-12.87,24.85.3,5.44,3.56,9.33,9.68,11.58,3.36,1.23,5.66.33,7.25-2.83C1488.53,852.4,1487,837.44,1481,825.79Z"/><path class="cls-20" d="M1563.2,439.13c27.35,25.76,23.92,73.17-11.26,83.72-26.52,7.95-66.07-2.67-85.62-36.52s-10.53-61.67,13.45-75.52S1534.75,412.32,1563.2,439.13Z"/><path class="cls-14" d="M537.12,1144.77c-3.19-6.16,69.72-28.35,70.88,32.47,0,0,136.59-3.35,71.37-79.49-22.58-26.35-20.26-48.15-19.58-68.43S645.73,950.07,595.17,956c0,0-13.24-5.38-29.76,3.19C527.83,978.68,443.65,1167.21,537.12,1144.77Z"/><path class="cls-7" d="M760.43,1212.78s8.89-13.54,16.06-13.8,20.43-4,19.37-1.33-9.29,2.92-10.08,4.51,12.21,4,15.92,4.25,12.47,0,12.21,1.86-15.79,9.55-26.74,8.49-24.48,3.18-24.48,3.18Z"/><path class="cls-6" d="M631.85,1217.16a132.82,132.82,0,0,0,13.6,20.56c10.56,13.23,26.85,28.52,47.31,31.54,9.77,1.44,19.32-.66,28.1-4.56h0c24.84-11,43.52-36.39,43.52-36.39,4.38-11.94-2.78-20-2.78-20s-50.16,11.28-54.94,8.9-32.64-82.67-39.28-92.76-29.25-15.33-29.25-15.33Z"/><path class="cls-21" d="M645.45,1237.72c10.56,13.23,26.85,28.52,47.31,31.54,9.77,1.44,19.32-.66,28.1-4.56-1,.12-25.78,3.19-35.67-14.5-10.09-18-21-46.72-36-37.16C642.75,1217.16,643,1227.41,645.45,1237.72Z"/><path class="cls-4" d="M444.71,1758.61s-15.31,14-12.32,23.89,16.8,16.54,18.67,28.67,9.33,18.75,16.05,18.75h32s4.95-8.54-7-11.11-16.45-16.83-15.7-30.06-1.12-30.88-1.12-30.88L449.94,1752Z"/><path class="cls-4" d="M574.26,1764.54s-5.51,59.17,1.21,62.48l86-.18s0-9.92-13.81-12.13-38.08-10.29-42.18-28.3S574.26,1764.54,574.26,1764.54Z"/><path class="cls-7" d="M513,1340c17.7-39.68,28.53-51.07,26.46-63.39-1.54-9.17,4.69-170.93,4.69-170.93,2.1-.66,6.3-1.24,8.61-1.75a21.58,21.58,0,0,0,15.76-13.71c3-8.44,5.41-20.89,5.35-36.5l2.27.45,38.12,7.54s-.87,12-.9,23.3v.28a21.94,21.94,0,0,0,15.82,21.2c4.82,1.39,9,2.57,9,2.57s14,40,16.67,81S629.38,1249,655,1331C681.24,1414.77,503.2,1361.94,513,1340Z"/><path class="cls-22" d="M614.23,1061.72s-.87,12-.9,23.3c-21.32-.6-32.6-20.06-37.22-30.84Z"/><path class="cls-7" d="M621.35,1072.42s-50.46.84-50.5-30.6-6.57-52.5,25.65-54.36,38.49,10.13,41,20.62S634.48,1071.4,621.35,1072.42Z"/><path class="cls-14" d="M619.48,986.69s-13.81,36.88-35,42.33-30.4-.22-30.4-.22,16.26-12.92,19.64-35.48C573.7,993.32,609.06,969.14,619.48,986.69Z"/><path class="cls-14" d="M616.06,989.69s10.24,3.83,14.46,11.3a50.82,50.82,0,0,1,6.82,28.86s10.41-25.07-1.29-39.25C623.65,975.57,616.06,989.69,616.06,989.69Z"/><path class="cls-23" d="M610.37,1052.92a12.68,12.68,0,0,0,10.45,4.25,9.25,9.25,0,0,0,7.77-5.13S618.29,1049.56,610.37,1052.92Z"/><path class="cls-6" d="M508.1,1177.24a343,343,0,0,0,0,39.75c.86,14.37,15.39,33.62,17.46,38.38,5.17,12,11,13.89,11,13.89l45.15,11.07,15.87,3.88,50.07-15s22.8-63.65,13.65-99.48-23.15-60.71-23.15-60.71-40.85,40-94-3.39Z"/><path class="cls-21" d="M521.32,1222.86c.85,14.37,2.17,27.75,4.24,32.51,5.17,12,11,13.89,11,13.89l45.15,11.07,19.61-5.77s-65.46-9.92-58.21-66.24Z"/><path class="cls-5" d="M644.48,1278.92s24.79,77.17,26.38,103.45-47.39,373.25-49.36,385.35c-1.86,11.41-16,18.69-16,18.69s-6.52,3.84-15.82,1.22c-12.91-3.65-17-8-17-8s-19.29-247.46-7.35-335.86a1400.25,1400.25,0,0,0,12.08-164.84Z"/><path class="cls-5" d="M539.43,1276.62s-37.82,50.74-41.34,85-5.53,154.8-13,188.24-35.1,97.79-35.1,202.09c0,0,2.86,6,11.72,9.16A95.15,95.15,0,0,0,472,1764a16.21,16.21,0,0,0,18.14-8.6c18.65-37.57,78.09-158.73,81.13-183.88,2.16-17.8,20.93-135.6,61.86-204.72,9.83-16.6-6-82.59-6-82.59Z"/><path class="cls-24" d="M611.49,1053.76s.87,3.71,10.09,3.14c0,0,7.74-.48,7.5-4.55C629.08,1052.35,621.58,1049.45,611.49,1053.76Z"/><path class="cls-10" d="M648.44,1267s-10,7.87-29.73,8.27c-23.62.47-82.14-6-82.14-6a48.28,48.28,0,0,0-2.49,14.93s71.47,18,112.88,2.64C647,1286.83,652.31,1276.78,648.44,1267Z"/><path class="cls-24" d="M613.6,1283.43c0-6.72,4.83-12.19,10.78-12.19s10.77,5.47,10.77,12.19-4.83,12.2-10.77,12.2S613.6,1290.16,613.6,1283.43Zm3.57,0c0,4.76,3.23,8.63,7.21,8.63s7.2-3.87,7.2-8.63-3.23-8.62-7.2-8.62S617.17,1278.68,617.17,1283.43Z"/><rect class="cls-25" x="491.33" y="1196.27" width="97.1" height="132.91" transform="translate(117.82 2569.57) rotate(-138.95)"/><path class="cls-7" d="M553.09,1281.2s26.83,3.14,26.74,9.51-6.68,19.45-10,20S548,1293.05,548,1293.05Z"/><path class="cls-6" d="M544.11,1105.68s-35.82,2.51-49.55,35.89-39.78,89.43-39.78,98.86,14.55,38.49,92.71,55.2c0,0,8.08-8.5,7.59-15.23,0,0-48.79-41.9-48.66-46.8.25-9.27,8-21.5,50.84-64.35C568.9,1157.6,544.11,1105.68,544.11,1105.68Z"/><path class="cls-26" d="M853.84,1828.09h-.34a3.57,3.57,0,0,1-3.57-3.65l5.41-234.31,15.93-1.86-13.58,236.19A3.86,3.86,0,0,1,853.84,1828.09Z"/><path class="cls-27" d="M1109.91,1828.09h.34a3.56,3.56,0,0,0,3.56-3.65l-5.4-234.31-15.93-1.86,13.58,236.19A3.86,3.86,0,0,0,1109.91,1828.09Z"/><path class="cls-27" d="M843.29,1575.6V1415a51.15,51.15,0,0,1,51.15-51.16h115.68a51.15,51.15,0,0,1,51.16,51.16v166.69Z"/><path class="cls-26" d="M843.29,1575.6H1082a0,0,0,0,1,0,0v25.35a0,0,0,0,1,0,0H858.65a15.36,15.36,0,0,1-15.36-15.36v-10A0,0,0,0,1,843.29,1575.6Z"/><rect class="cls-27" x="928.43" y="1575.6" width="191.69" height="25.35" rx="11.36"/><path class="cls-5" d="M1102.21,1535.59c-16.57,28.85-37.41,40-37.41,40H978.08S1114.85,1513.59,1102.21,1535.59Z"/><path class="cls-7" d="M1035.61,1758.76a8,8,0,0,0-1.43,8.57l0,0c2.07,5.72,8.9,12.1,16.84,18.48q1.53,1.22,2.7,2.25c.21.18.42.36.61.54s.31.29.47.42c7.4,6.83,4.61,8.39,17.91,22.23,15.16,15.78,25.6,16.06,28.57,14.63,2.51-1.23-2.59-9.6-8.25-19l-.82-1.37-2.25-3.78c-6.63-11.31-4.93-16.62-3.36-33.47,1.28-13.68,21.3-76.46,21.3-76.46l-29.06-5s-8.75,50-18.39,57.69c-5.15,4.1-10.92,4.16-15.88,7.2-.35.21-.69.43-1,.65A37.81,37.81,0,0,0,1035.61,1758.76Z"/><path class="cls-4" d="M1035.61,1758.76a8,8,0,0,0-1.43,8.57l0,0c2.54,5.71,9.2,12.07,16.87,18.42,1,.83,1.89,1.59,2.67,2.31.21.18.42.36.61.54s.31.29.47.42c7.4,6.83,4.61,8.39,17.91,22.23,15.16,15.78,25.6,16.06,28.57,14.63,2.51-1.23-2.59-9.6-8.25-19a64.58,64.58,0,0,1-27-19.91c-9.13-11.65-15.22-26.62-21.44-35.29-.35.21-.69.43-1,.65A37.81,37.81,0,0,0,1035.61,1758.76Z"/><path class="cls-7" d="M1269.9,1740.61c1.79,9,14.57,7.47,28.86,4s10.89.66,31.21-1.59,26.49-9.83,27.11-12.85c.55-2.68-9.49-3.63-20.26-4.87-1.36-.15-2.72-.32-4.08-.49-12.16-1.52-21.07-9.37-32.12-15.82-10.47-6.1-26.08-31-26.08-31l-27.88,2.21s14.63,22.22,20.29,31.88c3.32,5.68,3.15,13.19,2.73,19A35.88,35.88,0,0,0,1269.9,1740.61Z"/><path class="cls-4" d="M1298.76,1744.59c14.28-3.49,10.89.66,31.21-1.59s26.49-9.83,27.11-12.85c.55-2.68-9.49-3.63-20.26-4.87l-.1.21a57.41,57.41,0,0,1-29.12,9c-13.79.33-28.39-3.62-37.92-3.47a35.88,35.88,0,0,0,.22,9.54C1271.69,1749.58,1284.47,1748.08,1298.76,1744.59Z"/><path class="cls-5" d="M1163.06,1562.35,1137,1632.48,1103,1724a54.9,54.9,0,0,1-18.08-1.65c-8.14-2.35-17.48-8.51-17.48-8.51s9.45-98.31,27.07-154.75c4.52-14.48,9.58-26.2,15.17-32.8C1137,1494.05,1163.06,1562.35,1163.06,1562.35Z"/><path class="cls-5" d="M1136.57,1451c-17.08-5.5-65.77,1.57-114.69,11.14l-10.24-16.89L906,1437s-34.86,77.32-15.78,126.58c2.81,7.24,8.38,11.89,17.89,12h1.54l83.3,0c52.55,0,111.21-36.12,118.79-37.63,12.43-2.49,17.39,22.35,29.81,48.44s116.75,115.5,116.75,115.5,16,.16,22.66-2.32c7.13-2.67,9.73-6.14,9.73-6.14S1175.07,1463.41,1136.57,1451Z"/><path class="cls-25" d="M1007.48,1137.58c-13.53-7.11-34.13-8.07-37.47-8.52-40-5.38-64.14,52.8-65.55,70.42-2.62,32.5-19.81,37.45-44,57.8-48.51,40.8-34.29,88.22-7.76,105.83,15.92,10.57,44,0,44,0,.4.28,76.72-42.67,114.35-63.38C1067.42,1291.71,1042,1155.69,1007.48,1137.58Z"/><path class="cls-7" d="M979.48,1282.09c.17.11-18.51,6.49-31,1-11.75-5.2-20.65-24.53-20.47-24.54,5.34-.24,11.21-4.92,15.73-35.58l2.27.82,38.27,13.77s-2.77,12.28-4.57,24C978.2,1271.3,977.39,1280.71,979.48,1282.09Z"/><path class="cls-28" d="M984.28,1237.52s-2.77,12.28-4.57,24c-22-4-30.6-25.86-33.7-37.74Z"/><path class="cls-7" d="M990,1249.71s-52.36-7-47.48-39.57,1.41-55.35,35-52.24,38.25,16.5,39.27,27.75S1003.72,1250.7,990,1249.71Z"/><path class="cls-25" d="M1014.9,1167.82s-33.52,28.88-56.31,31.21-31.43-5-31.43-5a89,89,0,0,0,21.52-29.16,16,16,0,0,1,13.22-9.45C978.17,1154,1009,1153.38,1014.9,1167.82Z"/><path class="cls-25" d="M994,1165.23s11.21,10.84,14.74,18.88c3.41,7.76,4.43,26.32,1.72,33.69,0,0,17.47-34,7.57-50.47C1007.5,1149.83,994,1165.23,994,1165.23Z"/><path class="cls-6" d="M1023.57,1359.22c-1.58,106-.44,83.83-12,93.88-2.79,2.43-10.65,3.87-21,4.55-32.5,2.16-89.62-3.2-91.79-9.2-7.5-20.78-2.21-27.24-8.46-59q-1-5.07-2.41-11c-5.21-21.85-10.29-29.29,8.21-64.39,16.78-31.8,34.21-57.61,35.77-56.68,44.26,26.28,47.83,4.19,47.83,4.19S1024.34,1307.52,1023.57,1359.22Z"/><path class="cls-5" d="M1137,1632.48,1103,1724a54.9,54.9,0,0,1-18.08-1.65c-8.14-2.35-17.48-8.51-17.48-8.51s9.45-98.31,27.07-154.75Z"/><path class="cls-6" d="M979.71,1261.49s45.55,7.72,50.89,27.33,36.82,134.88,36.82,134.88-23.15,4.16-33.85-6.54-37.21-99.23-37.21-99.23Z"/><path class="cls-21" d="M990.56,1457.65c-32.5,2.16-89.62-3.2-91.79-9.2-7.5-20.78-2.21-27.24-8.46-59L906,1345.27s-2.59,49.14,11.9,62.07,59.35,25,66.39,35.76C987.67,1448.28,989.91,1453.48,990.56,1457.65Z"/><path class="cls-7" d="M953.33,1437s32.06-7.14,37.23-4.29,17.82,13.2,19.4,16.81-11.52-2.74-15.78-3.88c-2.76-.74-10,1.78-13.62,3-15.13,5.05-24.4,2.45-24.4,2.45Z"/><path class="cls-6" d="M931.86,1257.28s-43.05,2.65-58,23.44c-21,29.26-62.6,154-38.75,170.58,26.86,18.72,122.24,4.9,122.24,4.9s3.18-14.84-1.24-22-76.18-18.77-79.49-22.08,41.4-64.59,41.4-74.52S931.86,1257.28,931.86,1257.28Z"/><path class="cls-7" d="M992.11,1441.61s6.72,8.66,8.92,9.7a6.67,6.67,0,0,0,3.63.78l-4.53-8.15Z"/><path class="cls-7" d="M990.56,1432.69l19.53,9.48s-.83,1.36-3.24,1.25-8.47-2.33-8.47-2.33Z"/><polygon class="cls-19" points="1001.03 1464.58 1155.52 1464.58 1202 1349.02 1047.74 1349.02 1001.03 1464.58"/><polygon class="cls-18" points="1157.33 1460.08 953.33 1460.08 953.33 1464.58 1155.52 1464.58 1157.33 1460.08"/><path class="cls-24" d="M1116.52,1406.8c1.17-4.06-1.18-7.36-5.24-7.36a10.55,10.55,0,0,0-9.47,7.36c-1.16,4.06,1.19,7.36,5.25,7.36A10.54,10.54,0,0,0,1116.52,1406.8Z"/><path class="cls-10" d="M1490.55,1831.31h.45a5,5,0,0,0,4.71-5.32l-7.15-341.88-21.06-2.71,18,344.62A5.34,5.34,0,0,0,1490.55,1831.31Z"/><path class="cls-10" d="M958.45,1831.31H958a5,5,0,0,1-4.72-5.32l7.15-341.88,21.06-2.71-18,344.62A5.33,5.33,0,0,1,958.45,1831.31Z"/><rect class="cls-10" x="923.26" y="1464.58" width="610.39" height="24.46" rx="8.52"/><polygon class="cls-29" points="1953.41 524 2069.24 542.33 1993.01 488.64 1988.83 505.42 1960.53 510.1 1953.41 524"/><polygon class="cls-24" points="2069.24 542.33 1973.4 491.05 1878.79 484.84 2069.24 542.33"/><polygon class="cls-24" points="1993.01 488.64 2069.24 542.33 2010.86 459.36 1993.01 488.64"/><polygon class="cls-29" points="842.52 637.82 691.71 681.17 784.13 597.37 792.43 618.96 830.79 620.53 842.52 637.82"/><polygon class="cls-23" points="691.71 681.17 810.56 597.35 935.18 573.58 691.71 681.17"/><polygon class="cls-23" points="784.13 597.37 691.71 681.17 755.62 561.41 784.13 597.37"/></svg>