<svg id="Layer_1" data-name="Layer 1" xmlns="http://www.w3.org/2000/svg" viewBox="0 0 7806.8 5217.07"><defs><style>.cls-1{fill:#cce2ff;}.cls-2{fill:#243554;}.cls-3{opacity:0.8;}.cls-4{fill:#9ec8ff;}.cls-5{fill:#f37168;}.cls-6,.cls-8{fill:#99bbeb;}.cls-7{fill:#fff;}.cls-8{opacity:0.2;}.cls-9{fill:#2e5b9a;}.cls-10{fill:#f09959;}.cls-11{fill:#6791c9;}.cls-12{fill:#75a1de;}.cls-13{fill:#d54a41;}.cls-14{fill:#e38540;}.cls-15{fill:#f2e5de;}.cls-16{fill:#303c60;}.cls-17{fill:#74b570;}.cls-18{fill:#9cd499;}</style></defs><path class="cls-1" d="M7075.41,4474.41c-560.35-31.06-2466.57,21.57-3046.3,42.09s-1252.68-27.07-1602.24-97.06-2370.14,6-2278.45,194.12,900.26,84.17,1817.19,159.79,2979.12-9.45,3444.29,0,891.72-18.9,1491.17-56.72S7400.21,4492.42,7075.41,4474.41Z"/><path class="cls-2" d="M4655.37,1426.41a860.52,860.52,0,0,0,5.36-95.5c0-17-.56-33.94-1.54-50.74l-157.8-51.05a693.56,693.56,0,0,0-55.87-189.07L4550.15,911.3a852.24,852.24,0,0,0-82.89-120.49l-157.82,51.5a700.89,700.89,0,0,0-156.23-120.09l9-165.81a843.89,843.89,0,0,0-137.77-48.83L3927,642.06a701.85,701.85,0,0,0-197-5.16l-90.23-139.46a844.44,844.44,0,0,0-140.17,41.43l.21,166A700,700,0,0,0,3337.4,816.61l-154.83-59.74A854.57,854.57,0,0,0,3093.4,872.8l97.71,134.14a693.68,693.68,0,0,0-65.87,185.83L2965,1235.41a860.51,860.51,0,0,0-5.37,95.5c0,17,.57,33.94,1.55,50.74l157.8,51a693.56,693.56,0,0,0,55.87,189.07L3070.2,1750.52A852.24,852.24,0,0,0,3153.09,1871l157.82-51.5a700.89,700.89,0,0,0,156.23,120.09l-9,165.81a843.89,843.89,0,0,0,137.77,48.83l97.45-134.48a701.85,701.85,0,0,0,197,5.16l90.22,139.46A844.27,844.27,0,0,0,4120.79,2123l-.21-166A700,700,0,0,0,4283,1845.21L4437.78,1905A854.57,854.57,0,0,0,4527,1789l-97.71-134.14a693.68,693.68,0,0,0,65.87-185.83Zm-845.2,238.11c-184.24,0-333.6-149.36-333.6-333.61s149.36-333.61,333.6-333.61,333.61,149.36,333.61,333.61S3994.42,1664.52,3810.17,1664.52Z"/><path class="cls-2" d="M4265.18,1711.39a12.47,12.47,0,0,1-9.58-20.44A564.38,564.38,0,0,0,4355,1147.34a12.47,12.47,0,1,1,23.58-8.13,589.33,589.33,0,0,1-103.84,567.68A12.45,12.45,0,0,1,4265.18,1711.39Z"/><path class="cls-2" d="M4216.88,924a12.42,12.42,0,0,1-8.54-3.4,560.35,560.35,0,0,0-194-119.51,12.47,12.47,0,1,1,8.5-23.44,584.91,584.91,0,0,1,202.56,124.8,12.47,12.47,0,0,1-8.55,21.55Z"/><path class="cls-2" d="M3680.78,785a12.47,12.47,0,0,1-3.05-24.56,590.91,590.91,0,0,1,144.45-17.86,12.47,12.47,0,1,1,0,24.94,565.72,565.72,0,0,0-138.34,17.1A12.45,12.45,0,0,1,3680.78,785Z"/><path class="cls-2" d="M1974.07,3538.74a597,597,0,0,0,3.71-66.14c0-11.8-.38-23.51-1.07-35.15l-109.3-35.36a480,480,0,0,0-38.7-131l72.48-89.18a591.64,591.64,0,0,0-57.41-83.46l-109.32,35.67A485.83,485.83,0,0,0,1626.25,3051l6.22-114.85a586.66,586.66,0,0,0-95.42-33.82l-67.5,93.15a485.6,485.6,0,0,0-136.46-3.57l-62.49-96.6a584,584,0,0,0-97.09,28.69l.14,115a485.18,485.18,0,0,0-112.47,77.36L953.94,3075a593.1,593.1,0,0,0-61.76,80.3l67.68,92.91a480.12,480.12,0,0,0-45.62,128.71l-111,29.54a597,597,0,0,0-3.71,66.15c0,11.8.38,23.51,1.07,35.14l109.3,35.36a480.14,480.14,0,0,0,38.7,131l-72.48,89.18a592.12,592.12,0,0,0,57.41,83.45L1042.84,3811a485.83,485.83,0,0,0,108.21,83.18l-6.22,114.85a584.78,584.78,0,0,0,95.42,33.82l67.5-93.15a485.6,485.6,0,0,0,136.46,3.57l62.49,96.6a584,584,0,0,0,97.09-28.69l-.14-115a485,485,0,0,0,112.47-77.36l107.24,41.38a591.67,591.67,0,0,0,61.76-80.3L1817.44,3697a480.12,480.12,0,0,0,45.62-128.71Zm-585.42,164.93c-127.62,0-231.07-103.46-231.07-231.07s103.45-231.07,231.07-231.07S1619.72,3345,1619.72,3472.6,1516.27,3703.67,1388.65,3703.67Z"/><path class="cls-2" d="M1703.8,3740a12.48,12.48,0,0,1-9.58-20.45,387.07,387.07,0,0,0,68.21-372.83,12.46,12.46,0,1,1,23.57-8.12,412,412,0,0,1-72.6,396.9A12.48,12.48,0,0,1,1703.8,3740Z"/><path class="cls-2" d="M1670.35,3194.58a12.41,12.41,0,0,1-8.54-3.39,384.38,384.38,0,0,0-133-82,12.47,12.47,0,1,1,8.51-23.44A409,409,0,0,1,1678.9,3173a12.47,12.47,0,0,1-8.55,21.55Z"/><path class="cls-2" d="M1299,3098.28a12.47,12.47,0,0,1-3-24.56,412.74,412.74,0,0,1,101-12.49,12.47,12.47,0,1,1,0,24.93,387.71,387.71,0,0,0-94.88,11.74A12.88,12.88,0,0,1,1299,3098.28Z"/><path class="cls-2" d="M5164.73,2061.74c0-6.44-.19-12.85-.53-19.21l81.88-65.75a436.4,436.4,0,0,0-29.75-94.08l-105.74-8a351.91,351.91,0,0,0-91.53-97.12l-.35-105.37a436.44,436.44,0,0,0-93.76-36.17l-72.26,77.77a354.55,354.55,0,0,0-37.93-2,350.28,350.28,0,0,0-92,12.25l-82.87-65.63a438.2,438.2,0,0,0-87.65,50.83l15.67,104.46a350.57,350.57,0,0,0-73.81,107.72L4391,1945.3a438.68,438.68,0,0,0-15.22,99.37l90.79,52.5a347.52,347.52,0,0,0,38.84,128.31l-45.46,95.21a441.71,441.71,0,0,0,66.8,72.7l97.37-38.14a347.85,347.85,0,0,0,128.37,50.93l45.9,94.49c5.47.21,10.95.34,16.47.34a442.15,442.15,0,0,0,80.51-7.38l30.94-100.08a349.68,349.68,0,0,0,120.82-70.13l102.33,23A440.73,440.73,0,0,0,5204,2265.9l-59.31-87.12A349.49,349.49,0,0,0,5164.73,2061.74Zm-353.81,154.19a147.4,147.4,0,1,1,147.4-147.4A147.4,147.4,0,0,1,4810.92,2215.93Z"/><g class="cls-3"><path class="cls-4" d="M6313.13,1462.41H6186.45a88.82,88.82,0,0,1-88.72-88.71V1247a88.82,88.82,0,0,1,88.72-88.72h126.68a88.82,88.82,0,0,1,88.72,88.72V1373.7A88.82,88.82,0,0,1,6313.13,1462.41ZM6186.45,1193.2a53.87,53.87,0,0,0-53.81,53.81V1373.7a53.87,53.87,0,0,0,53.81,53.8h126.68a53.87,53.87,0,0,0,53.81-53.8V1247a53.87,53.87,0,0,0-53.81-53.81Z"/></g><g class="cls-3"><path class="cls-4" d="M5717,1462.41H5590.34a88.82,88.82,0,0,1-88.72-88.71V1247a88.82,88.82,0,0,1,88.72-88.72H5717a88.82,88.82,0,0,1,88.72,88.72V1373.7A88.82,88.82,0,0,1,5717,1462.41ZM5590.34,1193.2a53.86,53.86,0,0,0-53.8,53.81V1373.7a53.86,53.86,0,0,0,53.8,53.8H5717a53.86,53.86,0,0,0,53.8-53.8V1247a53.86,53.86,0,0,0-53.8-53.81Z"/></g><path class="cls-5" d="M5661.6,1388.66l-.72,0a14.94,14.94,0,0,1-11.15-5.84L5558.67,1264a15,15,0,1,1,23.75-18.21l80.3,104.74L5872.37,1126a15,15,0,0,1,21.88,20.42L5672.54,1383.9A15,15,0,0,1,5661.6,1388.66Z"/><rect class="cls-6" x="560.74" y="1273.1" width="1084.16" height="1777"/><rect class="cls-7" x="617.52" y="1309.3" width="991.74" height="1673.07"/><path class="cls-6" d="M1242.17,2198H987.73a29.59,29.59,0,0,1,0-59.18h254.44a29.59,29.59,0,1,1,0,59.18Z"/><path class="cls-6" d="M1288.76,2288.9H941.14a29.59,29.59,0,1,1,0-59.17h347.62a29.59,29.59,0,1,1,0,59.17Z"/><path class="cls-6" d="M1537.74,2615.83H692.16a17.17,17.17,0,1,1,0-34.34h845.58a17.17,17.17,0,0,1,0,34.34Z"/><path class="cls-6" d="M1537.74,2695.62H692.16a17.17,17.17,0,0,1,0-34.34h845.58a17.17,17.17,0,1,1,0,34.34Z"/><path class="cls-6" d="M1537.74,2775.41H692.16a17.17,17.17,0,0,1,0-34.34h845.58a17.17,17.17,0,1,1,0,34.34Z"/><path class="cls-6" d="M1419.48,1999.94H810.42a30.69,30.69,0,0,1-30.65-30.65V1408a30.69,30.69,0,0,1,30.65-30.65h609.06a30.69,30.69,0,0,1,30.65,30.65v561.33A30.69,30.69,0,0,1,1419.48,1999.94ZM810.42,1402.25a5.79,5.79,0,0,0-5.71,5.71v561.33a5.8,5.8,0,0,0,5.71,5.72h609.06a5.8,5.8,0,0,0,5.71-5.72V1408a5.79,5.79,0,0,0-5.71-5.71Z"/><polygon class="cls-6" points="898.31 2366.09 915.94 2401.82 955.37 2407.54 926.84 2435.36 933.58 2474.62 898.31 2456.08 863.04 2474.62 869.78 2435.36 841.25 2407.54 880.68 2401.82 898.31 2366.09"/><polygon class="cls-6" points="1042.74 2366.09 1060.37 2401.82 1099.8 2407.54 1071.27 2435.36 1078 2474.62 1042.74 2456.08 1007.47 2474.62 1014.21 2435.36 985.67 2407.54 1025.1 2401.82 1042.74 2366.09"/><polygon class="cls-6" points="1187.16 2366.09 1204.8 2401.82 1244.22 2407.54 1215.69 2435.36 1222.43 2474.62 1187.16 2456.08 1151.9 2474.62 1158.63 2435.36 1130.1 2407.54 1169.53 2401.82 1187.16 2366.09"/><polygon class="cls-6" points="1331.59 2366.09 1349.22 2401.82 1388.65 2407.54 1360.12 2435.36 1366.85 2474.62 1331.59 2456.08 1296.32 2474.62 1303.06 2435.36 1274.53 2407.54 1313.95 2401.82 1331.59 2366.09"/><rect class="cls-6" x="2977.75" y="1273.1" width="1084.16" height="1777"/><rect class="cls-7" x="3034.53" y="1309.3" width="991.74" height="1673.07"/><path class="cls-6" d="M3659.19,2198H3404.74a29.59,29.59,0,1,1,0-59.18h254.45a29.59,29.59,0,0,1,0,59.18Z"/><path class="cls-6" d="M3705.77,2288.9H3358.15a29.59,29.59,0,0,1,0-59.17h347.62a29.59,29.59,0,1,1,0,59.17Z"/><path class="cls-6" d="M3954.76,2615.83H3109.17a17.17,17.17,0,0,1,0-34.34h845.59a17.17,17.17,0,0,1,0,34.34Z"/><path class="cls-6" d="M3954.76,2695.62H3109.17a17.17,17.17,0,0,1,0-34.34h845.59a17.17,17.17,0,0,1,0,34.34Z"/><path class="cls-6" d="M3954.76,2775.41H3109.17a17.17,17.17,0,0,1,0-34.34h845.59a17.17,17.17,0,0,1,0,34.34Z"/><path class="cls-6" d="M3836.49,1999.94h-609a30.69,30.69,0,0,1-30.65-30.65V1408a30.69,30.69,0,0,1,30.65-30.65h609a30.69,30.69,0,0,1,30.65,30.65v561.33A30.69,30.69,0,0,1,3836.49,1999.94Zm-609-597.69a5.79,5.79,0,0,0-5.71,5.71v561.33a5.79,5.79,0,0,0,5.71,5.72h609a5.79,5.79,0,0,0,5.71-5.72V1408a5.79,5.79,0,0,0-5.71-5.71Z"/><polygon class="cls-6" points="3315.33 2366.09 3332.96 2401.82 3372.39 2407.54 3343.86 2435.36 3350.59 2474.62 3315.33 2456.08 3280.06 2474.62 3286.79 2435.36 3258.26 2407.54 3297.69 2401.82 3315.33 2366.09"/><polygon class="cls-6" points="3459.75 2366.09 3477.38 2401.82 3516.81 2407.54 3488.28 2435.36 3495.02 2474.62 3459.75 2456.08 3424.49 2474.62 3431.22 2435.36 3402.69 2407.54 3442.12 2401.82 3459.75 2366.09"/><polygon class="cls-6" points="3604.18 2366.09 3621.81 2401.82 3661.24 2407.54 3632.71 2435.36 3639.44 2474.62 3604.18 2456.08 3568.91 2474.62 3575.65 2435.36 3547.11 2407.54 3586.55 2401.82 3604.18 2366.09"/><polygon class="cls-6" points="3748.6 2366.09 3766.24 2401.82 3805.66 2407.54 3777.13 2435.36 3783.87 2474.62 3748.6 2456.08 3713.34 2474.62 3720.07 2435.36 3691.54 2407.54 3730.97 2401.82 3748.6 2366.09"/><polygon class="cls-8" points="3099.63 3032.32 1388.65 3032.32 1509.68 1279.69 3161.32 1279.69 3099.63 3032.32"/><rect class="cls-6" x="1568.37" y="948.04" width="1480.8" height="2427.12"/><rect class="cls-7" x="1645.92" y="997.5" width="1354.57" height="2285.15"/><path class="cls-6" d="M2641.41,2211.31H2009.28a40.41,40.41,0,0,1,0-80.82h632.13a40.41,40.41,0,1,1,0,80.82Z"/><path class="cls-6" d="M2562.74,2335.47h-474.8a40.41,40.41,0,0,1,0-80.82h474.8a40.41,40.41,0,1,1,0,80.82Z"/><path class="cls-6" d="M2902.81,2782H1747.87a23.45,23.45,0,1,1,0-46.9H2902.81a23.45,23.45,0,0,1,0,46.9Z"/><path class="cls-6" d="M2902.81,2891H1747.87a23.45,23.45,0,1,1,0-46.89H2902.81a23.45,23.45,0,1,1,0,46.89Z"/><path class="cls-6" d="M2902.81,3000H1747.87a23.45,23.45,0,1,1,0-46.9H2902.81a23.45,23.45,0,1,1,0,46.9Z"/><path class="cls-6" d="M2741.28,1936.24H1909.41a37.35,37.35,0,0,1-37.31-37.3V1132.25a37.35,37.35,0,0,1,37.31-37.3h831.87a37.34,37.34,0,0,1,37.3,37.3v766.69A37.34,37.34,0,0,1,2741.28,1936.24Zm-831.87-816.35a12.38,12.38,0,0,0-12.37,12.36v766.69a12.38,12.38,0,0,0,12.37,12.36h831.87a12.37,12.37,0,0,0,12.36-12.36V1132.25a12.37,12.37,0,0,0-12.36-12.36Z"/><polygon class="cls-6" points="1929.25 2440.9 1953.33 2489.7 2007.19 2497.52 1968.22 2535.51 1977.42 2589.14 1929.25 2563.82 1881.08 2589.14 1890.28 2535.51 1851.31 2497.52 1905.16 2489.7 1929.25 2440.9"/><polygon class="cls-6" points="2126.51 2440.9 2150.6 2489.7 2204.45 2497.52 2165.48 2535.51 2174.68 2589.14 2126.51 2563.82 2078.34 2589.14 2087.54 2535.51 2048.57 2497.52 2102.43 2489.7 2126.51 2440.9"/><polygon class="cls-6" points="2323.78 2440.9 2347.86 2489.7 2401.71 2497.52 2362.74 2535.51 2371.94 2589.14 2323.78 2563.82 2275.61 2589.14 2284.81 2535.51 2245.84 2497.52 2299.69 2489.7 2323.78 2440.9"/><polygon class="cls-6" points="2521.04 2440.9 2545.12 2489.7 2598.98 2497.52 2560.01 2535.51 2569.21 2589.14 2521.04 2563.82 2472.87 2589.14 2482.07 2535.51 2443.1 2497.52 2496.96 2489.7 2521.04 2440.9"/><polygon class="cls-6" points="2721.44 2440.9 2745.52 2489.7 2799.37 2497.52 2760.41 2535.51 2769.61 2589.14 2721.44 2563.82 2673.27 2589.14 2682.47 2535.51 2643.5 2497.52 2697.35 2489.7 2721.44 2440.9"/><rect class="cls-9" x="3506.53" y="3224.79" width="1941.53" height="72.35" rx="8.29"/><path class="cls-10" d="M5916.66,2255.18c25.75,90.76-37.13,184.3-106.4,204s-118.7-42-144.45-132.79,9.53-180.29,78.81-199.94S5890.92,2164.41,5916.66,2255.18Z"/><path class="cls-10" d="M5528.29,4014.05s177.53,275.73,201.51,287.72,83.92,15,61.44,59.95-31.47,221.78-52.45,230.78-200.81,30-173.84,0,43.57-15,57.18-68.94,32.74-155.85,7.26-176.83-181.32-209.8-181.32-209.8Z"/><path class="cls-10" d="M4634.76,4132.46S4419,4488.14,4379,4520.11,4207.15,4600,4315.06,4608s159.85-36,227.79-55.95,151.86-32,119.89-83.92-18.69-165.37,50.23-237.31S4634.76,4132.46,4634.76,4132.46Z"/><path class="cls-11" d="M5736,3307.69s-534.22-14-746,159.86c-123.89,187.83-423.59,742-446.89,803.1,16,16,105.91,44.83,145.87,40.83,117.89-140.57,273.72-262.1,335.7-372.36,76.37-135.88,99.9-203.81,223.79-215.81s403.64-51.95,487.56-51.95S5736,3307.69,5736,3307.69Z"/><polygon class="cls-9" points="6201.9 4608.99 6173.9 4608.99 5973.09 3771.19 6034.7 3771.19 6201.9 4608.99"/><polygon class="cls-9" points="5363.05 4608.99 5391.05 4608.99 5621.48 3741.57 5559.87 3741.57 5363.05 4608.99"/><path class="cls-12" d="M6040.39,3271.1l-310.59,53.61s-412.74,3.79-601.41,38.93c-171.64,32-196.94,227,0,495.55,111.88,152.56,206.46,274.25,399.9,411.46,49.2-36.13,68-49.79,81.62-136.71-14-19.2-50.24-139.34-61.48-162.85-107-223.65-249.8-305-251.78-327,24-39,635.12,203.09,756.64,60.7C6169.3,3568.87,6040.39,3271.1,6040.39,3271.1Z"/><path class="cls-5" d="M6053.29,2568c-81.8-11.48-165.11,4.07-243,60.47-68.09,69.41-145.13,183.86-140.41,372.65,6,239.77-37.1,255.17,7.86,321.11,187.5,77.43,508.19,410.11,432.67,53.45-54.68-258.25,119.94-450.74-20.93-737.21C6078,2615.11,6063.66,2592.5,6053.29,2568Z"/><path class="cls-13" d="M5669.8,3091.31c-3.64,125-21.3,161.82-7.8,201,76.44,7.8,216.27,38.39,251.21,87.31,40,55.95,79.93,63.94,61.28,22.64s-67.94-99.9,8-301.06,111.9-337,37.3-476.9Z"/><path class="cls-10" d="M6053.29,2568c-50.37-119.24-62.74-253.22-62.74-253.22l-131.88,39s74.93,167.84,3,227.79a687.6,687.6,0,0,0-51.41,46.94C5888.18,2572,5971.49,2556.47,6053.29,2568Z"/><path class="cls-14" d="M5994.52,2346.49c-7.81-6.95-17.59-15.63-27.86-24.7l-107.56,31.78c-.08.19-.15.39-.23.58,2.6,5.94,30,69.87,33.61,131.37,32.05-19.45,67.15-51.16,107.27-106.55C5997.58,2366.69,5995.86,2355.72,5994.52,2346.49Z"/><path class="cls-10" d="M5960.57,2605.45C5824.75,2653,5839.81,2796,5714.81,3007.07,5650.12,3116.28,5590,3114.65,5590,3114.65s-151.72,1.22-335.23-21.22c-114.91-14-122.21,20.16-42.29,48.73,161.19,57.63,328.47,119.66,463.34,104.68s365.55-359.11,377.44-448.68C6069.74,2674.27,6029,2581.53,5960.57,2605.45Z"/><path class="cls-9" d="M5890.63,3806.11c-8.45,0-17.09-.11-26-.33-110.69-2.74-186-18.05-246.59-30.35-70.69-14.37-109.63-22.28-154.95-.63a34.91,34.91,0,1,1-30.11-63c66.42-31.74,122-20.44,199-4.8,57.86,11.76,129.86,26.39,234.41,29,117,2.92,188.34-14.44,224.5-54.54,32.22-35.72,41.64-95.75,29.67-188.91-4.1-31.88-8.2-58.4-11.82-81.8-10.21-66-16.95-109.61-8.6-177,7.75-62.59,28.48-146,76.49-307.65a34.91,34.91,0,0,1,66.94,19.87c-89.46,301.29-84.92,330.63-65.82,454.13,3.68,23.81,7.85,50.8,12.06,83.57,14.77,114.87-.18,192.59-47.06,244.58C6094.47,3781.72,6016.12,3806.11,5890.63,3806.11Z"/><path class="cls-13" d="M4649.43,4432.24c-143.19,70-220.26,110.16-266.16,106.33-10.84-.9-19.82-2-27.35-3.18-51.07,30.18-132.58,65.85-40.86,72.64,107.9,8,159.85-36,227.79-55.95s151.86-32,119.89-83.92C4656.61,4458.21,4652.16,4446,4649.43,4432.24Z"/><path class="cls-13" d="M5745.41,4307.62c-3.51,113.38-19.09,225.72-88.43,246.94A116.49,116.49,0,0,1,5607,4559c-10.91,13.48-24.22,13.63-42.08,33.48-27,30,152.86,9,173.84,0s30-185.83,52.45-230.78C5809.7,4324.79,5772.55,4316.17,5745.41,4307.62Z"/><path class="cls-12" d="M5193.85,3234.71H4739a34.93,34.93,0,0,1-31.67-20.21l-183.83-395.64a34.91,34.91,0,0,1,63.33-29.42l174.44,375.44h432.63a34.92,34.92,0,0,1,0,69.83Z"/><path class="cls-10" d="M5289,3097.39c-91.92-1.33-183.08-56.12-228.37-48.13s-193.15,110.57-174.5,114.56S5022,3107.06,5026,3106.14s29.31,42.08,91.92,57.87.44-46.92,194.52,11.7C5438.65,3213.82,5289,3097.39,5289,3097.39Z"/><path class="cls-15" d="M6039.76,2459.13,6053.29,2568s-118.94,7.08-178.13,40.38-146.54,129.52-146.54,129.52L5800,2615l10.28-78.6Z"/><path class="cls-15" d="M5989.14,2592.34c-88.34-16.55-129.21,62.61-186.49,191.83s-155.07,286.15-174.51,306.39-327.7,0-327.7,0-9.33,89.25,0,99.91,62.61,9.32,62.61,9.32,21.31,17,41.29,30.49,189.16,38.78,267.76,34.79,150.53-10.66,161.18-22.65,225.13-342.36,238.45-460.91S6034.23,2600.79,5989.14,2592.34Z"/><path class="cls-16" d="M5728.62,2048.84c-167.09,8-140.88,259.35-140.88,259.35s43.4,13.4,134.31-1.59c-7-27-4-95.91-4-95.91s10.56,55.95,24,89.92c19.22,8.81,41,1,77.93-7.93,19,79.86,72.63,113.61,109.35,125.16,40.59,12.75,83.54,28,131.5,4s21.58-269.09-3.88-318.37c-38.22-74-101.76-140.21-211.66-105.24C5790.16,2015.75,5728.62,2048.84,5728.62,2048.84Z"/><path class="cls-16" d="M6019.19,2347.37l68.31,99.77S6011.79,2636.3,6232,2722c172.45,67.12,152.13,185.38,74.21,304.31s46.62,222.79,46.62,222.79,19-131.75,186.55-156.62c228.45-33.9,293.14-340.63,122.5-494-141.2-126.91-184.16-21.81-279.74-135.7s-276-37-276-37L6040,2329.38Z"/><path class="cls-16" d="M6740.46,2907.47a6.15,6.15,0,0,1-2.92-.74,6.08,6.08,0,0,1-2.41-8.25c57.44-105,10.57-232.17-13-266.62-2.49-3.66-4.87-7.36-7.37-11.27-23.17-36.16-52-81.16-205.82-108.85-37.05-6.68-67.05-28.69-98.8-52-65.6-48.15-139.94-102.73-301.49-28.38a6.08,6.08,0,0,1-5.08-11c168-77.34,245.46-20.51,313.76,29.63,30.59,22.45,59.48,43.67,93.76,49.84,159,28.63,189.46,76.1,213.9,114.25,2.46,3.84,4.78,7.46,7.17,11,24.7,36.1,73.81,169.35,13.64,279.32A6.07,6.07,0,0,1,6740.46,2907.47Z"/><path class="cls-16" d="M5982.7,2449.6a241.28,241.28,0,0,1-35.48-2.85c-58.46-8.76-136.88-42-143-228.53a6.07,6.07,0,0,1,12.14-.4c2.54,76.89,17.79,133.79,45.34,169.1,20.93,26.83,48.69,42,87.35,47.81,54.09,8.1,90-1.88,106.57-29.69a6.08,6.08,0,1,1,10.43,6.24C6050.79,2436.78,6022.83,2449.6,5982.7,2449.6Z"/><polygon class="cls-9" points="3710.22 4608.99 3755.11 4608.99 3929.75 3274.06 3830.99 3274.06 3710.22 4608.99"/><polygon class="cls-9" points="5233.55 4608.99 5188.66 4608.99 5014.02 3274.06 5112.79 3274.06 5233.55 4608.99"/><path class="cls-17" d="M6994.05,3482.18c77.67,70.91,43.9,141.83-13.51,273.53s-67.54,618-67.54,618l47.28-6.76s-6.75-499.78,57.41-634.86,91.17-202.61,148.58-158.71S6994.05,3482.18,6994.05,3482.18Z"/><path class="cls-18" d="M6951.38,3390.36c9.44-42,65.45-87.5,140.36-126.07-11.14,62-46.85,163.33-9.89,184.12,49.84,28,4.86-113.47,24.09-191.24,70.34-34.35,155-62.43,232.87-76.39-.11.29-.2.56-.32.85-43.89,111.44-101.3,155.34-77.66,172.23,17.78,12.7,75.71-116,152.2-182,57.41-3.06,106,4.72,134.72,27.47,44.41,35.16,74.22,66.35,29.55,173.42-25.52,18.23-58.57,31.31-97,35.15-101.31,10.13-148.59,13.5-77.67,47.27,34.72,16.54,92.93-.93,140.13-11.57-15.32,28.21-34.13,60.14-57,96.51a358.72,358.72,0,0,1-47.47,60.4c-32.65,6.26-61.11,6.33-76.19-.13-47.27-20.26-168.84-84.42-199.24-57.41-29.74,26.45,225.15,43.19,207.49,110.39-123.55,71.18-264.92,37.31-289.91-28.06C7046.9,3537.52,6923,3516.87,6951.38,3390.36Z"/><path class="cls-17" d="M7206.8,3870.53c-135.08-101.31-273.54-6.76-344.45,101.3s-20.26,351.2-20.26,351.2,27,0,27-10.13-74.29-287,101.31-412c109.85-78.17,189.11-40.52,199.24-3.38s-43.9,104.68-43.9,104.68Z"/><path class="cls-18" d="M6896.12,3662.28c135.07,0,179,209.37,141.83,330.94s-87.8,347.82-87.8,347.82l-33.77-33.77s128.32-317.43,97.93-459.26-104.68-165.47-118.19-165.47S6896.12,3662.28,6896.12,3662.28Z"/><path class="cls-17" d="M7009.41,3994.16c9.5-12.58,21.24-23,35.56-29.88a269.07,269.07,0,0,1-7,28.94c-16.93,55.39-36.65,132.5-53.12,200.05-1.5-8.65-3.8-22-7.36-42.54-.84-4.86-1.5-10.13-2-15.72C6988.74,4090,7001.24,4041,7009.41,3994.16Z"/><path class="cls-18" d="M7046.34,3995.17C7303,3887.11,7167.77,3738.83,7394,3836.76c15.93,6.9,35.36,24.29,54.8,48.27-20.15,5.72-44.55,9.83-71.69,5.76-67.54-10.13-43.9,43.9,67.54,57.4,21,2.55,38,6.06,52.22,11,53.09,102,77,236.14-35.33,282.78-22.14,9.19-49.5,14.44-80,16.41-34.67-27.56,8.46-187-45-165-51.32,21.13,16.08,136.69,6.85,165.8-50.66-.92-106.73-9.19-160.33-22.47-21.2-11.89-37.39-27.82-42.38-48.77-16.89-70.92,94.55-114.82,97.93-175.6,3.1-55.88-40.85,122.93-157.28,149.25C6976.12,4112.43,6926.37,4045.69,7046.34,3995.17Z"/><path class="cls-18" d="M6863.47,3804.11c27-57.41-43.9-70.91-40.52-27,3,38.89,3.32,133.45-36.57,159.2-68.81-7.46-162.42-35.18-233.19-77.44a28.73,28.73,0,0,1,3-17.6c30.39-60.79,226.26-111.44,165.47-131.7-48.41-16.14-133.24,79.11-201.59,127.08-41.06-31.14-68.56-68.28-68.56-109.73,0-56.1,68.17-119.6,156.32-150,39.68,4,76.53,25.69,134.09,58.32,85,48.18,65.38-29.73-15-76,69.41,3.59,138.62,33.25,189.66,104.1,0,0-4.83,30.28,27.22,77.13,87.43,127.79-13.47,202.39-134.1,197.55C6816.47,3904.39,6844.81,3843.78,6863.47,3804.11Z"/><path class="cls-17" d="M7198.67,3864.8c66,51,139.4,110.69,229.45,151.22s72.05,172.61,72.05,172.61,13.51-114.08-61.54-153.1S7314.05,3950,7257,3941s-88.56-18-88.56-18,18-36,7.51-49.53S7198.67,3864.8,7198.67,3864.8Z"/><path class="cls-17" d="M7524.18,3265.55c-241.65,64.54-418.76,219.14-451.78,256.66s-33,48-33,48l25.52,48,12-6s-19.51-40.53,31.53-93.06c88-90.59,195.12-162.1,268.66-193.62S7524.18,3265.55,7524.18,3265.55Z"/><path class="cls-12" d="M6784.51,4272.15h237.59a46.23,46.23,0,0,1,46.23,46.23v284.76a0,0,0,0,1,0,0H6738.28a0,0,0,0,1,0,0V4318.38a46.23,46.23,0,0,1,46.23-46.23Z" transform="translate(13806.62 8875.28) rotate(-180)"/><rect class="cls-7" x="6738.28" y="4310.06" width="330.06" height="23.24"/><rect class="cls-7" x="6738.28" y="4352.43" width="330.06" height="13.67"/><rect class="cls-4" x="806.13" y="4189.28" width="138.98" height="125.08" rx="12.08" transform="translate(1751.24 8503.65) rotate(180)"/><rect class="cls-4" x="553.43" y="4189.28" width="138.98" height="125.08" rx="12.08" transform="translate(1245.85 8503.65) rotate(180)"/><rect class="cls-4" x="300.74" y="4189.28" width="138.98" height="125.08" rx="12.08" transform="translate(740.46 8503.65) rotate(180)"/><path class="cls-4" d="M6866.83,1881.46h114.83a12.08,12.08,0,0,1,12.08,12.08v100.93a12.08,12.08,0,0,1-12.08,12.08H6866.83a12.08,12.08,0,0,1-12.08-12.08V1893.54A12.07,12.07,0,0,1,6866.83,1881.46Z" transform="translate(8868.25 -4980.24) rotate(90)"/><path class="cls-4" d="M6866.83,2134.16h114.83a12.08,12.08,0,0,1,12.08,12.08v100.93a12.08,12.08,0,0,1-12.08,12.08H6866.83a12.08,12.08,0,0,1-12.08-12.08V2146.23A12.07,12.07,0,0,1,6866.83,2134.16Z" transform="translate(9120.95 -4727.55) rotate(90)"/><path class="cls-4" d="M6866.83,2386.85h114.83a12.07,12.07,0,0,1,12.07,12.07v100.93a12.08,12.08,0,0,1-12.08,12.08H6866.83a12.07,12.07,0,0,1-12.07-12.07V2398.93A12.07,12.07,0,0,1,6866.83,2386.85Z" transform="translate(9373.64 -4474.85) rotate(90)"/></svg>