<svg id="Слой_1" data-name="Слой 1" xmlns="http://www.w3.org/2000/svg" viewBox="0 0 2448 2000"><defs><style>.cls-1{fill:#cce2ff;}.cls-2{fill:#243554;}.cls-3,.cls-5{fill:#99bbeb;}.cls-4{fill:#fff;}.cls-5{opacity:0.2;isolation:isolate;}.cls-6{fill:#74b570;}.cls-7{fill:#9cd499;}.cls-8{fill:#75a1de;}.cls-9{fill:#9ec8ff;}.cls-10{fill:#ffb27d;}.cls-11{fill:#ce5b59;}.cls-12{fill:#163560;}.cls-13{fill:#ed975d;}.cls-14{fill:#bc3f3f;}.cls-15{fill:#ed985f;}.cls-16{fill:#2c3a64;}.cls-17{fill:#2a4e96;}.cls-18{fill:#233862;}.cls-19{fill:#a02e2e;}</style></defs><path class="cls-1" d="M2206,1606.74c-175.23-9.72-771.33,6.74-952.62,13.16s-391.74-8.47-501-30.35-741.18,1.87-712.51,60.7,281.53,26.32,568.27,50,931.61-3,1077.08,0,278.85-5.91,466.31-17.74S2307.56,1612.37,2206,1606.74Z"/><path class="cls-2" d="M2079.78,603.13a266.21,266.21,0,0,0,1.68-29.87c0-5.31-.17-10.61-.48-15.86l-49.35-16a216.82,216.82,0,0,0-17.47-59.12L2046.88,442A266.67,266.67,0,0,0,2021,404.37l-49.35,16.1a219.09,219.09,0,0,0-48.86-37.55l2.82-51.86a265.22,265.22,0,0,0-43.09-15.27L1852,357.85a219.23,219.23,0,0,0-61.6-1.61l-28.22-43.62a264.38,264.38,0,0,0-43.83,13l.06,51.91a218.82,218.82,0,0,0-50.78,34.94l-48.42-18.68A267.45,267.45,0,0,0,1591.33,430L1621.89,472a216.71,216.71,0,0,0-20.6,58.11l-50.11,13.34a270.71,270.71,0,0,0-1.68,29.86c0,5.32.18,10.62.49,15.87l49.34,16a216.82,216.82,0,0,0,17.47,59.12l-32.72,40.28A265.93,265.93,0,0,0,1610,742.16l49.35-16.11a219.2,219.2,0,0,0,48.86,37.56l-2.82,51.85a264.89,264.89,0,0,0,43.09,15.27L1779,788.67a219.25,219.25,0,0,0,61.6,1.62l28.22,43.61A264.42,264.42,0,0,0,1912.61,821l-.06-51.91a219.17,219.17,0,0,0,50.79-35l48.4,18.7a266.56,266.56,0,0,0,27.9-36.28l-30.55-41.94a217,217,0,0,0,20.59-58.12Zm-264.3,74.46A104.33,104.33,0,1,1,1919.8,573.26a104.32,104.32,0,0,1-104.32,104.33Z"/><path class="cls-2" d="M1241.3,1263.68a185.48,185.48,0,0,0,1.16-20.68c0-3.69-.12-7.35-.33-11L1208,1221a149.87,149.87,0,0,0-12.11-41l22.67-27.89a185,185,0,0,0-18-26.1l-34.19,11.15a151.93,151.93,0,0,0-33.84-26l2-35.91a183.76,183.76,0,0,0-29.84-10.58l-21.11,29.13a151.78,151.78,0,0,0-42.67-1.12l-19.54-30.21a182.52,182.52,0,0,0-30.37,9l0,36a151.35,151.35,0,0,0-35.17,24.19l-33.54-12.93A185.1,185.1,0,0,0,903,1143.78l21.16,29a150,150,0,0,0-14.26,40.25l-34.72,9.24A190.54,190.54,0,0,0,874,1243c0,3.69.12,7.36.34,11l34.18,11.06a150.37,150.37,0,0,0,12.1,41L898,1333.9a184.16,184.16,0,0,0,17.95,26.1l34.18-11.18a152.06,152.06,0,0,0,33.84,26L982,1410.75a183.32,183.32,0,0,0,29.83,10.58l21.11-29.13a151.84,151.84,0,0,0,42.68,1.11l19.54,30.21a182.37,182.37,0,0,0,30.36-9l0-36a152.08,152.08,0,0,0,35.17-24.19l33.53,12.94a185.61,185.61,0,0,0,19.32-25.11l-21.17-29.06a150.27,150.27,0,0,0,14.27-40.24Zm-183.07,51.58a72.26,72.26,0,1,1,72.26-72.26,72.26,72.26,0,0,1-72.26,72.26Z"/><path class="cls-2" d="M1156.78,1326.62a3.9,3.9,0,0,1-3-6.39,121.07,121.07,0,0,0,21.33-116.59,3.9,3.9,0,1,1,7.37-2.54,128.85,128.85,0,0,1-22.7,124.11A3.91,3.91,0,0,1,1156.78,1326.62Z"/><path class="cls-2" d="M1146.32,1156.06a3.9,3.9,0,0,1-2.67-1.06,120.27,120.27,0,0,0-41.59-25.64,3.9,3.9,0,1,1,2.55-7.37l.11,0a127.89,127.89,0,0,1,44.28,27.28,3.9,3.9,0,0,1-2.68,6.74Z"/><path class="cls-2" d="M1030.2,1126a3.9,3.9,0,0,1-.94-7.68,128.85,128.85,0,0,1,31.58-3.91,3.9,3.9,0,1,1,.22,7.8h-.22a120.68,120.68,0,0,0-29.67,3.67A4,4,0,0,1,1030.2,1126Z"/><path class="cls-2" d="M878.73,527.34c0-2-.06-4-.16-6l25.6-20.56a136.59,136.59,0,0,0-9.3-29.42l-33.07-2.5a110,110,0,0,0-28.62-30.37l-.11-33a136.62,136.62,0,0,0-29.32-11.32l-22.6,24.32a111.89,111.89,0,0,0-11.86-.62,109.21,109.21,0,0,0-28.77,3.83l-25.91-20.52a137,137,0,0,0-27.41,15.89l4.9,32.67A109.63,109.63,0,0,0,669,483.46l-32.24,7.46A137.36,137.36,0,0,0,632,522l28.4,16.42a108.65,108.65,0,0,0,12.14,40.12l-14.21,29.78a138.06,138.06,0,0,0,20.88,22.73l30.45-11.93a108.81,108.81,0,0,0,40.15,15.93l14.35,29.55c1.71.06,3.43.1,5.15.1a138.1,138.1,0,0,0,25.18-2.3l9.67-31.3A109.52,109.52,0,0,0,842,609.17l32,7.19a138.13,138.13,0,0,0,17-25.18l-18.55-27.24A109,109,0,0,0,878.73,527.34ZM768.09,575.56a46.1,46.1,0,1,1,46.09-46.1h0A46.09,46.09,0,0,1,768.09,575.56Z"/><rect class="cls-3" x="799.33" y="555.18" width="339.03" height="555.69"/><rect class="cls-4" x="817.09" y="566.5" width="310.13" height="523.19"/><path class="cls-3" d="M1012.42,844.41H932.86a9.25,9.25,0,0,1,0-18.5h79.56a9.25,9.25,0,1,1,0,18.5Z"/><path class="cls-3" d="M1027,872.84H918.29a9.25,9.25,0,0,1-.34-18.5h109a9.25,9.25,0,1,1,.35,18.5Z"/><path class="cls-3" d="M1104.85,975.08H840.43a5.37,5.37,0,1,1,0-10.74h264.42a5.37,5.37,0,1,1,0,10.74Z"/><path class="cls-3" d="M1104.85,1000H840.43a5.37,5.37,0,0,1,0-10.74h264.42a5.37,5.37,0,1,1,0,10.74Z"/><path class="cls-3" d="M1104.85,1025H840.43a5.37,5.37,0,0,1,0-10.74h264.42a5.37,5.37,0,1,1,0,10.74Z"/><path class="cls-3" d="M1067.87,782.48H877.41a9.6,9.6,0,0,1-9.58-9.59V597.37a9.58,9.58,0,0,1,9.58-9.58h190.46a9.6,9.6,0,0,1,9.59,9.58V772.91A9.61,9.61,0,0,1,1067.87,782.48ZM877.41,595.57a1.83,1.83,0,0,0-1.79,1.79V772.89a1.82,1.82,0,0,0,1.79,1.79h190.46a1.82,1.82,0,0,0,1.79-1.79V597.37a1.83,1.83,0,0,0-1.79-1.79Z"/><polygon class="cls-3" points="904.89 896.98 910.41 908.15 922.74 909.94 913.82 918.64 915.92 930.92 904.89 925.12 893.87 930.92 895.97 918.64 887.05 909.94 899.38 908.15 904.89 896.98"/><polygon class="cls-3" points="950.06 896.98 955.57 908.15 967.9 909.94 958.98 918.64 961.09 930.92 950.06 925.12 939.03 930.92 941.14 918.64 932.21 909.94 944.54 908.15 950.06 896.98"/><polygon class="cls-3" points="995.22 896.98 1000.74 908.15 1013.07 909.94 1004.14 918.64 1006.25 930.92 995.22 925.12 984.2 930.92 986.3 918.64 977.38 909.94 989.71 908.15 995.22 896.98"/><polygon class="cls-3" points="1040.39 896.98 1045.9 908.15 1058.23 909.94 1049.31 918.64 1051.41 930.92 1040.39 925.12 1029.36 930.92 1031.47 918.64 1022.54 909.94 1034.87 908.15 1040.39 896.98"/><rect class="cls-3" x="1555.17" y="555.18" width="339.03" height="555.69"/><rect class="cls-4" x="1572.92" y="566.5" width="310.13" height="523.19"/><path class="cls-3" d="M1755.7,859.05h-79.57a9.26,9.26,0,0,1,0-18.51h79.6a9.26,9.26,0,0,1,0,18.51Z"/><path class="cls-3" d="M1770.27,887.48H1661.56a9.26,9.26,0,0,1,0-18.51h108.71a9.26,9.26,0,0,1,.34,18.51Z"/><path class="cls-3" d="M1848.13,989.71H1583.7a5.37,5.37,0,0,1,0-10.74h264.43a5.37,5.37,0,0,1,0,10.74Z"/><path class="cls-3" d="M1848.13,1014.66H1583.7a5.37,5.37,0,0,1,0-10.74h264.43a5.37,5.37,0,0,1,0,10.74Z"/><path class="cls-3" d="M1848.13,1039.61H1583.7a5.37,5.37,0,1,1,0-10.73h264.43a5.37,5.37,0,1,1,0,10.73Z"/><path class="cls-3" d="M1811.15,797.11H1620.7a9.59,9.59,0,0,1-9.58-9.58V612a9.6,9.6,0,0,1,9.58-9.59h190.45a9.59,9.59,0,0,1,9.58,9.59V787.54A9.59,9.59,0,0,1,1811.15,797.11ZM1620.7,610.21a1.8,1.8,0,0,0-1.78,1.78V787.53a1.81,1.81,0,0,0,1.78,1.79h190.45a1.81,1.81,0,0,0,1.78-1.79V612a1.8,1.8,0,0,0-1.78-1.79Z"/><polygon class="cls-3" points="1648.17 911.61 1653.69 922.79 1666.02 924.58 1657.1 933.28 1659.2 945.55 1648.17 939.76 1637.14 945.55 1639.25 933.28 1630.33 924.58 1642.66 922.79 1648.17 911.61"/><polygon class="cls-3" points="1693.34 911.61 1698.85 922.79 1711.18 924.58 1702.26 933.28 1704.37 945.55 1693.34 939.76 1682.31 945.55 1684.41 933.28 1675.49 924.58 1687.82 922.79 1693.34 911.61"/><polygon class="cls-3" points="1738.5 911.61 1744.01 922.79 1756.34 924.58 1747.42 933.28 1749.53 945.55 1738.5 939.76 1727.47 945.55 1729.58 933.28 1720.65 924.58 1732.99 922.79 1738.5 911.61"/><polygon class="cls-3" points="1783.66 911.61 1789.18 922.79 1801.51 924.58 1792.59 933.28 1794.69 945.55 1783.66 939.76 1772.64 945.55 1774.74 933.28 1765.82 924.58 1778.15 922.79 1783.66 911.61"/><polygon class="cls-5" points="1593.28 1105.32 1058.23 1105.32 1096.08 557.25 1612.57 557.25 1593.28 1105.32"/><rect class="cls-3" x="1114.43" y="453.53" width="463.07" height="759"/><rect class="cls-4" x="1138.68" y="469" width="423.59" height="714.6"/><path class="cls-3" d="M1450,848.58H1252.31a12.64,12.64,0,0,1,0-25.28H1450a12.64,12.64,0,1,1,0,25.28Z"/><path class="cls-3" d="M1425.39,887.4H1276.91a12.64,12.64,0,1,1,0-25.27h148.48a12.64,12.64,0,0,1,0,25.27Z"/><path class="cls-3" d="M1531.73,1027H1170.56a7.34,7.34,0,0,1,0-14.67h361.2a7.34,7.34,0,0,1,0,14.67Z"/><path class="cls-3" d="M1531.73,1061.13H1170.56a7.34,7.34,0,0,1-.3-14.67h361.47a7.34,7.34,0,0,1,.31,14.67Z"/><path class="cls-3" d="M1531.73,1095.21H1170.56a7.33,7.33,0,0,1,0-14.66h361.2a7.33,7.33,0,1,1,0,14.66Z"/><path class="cls-3" d="M1481.22,762.56H1221.08a11.69,11.69,0,0,1-11.67-11.67V511.14a11.69,11.69,0,0,1,11.67-11.67h260.14a11.67,11.67,0,0,1,11.66,11.67V750.89A11.67,11.67,0,0,1,1481.22,762.56ZM1221.08,507.27a3.89,3.89,0,0,0-3.87,3.87V750.89a3.88,3.88,0,0,0,3.87,3.87h260.14a3.86,3.86,0,0,0,3.86-3.87V511.14a3.87,3.87,0,0,0-3.86-3.87Z"/><polygon class="cls-3" points="1227.29 920.37 1234.82 935.63 1251.66 938.08 1239.47 949.96 1242.35 966.73 1227.29 958.81 1212.22 966.73 1215.1 949.96 1202.91 938.08 1219.75 935.63 1227.29 920.37"/><polygon class="cls-3" points="1288.97 920.37 1296.51 935.63 1313.34 938.08 1301.16 949.96 1304.04 966.73 1288.97 958.81 1273.91 966.73 1276.79 949.96 1264.6 938.08 1281.44 935.63 1288.97 920.37"/><polygon class="cls-3" points="1350.66 920.37 1358.19 935.63 1375.03 938.08 1362.84 949.96 1365.72 966.73 1350.66 958.81 1335.6 966.73 1338.47 949.96 1326.29 938.08 1343.13 935.63 1350.66 920.37"/><polygon class="cls-3" points="1412.35 920.37 1419.88 935.63 1436.72 938.08 1424.53 949.96 1427.41 966.73 1412.35 958.81 1397.28 966.73 1400.16 949.96 1387.97 938.08 1404.82 935.63 1412.35 920.37"/><polygon class="cls-3" points="1475.02 920.37 1482.55 935.63 1499.38 938.08 1487.2 949.96 1490.08 966.73 1475.02 958.81 1459.95 966.73 1462.83 949.96 1450.64 938.08 1467.48 935.63 1475.02 920.37"/><path class="cls-6" d="M2233.34,1236.24c24.29,22.17,13.73,44.35-4.22,85.53S2208,1515,2208,1515l14.79-2.11s-2.11-156.29,17.95-198.53,28.51-63.36,46.47-49.63S2233.34,1236.24,2233.34,1236.24Z"/><path class="cls-7" d="M2220,1207.52c2.95-13.13,20.46-27.36,43.89-39.42-3.48,19.39-14.65,51.07-3.09,57.58,15.58,8.75,1.52-35.49,7.53-59.81a289.82,289.82,0,0,1,72.82-23.89c0,.09-.06.18-.1.27-13.72,34.85-31.68,48.58-24.28,53.86,5.56,4,23.67-36.28,47.59-56.92,17.95-1,33.15,1.48,42.13,8.59,13.89,11,23.21,20.75,9.24,54.24a62.75,62.75,0,0,1-30.33,11c-31.68,3.17-46.47,4.22-24.29,14.78,10.86,5.17,29.06-.29,43.82-3.62-4.79,8.82-10.67,18.81-17.82,30.18a112.45,112.45,0,0,1-14.85,18.89c-10.21,2-19.11,2-23.83,0-14.78-6.34-52.79-26.4-62.3-18-9.3,8.27,70.41,13.5,64.88,34.52-38.63,22.26-82.84,11.66-90.65-8.78C2249.87,1253.54,2211.12,1247.08,2220,1207.52Z"/><path class="cls-6" d="M2299.87,1357.68c-42.24-31.68-85.54-2.11-107.71,31.68s-6.34,109.82-6.34,109.82,8.44,0,8.44-3.16-23.23-89.75,31.68-128.84c34.36-24.45,59.14-12.67,62.31-1.06s-13.73,32.73-13.73,32.73Z"/><path class="cls-7" d="M2202.72,1292.56c42.23,0,56,65.47,44.35,103.49s-27.46,108.76-27.46,108.76l-10.56-10.56s40.13-99.26,30.63-143.61-32.74-51.75-37-51.75S2202.72,1292.56,2202.72,1292.56Z"/><path class="cls-6" d="M2238.14,1396.34a30.64,30.64,0,0,1,11.12-9.34,83.37,83.37,0,0,1-2.19,9c-5.29,17.32-11.46,41.43-16.61,62.55-.47-2.7-1.19-6.87-2.3-13.3-.26-1.52-.47-3.17-.62-4.91A407.79,407.79,0,0,0,2238.14,1396.34Z"/><path class="cls-7" d="M2249.69,1396.66c80.26-33.8,38-80.17,108.72-49.54,5,2.16,11.06,7.59,17.14,15.09a52.51,52.51,0,0,1-22.42,1.8c-21.12-3.16-13.73,13.73,21.12,18a79.58,79.58,0,0,1,16.33,3.44c16.6,31.9,24.08,73.85-11,88.43-6.92,2.88-15.48,4.52-25,5.14-10.84-8.62,2.65-58.48-14.07-51.6-16.05,6.61,5,42.74,2.14,51.85a231.76,231.76,0,0,1-50.13-7c-6.63-3.72-11.7-8.7-13.26-15.25-5.28-22.18,29.57-35.91,30.63-54.91,1-17.48-12.78,38.44-49.19,46.67C2227.73,1433.33,2212.18,1412.45,2249.69,1396.66Z"/><path class="cls-7" d="M2192.51,1336.91c8.44-18-13.73-22.18-12.68-8.44.94,12.16,1,41.73-11.43,49.78-21.52-2.33-50.79-11-72.92-24.22a9,9,0,0,1,.93-5.5c9.51-19,70.76-34.85,51.75-41.19-15.14-5-41.67,24.74-63,39.74-12.84-9.73-21.44-21.35-21.44-34.31,0-17.54,21.32-37.4,48.88-46.91,12.41,1.25,23.94,8,41.94,18.24,26.58,15.07,20.44-9.3-4.7-23.77,21.71,1.13,43.35,10.4,59.31,32.56,0,0-1.51,9.47,8.52,24.12,27.34,40-4.22,63.29-41.94,61.77C2177.81,1368.27,2186.67,1349.31,2192.51,1336.91Z"/><path class="cls-6" d="M2297.33,1355.89c20.64,15.95,43.59,34.61,71.75,47.29s22.53,54,22.53,54,4.23-35.67-19.24-47.87-39-26.75-56.8-29.56a260.15,260.15,0,0,1-27.7-5.63s5.63-11.26,2.35-15.49S2297.33,1355.89,2297.33,1355.89Z"/><path class="cls-6" d="M2399.12,1168.49c-75.57,20.19-130.95,68.53-141.28,80.26s-10.32,15-10.32,15l8,15,3.75-1.87s-6.1-12.68,9.86-29.1c27.52-28.33,61-50.69,84-60.55S2399.12,1168.49,2399.12,1168.49Z"/><path class="cls-8" d="M2242.11,1586.77h-74.29a14.45,14.45,0,0,1-14.46-14.45v-89h103.21v89A14.45,14.45,0,0,1,2242.11,1586.77Z"/><rect class="cls-4" x="2153.36" y="1495.13" width="103.21" height="7.27"/><rect class="cls-4" x="2153.36" y="1508.38" width="103.21" height="4.27"/><rect class="cls-9" x="280.48" y="1376.5" width="43.46" height="39.11" rx="3.78"/><rect class="cls-9" x="201.46" y="1376.5" width="43.46" height="39.11" rx="3.78"/><rect class="cls-9" x="122.44" y="1376.5" width="43.46" height="39.11" rx="3.78"/><polygon class="cls-10" points="1969.13 1624.62 1972.39 1601.16 1958.7 1589.72 1954.39 1620.79 1969.13 1624.62"/><path class="cls-11" d="M1923.68,1645.58h55.8s1.33-8.5-1.58-14.95c-2.79-6.19-7.14-10-7.54-14.76-3.54,3.65-7.9,6-16,4.92-1,1.6-6.38,10.17-9.68,12.55C1941.06,1636,1924.81,1635,1923.68,1645.58Z"/><path class="cls-8" d="M1934.89,1307.78c3.65,29.35,6.64,57,9.07,82.81,13,137.41,10.43,221.4,10.43,221.4s.94,2.48,9,2.52a46.56,46.56,0,0,0,9-1s29.07-89.73,26.82-140.79a77.8,77.8,0,0,0-2.27-16.53c-7-26.13,25.81-126-9.82-163.24S1933.21,1294.31,1934.89,1307.78Z"/><path class="cls-8" d="M1934.89,1307.78c3.65,29.35,6.64,57,9.07,82.81l55.25,82.16a77.8,77.8,0,0,0-2.27-16.53c-7-26.13,25.81-126-9.82-163.24S1933.21,1294.31,1934.89,1307.78Z"/><path class="cls-10" d="M1891,1027.81s1.35-6.7,2.86-11.82c.67-2.26-4-17.14-7.23-19s-11.65,8.19-9.27,15.88c1.23,4,3.24,16.81,3.24,16.81Z"/><path class="cls-10" d="M1891,1027.81s1.76-3.88,3.35-4.51,3.28-7,4.45-9.51c0,0-1.13-1.65-3.09.47-1.21,1.29-3.88,5.09-3.88,5.09Z"/><path class="cls-10" d="M2121.3,1050.37c.34.71.82,2,1.24,3.15,0-.32,0-.64,0-1,0-2.37,8.84-15.22,12.46-16s8.75,11.23,4.22,17.89c-2.33,3.42-8,15.12-8,15.12l-9.4-4.85s-.54-4.23-1.88-5.3-1.09-7.65-1.47-10.4C2118.48,1049,2120,1047.77,2121.3,1050.37Z"/><path class="cls-10" d="M2062.7,1617.59c.78-7.52,1-27.31,1-27.31s-20.16-6.45-19.42-2c3.65,21.76,2.66,32.53,2.66,32.53l8.15,4.87Z"/><path class="cls-8" d="M1951.73,1306.38s77.89,213.51,93.23,306.12c0,0,3.55,2.44,10.17,1.63,7.52-.92,9.58-6.14,9.58-6.14s14.07-111-13.9-149.54c-19.21-26.47,8.29-142.75-36.46-152.07S1951.73,1306.38,1951.73,1306.38Z"/><path class="cls-12" d="M1965,1142.69a23.81,23.81,0,0,0,1.18,2.61,20.61,20.61,0,0,0,2.26,3.48,29.28,29.28,0,0,1-.94-4h0c-.13-.71-.24-1.47-.34-2.3a87,87,0,0,1-.19-15.33,84.63,84.63,0,0,0,1.31,15.21c.12.65.25,1.3.4,1.94a35.38,35.38,0,0,0,1.93,6.13c.14.37.3.73.47,1.08,5.21,4.64,11.43,11.74,17.76,19.91,4.36,5.6,8.78,11.72,13,17.88,1.61,2.38,3.19,4.75,4.71,7.11h0c.64,1,1.27,2,1.89,2.95,0,0,0,0,0,0,.78,1.22,1.52,2.42,2.26,3.61,2,3.32,3.94,6.53,5.64,9.58.39.7.77,1.38,1.13,2.06,5.26,9.65,8.4,17.31,7.68,20.24l1-.66.59-.41c2.15-1.49,6.39-4.4,11.77-8l.35-1.08,2.68-8.31c.59,1.87.2,5.17-.2,7.49,8.42-5.7,18.92-12.71,28.45-18.8h0c7.12-4.56,13.67-8.6,18.41-11.21a121.86,121.86,0,0,0-3-12c2.78,1.23,5.43,7.06,6.68,10.14q.48-.24.9-.42s.53-23.8-30.56-46.26c-16.29-11.77-27.84-17.36-25.41-28.86s4.54-62.25-31.33-54.23c0,0-5.09-3.22-7.58-3.22a6.8,6.8,0,0,1,2.8,1.87c-3.91-.81-9.57-1.36-14.66.61-2.79,1.08-5.89,4.57-8.9,9.63h0c-.18.33-.37.65-.57,1-1.27,2.23-2.52,4.74-3.73,7.44a126.08,126.08,0,0,0-5.66,15.68h0c-.54,1.84-1,3.69-1.49,5.57a1.31,1.31,0,0,0-.06.27h0C1961.93,1116,1960.8,1132,1965,1142.69Z"/><path class="cls-10" d="M1972.31,1152.4c-.12,0,10,7.39,18.66,6.36,8.11-1,14.71-10.31,14.6-10.35-3.2-1.15-3.48-5.82-.51-25.3l-1.54.07-25.82,1.23s-.6,8-1.69,15.42C1975.1,1146.08,1973.84,1152,1972.31,1152.4Z"/><path class="cls-13" d="M1977.7,1124.41s-.6,8-1.69,15.42c14.09,1.7,23.42-10,27.51-16.65Z"/><path class="cls-12" d="M2006.52,1120.83s9.09-10.53,12.33-20.2c2.32-6.91,2.62-33.75-24.38-33.89a36.26,36.26,0,0,0-15.73,3.41c-6.31,3-15.84,10.16-10,34.49l1.25,8.11Z"/><path class="cls-4" d="M1931.64,1302.28s33.6,20,75.8,9.7c.49-.12,34.74-5.59,34.74-5.59-.59-1.61-5-28.06-5.59-29.54-7.49-19.32-21.17-124.16-32.6-129.33-2.92,3.18-11.26,5.36-18.4,4.72-8.22-.72-11-4.28-10.29-8.1-9.1,4.3-16.09,8.3-16.09,8.3C1950.9,1164.9,1931.64,1302.28,1931.64,1302.28Z"/><path class="cls-10" d="M1972,1130.76s33.14,5.49,36.24-15.2,9.46-33.91-11.56-38.28-26.33,2.89-29,9.55S1963.43,1128.8,1972,1130.76Z"/><path class="cls-12" d="M1981.59,1074.52s5.48,25.62,18.9,31.29,20,2.82,20,2.82a135.54,135.54,0,0,1-3.14-28.14S1990.16,1064,1981.59,1074.52Z"/><path class="cls-12" d="M1983.55,1076.83s-7.6,4.4-10,9.43-4.8,15.75-7.9,14.91c0,0-4.4-17.51,4.69-25.7C1979.93,1066.79,1983.55,1076.83,1983.55,1076.83Z"/><path class="cls-11" d="M1880.35,1028.29a21.22,21.22,0,0,1,5.92-1.83,18.22,18.22,0,0,1,5.21.55s9.35,58.1,10,61.18,40.09,47.46,50.72,47.29c9.59-.16,21,7.24,23.06,8.66,0,0-22.34,47.24-23.45,56.11-1.21,9.66-12.78,158.34-12.78,158.34s.69,6.92-12.23,3.2-16.16-6.8-16.16-6.8,11.87-117,14.36-153.45a70.47,70.47,0,0,1,2.27-13.58,13.77,13.77,0,0,0-2.22-11.7c-16.34-22.43-42.14-58.77-43.58-66.49C1879.4,1098.42,1880.35,1028.29,1880.35,1028.29Z"/><path class="cls-11" d="M2016.21,1645.58H2072s1.34-8.5-1.57-14.95c-2.8-6.19-7.14-10-7.54-14.76-3.54,3.65-7.91,6-16,4.92-1,1.6-6.38,10.17-9.68,12.55C2033.59,1636,2017.33,1635,2016.21,1645.58Z"/><path class="cls-11" d="M1977.88,1204.84c1.88-11.57,25.89-58,25.89-58s15.18-4.54,25.17-.92,61.67-25.56,63.32-28.25,29.34-54.26,29.34-54.26,2.29-1.33,6,.58a6.74,6.74,0,0,1,3.66,5.6s-21.37,64.94-27.05,75c-3.43,6.06-32.24,27.15-54.58,42.94a14,14,0,0,0-5.81,13.33c3,22.21,3.77,34.71,7.23,72.82,2.86,31.61,4,92.81,4,92.81s-25,8.65-42.26,9.8-21-17-21-17S1976,1216.74,1977.88,1204.84Z"/><path class="cls-4" d="M1982.82,1120.53a14.72,14.72,0,0,1-8.78,1.65c-3.25-.48-4-4.35-4-4.35a12.8,12.8,0,0,1,5.87,0A25,25,0,0,1,1982.82,1120.53Z"/><path class="cls-10" d="M683.81,1069.89s-13.38-13.42-5.33-19.15,12.94-3.86,14.37-.36,1.57,18.85,1.57,18.85Z"/><path class="cls-11" d="M719.27,1169.64a299.56,299.56,0,0,1-43.59,17.08,258.07,258.07,0,0,1-34.93,8c-2.79.44-5.5.82-8.1,1.13-27.55,3.34-44.11.3-44.11.3s2.93-61.64,23.28-61.73c23.22-.11,74.86,6.66,77.11-.17,2.54-7.7-9.3-64.35-9.3-64.35,8.65-6.68,16.31-4.13,16.31-4.13S743,1158.2,719.27,1169.64Z"/><path class="cls-14" d="M719.27,1169.64a299.56,299.56,0,0,1-43.59,17.08,258.07,258.07,0,0,1-34.93,8c-11.47-17.67-21.34-36.23-5.79-27.71C662.41,1182.08,719.27,1169.64,719.27,1169.64Z"/><path class="cls-11" d="M576.29,1622.79s-1.78,20.59,2.57,22.74l55.7-.12s0-6.43-8.95-7.85-24.66-6.67-27.32-18.34S576.29,1622.79,576.29,1622.79Z"/><path class="cls-8" d="M617.18,1373.62c-.27,13.46-.92,27.34-2.19,39.82-6,59.22-8.13,130.77-9,144.57-1.5,23.94-6.23,62.2-6.23,62.2s-9.38,8.91-27.67,4.66c0,0-15.16-55.1-18.54-113.12,0-1-.11-1.91-.15-2.87-.4-7.67-.81-16.44-1.23-25.89-2.78-63.35-5.81-157.46-5.81-157.46l69.89-16.41S617.87,1340.05,617.18,1373.62Z"/><path class="cls-8" d="M617.18,1373.62c-17.71,30.55-51.47,86.86-65,109.37-2.78-63.35-5.81-157.46-5.81-157.46l69.89-16.41S617.87,1340.05,617.18,1373.62Z"/><path class="cls-10" d="M440.22,1314.42s-11.38,13.37-12.4,17.08-2.84,17.07-1.87,21.08,8.54-11.19,11.29-12.82-2.07,6-1.13,7.33,6.38-4.47,8.49-6.42,1.91-12.44,4.45-18.64S440.22,1314.42,440.22,1314.42Z"/><path class="cls-11" d="M437.55,1599.4s-9.91,9-8,15.47,10.88,10.71,12.09,18.57,6,12.14,10.4,12.14H472.8s3.21-5.53-4.53-7.19-10.65-10.9-10.17-19.47a151.41,151.41,0,0,0-.73-20l-16.44-3.81Z"/><path class="cls-8" d="M605.25,1327S539.82,1467,505,1528.38s-45.69,78.56-45.69,78.56-19.95-7.86-21.76-13.22c0,0,13.31-118.57,36.63-147.48,13.17-16.33,28.65-65.35,29.37-82.49s16-58,16-58Z"/><path class="cls-11" d="M624.37,1333.57s-26,17.39-62.84,15.78c-16.16-.71-48.21-5.29-53.39-18.14-1.21-3-.32-6.85,1.5-12.73,4.73-15.27,15.75-44.36,12.42-108.86a105.32,105.32,0,0,1,.44-16.93c3.47-31.77,21.67-50.59,39.27-56.74,42.92-15,57.23,5.79,57.23,5.79s19,15,21.83,46.39C646.54,1250.88,624.37,1333.57,624.37,1333.57Z"/><path class="cls-10" d="M575.2,1144.65s22.34,5.67,41.77-3.83c0,0,3.72-2.26.28-6.39a64.78,64.78,0,0,0-.12-6.88,100.82,100.82,0,0,0-.83-11L601,1107.89l-16.44-7.75a77.77,77.77,0,0,1,1.59,10.62C588.49,1135.05,575.2,1144.65,575.2,1144.65Z"/><path class="cls-15" d="M587.91,1110.7s11.47,14.93,29.22,16.85c-.22-7.09-1.15-14.3-1.15-14.3l-15-5.36Z"/><path class="cls-10" d="M629.12,1111.94s-34.56,15.51-43.85-5.8-20-33.66,1.65-44.47,29.54-4.53,34.4,1.83S637.87,1107.35,629.12,1111.94Z"/><path class="cls-16" d="M560.5,1065.85c-.43-.29-1.27-.39-3,0a7.19,7.19,0,0,1,2.91-1.73c-.27-2.43-.12-6.91,3.64-9a5.22,5.22,0,0,0-1.48,4.29c3.39-6,12.46-12.18,40.74-17.36,37.25-6.81,31.44,19.75,27.45,23.79s-17.9-.44-26.52,2.6-6.91,16.21-9.43,18.74-2.17-.85-6.7-1.61-3.13,6-.8,10.09-1.7,11.26-1.7,11.26l-7.22-4.55c-7.21-4.55-19.3-28.74-18.2-34.87C560.3,1067,560.4,1066.4,560.5,1065.85Z"/><polygon class="cls-17" points="676.35 1065.56 618.12 1083.99 615.03 1075.33 671.85 1052.96 676.35 1065.56"/><polygon class="cls-17" points="720.88 1053.51 657.59 1073.93 651.96 1058.18 713.85 1033.82 720.88 1053.51"/><polygon class="cls-18" points="764.13 1041.62 710.54 1058.12 702.95 1036.86 754.85 1015.63 764.13 1041.62"/><path class="cls-18" d="M766,1045h0a3.14,3.14,0,0,0,1.9-4l-9.75-27.31a3.15,3.15,0,0,0-4-1.9h0a3.15,3.15,0,0,0-1.9,4l9.75,27.31A3.15,3.15,0,0,0,766,1045Z"/><path class="cls-17" d="M618.51,1085.92h0a2.78,2.78,0,0,1-3.56-1.69l-2.53-7.08a2.8,2.8,0,0,1,1.69-3.57h0a2.79,2.79,0,0,1,3.56,1.69l2.53,7.09A2.78,2.78,0,0,1,618.51,1085.92Z"/><path class="cls-11" d="M509.64,1318.48c4.73-15.27,15.75-44.36,12.42-108.86a105.32,105.32,0,0,1,.44-16.93h0c14.13-1.21,35.72,14,35.72,14S544.92,1287.81,509.64,1318.48Z"/><path class="cls-11" d="M574.35,1132.35s-36.22,6.23-55.11,29.29-49.27,55.57-56.46,67-27.13,88.87-27.13,88.87,1.32,2.5,6.82,4a13,13,0,0,0,9.09-.77s26.42-45.22,36.36-67.81c4.13-9.39,75.59-46.56,102.46-42.71C600.93,1211.65,574.35,1132.35,574.35,1132.35Z"/><path class="cls-10" d="M675.42,1049s7.83.91,12-1.65,3-4.24,3-4.24S675.78,1044.54,675.42,1049Z"/><path class="cls-14" d="M609.49,1157.61S593.6,1258,480.83,1287.18l-12.29,24.23,21.58,3.65s128.39-37.19,126.66-159.22Z"/><polygon class="cls-19" points="607.03 1141.6 601.82 1142.11 601.82 1149.64 609.49 1157.61 616.78 1155.84 616.78 1145.38 611.54 1141.6 607.03 1141.6"/><path class="cls-14" d="M586.08,1122.27s-5.79,2-16,10.08c0,0,11.46,24.32,35.63,27.23,0,0-.39-11.28,1.36-18C607,1141.6,587.34,1135.37,586.08,1122.27Z"/><path class="cls-14" d="M607,1141.6s11.79,6.26,12.67,16c0,0,4.37-7.11,3.2-12.09a24.81,24.81,0,0,0-5.65-11.09S618,1140.87,607,1141.6Z"/></svg>