<svg id="Layer_1" data-name="Layer 1" xmlns="http://www.w3.org/2000/svg" viewBox="0 0 7806.8 5217.07"><defs><style>.cls-1{fill:#cce2ff;}.cls-2{fill:#00666b;}.cls-3{fill:#222b54;}.cls-4{fill:#d15a65;}.cls-5{fill:#ded7df;}.cls-6{fill:#cd6a4a;}.cls-7{fill:#ebc3b7;}.cls-8{fill:#6a2f33;}.cls-9{fill:#2e5b9a;}.cls-10{fill:#75a1de;}.cls-11{fill:#00656a;}.cls-12{fill:#62c1c5;}.cls-13{fill:#c0e6e8;}.cls-14{fill:#fdd247;}.cls-15{fill:#f7a60f;}.cls-16{fill:#ee9556;}.cls-17{fill:#eeb68e;}.cls-18{fill:#282c55;}.cls-19{fill:#d54a41;}.cls-20{fill:#f37168;}.cls-21{fill:#fff;}.cls-22{fill:#337a80;}.cls-23{fill:#082d47;}.cls-24{fill:#f7b690;}.cls-25{fill:#212a53;}.cls-26{fill:#303c60;}</style></defs><path class="cls-1" d="M6546.65,4002.78c-439.12-21.46-1933,14.9-2387.28,29.08s-981.69-18.71-1255.63-67.07-1857.4,4.12-1785.54,134.14,705.5,58.16,1424.07,110.42,2334.64-6.53,2699.18,0,698.81-13.06,1168.58-39.19S6801.19,4015.22,6546.65,4002.78Z"/><path class="cls-2" d="M5731.41,897.05c-72.56,7-98.89,43.9-108.38,67.12,3.65-26.25,8.12-52.29,13.86-77.92,73.68-83.46,40.51-127.88,40.51-127.88-60.09,49.06-57.86,97.15-51.88,120.39-6,26.18-10.58,52.76-14.42,79.52-14.71-82.5-76.88-91.39-76.88-91.39,16.89,94.28,57.42,113.33,73.31,117.2-2,16.78-3.37,33.63-4.5,50.52-36.15-78.46-99.95-70-99.95-70,38.76,80.32,79.74,92.3,98.41,93.14a1054.11,1054.11,0,0,0,27.93,293.41c1.91,7.91,14.11,4.56,12.2-3.36a1022,1022,0,0,1-21.16-118.26c97.08-50.17,82.79-103,82.79-103-53.16,16.89-76.11,45.2-86,68.65-2.33-27-4-54.07-4.23-81.21,5.76,1.82,57.77,14.91,116-82.47,0,0-73.64-16.74-116.06,81.13a1027.87,1027.87,0,0,1,7.48-130C5734.66,954.64,5731.41,897.05,5731.41,897.05Z"/><path class="cls-2" d="M5482.5,1078.43c65,101.28,119.15,78.56,119.15,78.56C5556.2,1059.13,5482.5,1078.43,5482.5,1078.43Z"/><path class="cls-3" d="M5868.52,1059.65c-33.35,90.31-91.47,174.8-162.28,240.21-6,5.54,3,14.47,8.94,9,72.4-66.88,131.48-153.57,165.54-245.8C5883.55,1055.36,5871.33,1052.06,5868.52,1059.65Z"/><path class="cls-3" d="M5816.5,1037.84s-21.9,29.06,29.06,83.58C5845.56,1121.42,5868.39,1080.06,5816.5,1037.84Z"/><path class="cls-3" d="M5763.15,1253.81s31-35.65-10.89-87.82C5752.26,1166,5724.75,1189.82,5763.15,1253.81Z"/><path class="cls-3" d="M5877.75,1066.09s31-35.66-10.92-87.82C5866.83,978.27,5839.33,1002.1,5877.75,1066.09Z"/><path class="cls-3" d="M5823.33,1161.44s23.66,27.65,87.88-10.36C5911.21,1151.08,5875.75,1119.87,5823.33,1161.44Z"/><path class="cls-3" d="M5771.56,1108.06c-3.55,74.54,32,82.52,32,82.52C5815.73,1124.8,5771.56,1108.06,5771.56,1108.06Z"/><path class="cls-3" d="M5794.27,1216.59s20.14,30.32,88.49.35C5882.76,1216.94,5851.33,1181.67,5794.27,1216.59Z"/><path class="cls-3" d="M5706.72,1074.82c11.08,96.58-1.39,197.82-34.73,289.35-2.79,7.66,9.43,11,12.2,3.37,33.62-92.31,46.35-195.36,35.18-292.72C5718.45,1066.83,5705.79,1066.74,5706.72,1074.82Z"/><path class="cls-3" d="M5650.6,1080.44s-6.22,35.86,64,61.12C5714.6,1141.56,5716.05,1094.34,5650.6,1080.44Z"/><path class="cls-3" d="M5651.93,1223.79s-13.61,33.76,49.76,73.18C5701.69,1297,5713,1251.1,5651.93,1223.79Z"/><path class="cls-3" d="M5709.25,1098.26s47.18,2.27,62.23-62.91C5771.48,1035.35,5735.74,1028.49,5709.25,1098.26Z"/><path class="cls-3" d="M5713.09,1187.31s33.67,13.81,73.47-49.32C5786.56,1138,5740.76,1126.4,5713.09,1187.31Z"/><path class="cls-3" d="M5642.66,1163.44c30.86,68,66.1,58.84,66.1,58.84C5689.61,1158.18,5642.66,1163.44,5642.66,1163.44Z"/><path class="cls-3" d="M5712.4,1249.65s31.75,17.78,78.89-40.08C5791.29,1209.57,5747.23,1192.54,5712.4,1249.65Z"/><path class="cls-3" d="M5437.76,957.65c-.9-8-13.56-8.09-12.65,0,14.19,125.63,60.15,251.28,129.47,357.4,4.44,6.78,15.4.45,10.93-6.39C5497.39,1204.39,5451.72,1081.21,5437.76,957.65Z"/><path class="cls-4" d="M6595.26,1261.25H6123a16.87,16.87,0,0,0,0,33.74h472.28a16.87,16.87,0,0,0,0-33.74Z"/><path class="cls-5" d="M6645.86,1227.52H6173.58a16.87,16.87,0,0,0,0,33.73h472.28a16.87,16.87,0,1,0,0-33.73Z"/><path class="cls-5" d="M6612.12,1295H6139.85a16.87,16.87,0,1,0,0,33.73h472.27a16.87,16.87,0,1,0,0-33.73Z"/><rect class="cls-6" x="6089.25" y="1328.72" width="506.01" height="50.6" rx="16.87"/><rect class="cls-7" x="6139.85" y="1379.32" width="506.01" height="67.47" rx="16.87"/><rect class="cls-3" x="5347.1" y="1446.79" width="1501.16" height="50.6" rx="16.87"/><path class="cls-8" d="M5465.17,1295c0,55.26,21.29,107.89,72.41,133.78,52.14,26.41,130.76,27.29,185,3.52,55.63-24.37,79.92-78.65,79.92-137.3H5465.17Z"/><path class="cls-8" d="M5802.51,1278.12H5465.17a16.87,16.87,0,1,0,0,33.73h337.34a16.87,16.87,0,1,0,0-33.73Z"/><path class="cls-3" d="M5448.94,1041.66c80.57-52.1,62.31-95.18,62.31-95.18C5433.37,983,5448.94,1041.66,5448.94,1041.66Z"/><path class="cls-3" d="M5510.41,1232.48c67.86-67.83,41-106.13,41-106.13C5482.88,1178.35,5510.41,1232.48,5510.41,1232.48Z"/><path class="cls-3" d="M5380.9,878.35c4.22,85.9,64.44,93.75,64.44,93.75C5427.68,877.8,5380.9,878.35,5380.9,878.35Z"/><path class="cls-3" d="M5357.8,1058.17c68.24,67.44,106.37,40.33,106.37,40.33C5411.77,1030.31,5357.8,1058.17,5357.8,1058.17Z"/><path class="cls-3" d="M5479.79,1141s46.78,1.14,65.61-92.94C5545.4,1048.08,5485.08,1055.18,5479.79,1141Z"/><path class="cls-3" d="M5372.75,1149.18c75.89,58.7,110.46,27.18,110.46,27.18C5423,1115,5372.75,1149.18,5372.75,1149.18Z"/><rect class="cls-9" x="2304.99" y="2607.67" width="2403.99" height="48.67"/><polygon class="cls-9" points="2168.91 4101.55 2191.98 4101.55 2441.06 2647.31 2364.95 2647.31 2168.91 4101.55"/><rect class="cls-10" x="4893.09" y="3412.25" width="67.32" height="126.23" rx="30.24"/><path class="cls-10" d="M4918.1,3428.5v482.74c0,10.94,17,11,17,0V3428.5C4935.11,3417.55,4918.1,3417.53,4918.1,3428.5Z"/><path class="cls-10" d="M4693.67,3393.21s68.16,85.25,249.28,78.19S5196,3352.69,5196,3352.69,5000,3441.83,4693.67,3393.21Z"/><path class="cls-10" d="M5427.65,2746.19c-9,6.11-.51,20.85,8.59,14.68,18.95-12.84,41-2,48.24,18.92,6.28,18.22.26,38-7.55,54.6-11.47,24.32-28.14,46-40.06,70.12-22.63,45.9-28.24,90.15-26.48,140.82,1.87,53.81-3.56,107-35.29,152.4-32.6,46.67-89.09,73.54-145.69,62-10.68-2.19-15.25,14.21-4.52,16.4,56.85,11.63,115-10,152.68-53.93,46.05-53.72,51.49-120.18,49.43-187.81-1.44-47.35,7.05-88.24,29.18-130.28,16.12-30.64,41.17-59.27,46.53-94.41C5509.05,2768,5471.76,2716.28,5427.65,2746.19Z"/><path class="cls-9" d="M5404.21,2220.34c-12.45,4-24.38,11.69-35.7,22.16-154.45,142.85-175.57,438.06-148.64,651.95,5.27,41.8,24.19,91.19,63.6,70.73a58.73,58.73,0,0,0,8.6-5.52c44.87-34.52,66.52-127,83.89-185.34,22.51-75.63,39.47-153.48,55.7-231.28,16.87-80.9,45.19-170.88,25.49-252.51C5448.14,2253.21,5440.81,2208.68,5404.21,2220.34Z"/><path class="cls-9" d="M5280,3241c-1.08-12.48-11.85-21.89-24.38-21.89H4602.36a24.42,24.42,0,0,0-23.33,16.87,130.82,130.82,0,0,0-6.07,43.76,88.14,88.14,0,0,0,8.7,36.12c28.78,59.64,122,82.2,177.17,96.45,79.92,20.63,164.75,20.5,245.66,5.75,74-13.49,284.72-68.22,275.52-176.83A1.79,1.79,0,0,1,5280,3241Z"/><path class="cls-11" d="M5367.17,2792.61l-.13.53C5367.09,2792.92,5367.14,2792.74,5367.17,2792.61Z"/><path class="cls-11" d="M5367.17,2792.61c.07-.27.07-.24,0,0Z"/><path class="cls-10" d="M5391.34,2688.6l-25.45,109.06,1.06-4.18c0-.16.06-.21.09-.34l.13-.53c.07-.24.07-.27,0,0s-.08.31-.13.53-.05.21-.09.34c-1.06,4.18,67.33,18,73.36,13.28s17.64-56.8,16.06-85.2S5391.34,2688.6,5391.34,2688.6Z"/><path class="cls-11" d="M5367,2793.14c.05-.22.1-.4.13-.53Z"/><path class="cls-11" d="M5367,2793.48c0-.13.06-.22.09-.34,0,.13-.05.18-.09.34Z"/><path class="cls-11" d="M5367.17,2792.61c.07-.27.07-.24,0,0Z"/><path class="cls-11" d="M5367.17,2792.61l-.13.53C5367.09,2792.92,5367.14,2792.74,5367.17,2792.61Z"/><path class="cls-10" d="M5199.22,3996.29c-9.53-4.81-213.19-84.52-272.56-87.29a1.26,1.26,0,0,0-.51,0l-.51,0c-59.38,2.84-263,82.55-272.56,87.36-10.25,5.17-3.42,45.89,3.41,48.47S4913.26,3973,4913.26,3973H4939s249.94,74.32,256.77,71.73S5209.47,4001.46,5199.22,3996.29Z"/><path class="cls-10" d="M5204.45,4011.38a44.71,44.71,0,1,0,44.7,44.7A44.7,44.7,0,0,0,5204.45,4011.38Z"/><path class="cls-10" d="M4647.85,4011.38a44.71,44.71,0,1,0,44.71,44.7A44.7,44.7,0,0,0,4647.85,4011.38Z"/><rect class="cls-10" x="4893.09" y="3809.21" width="67.32" height="126.23" rx="30.24"/><rect class="cls-10" x="1959.07" y="3412.25" width="67.32" height="126.23" rx="30.24"/><path class="cls-10" d="M2001.38,3428.5v482.74c0,10.94-17,11-17,0V3428.5C1984.37,3417.55,2001.38,3417.53,2001.38,3428.5Z"/><path class="cls-10" d="M2225.8,3393.21s-68.15,85.25-249.27,78.19-253.08-118.71-253.08-118.71S1919.47,3441.83,2225.8,3393.21Z"/><path class="cls-10" d="M1491.83,2746.19c9,6.11.5,20.85-8.59,14.68-19-12.84-41-2-48.24,18.92-6.29,18.22-.27,38,7.54,54.6,11.47,24.32,28.15,46,40.07,70.12,22.63,45.9,28.24,90.15,26.47,140.82-1.87,53.81,3.57,107,35.3,152.4,32.6,46.67,89.09,73.54,145.68,62,10.69-2.19,15.26,14.21,4.53,16.4-56.85,11.63-115-10-152.69-53.93-46-53.72-51.49-120.18-49.43-187.81,1.45-47.35-7-88.24-29.18-130.28-16.12-30.64-41.17-59.27-46.52-94.41C1410.42,2768,1447.71,2716.28,1491.83,2746.19Z"/><path class="cls-9" d="M1515.26,2220.34c12.45,4,24.38,11.69,35.71,22.16,154.45,142.85,175.57,438.06,148.63,651.95-5.26,41.8-24.18,91.19-63.6,70.73a58.64,58.64,0,0,1-8.59-5.52c-44.87-34.52-66.52-127-83.89-185.34-22.52-75.63-39.48-153.48-55.7-231.28-16.88-80.9-45.2-170.88-25.49-252.51C1471.34,2253.21,1478.67,2208.68,1515.26,2220.34Z"/><path class="cls-9" d="M1639.49,3241c1.08-12.48,11.85-21.89,24.38-21.89h653.25a24.42,24.42,0,0,1,23.33,16.87,130.56,130.56,0,0,1,6.06,43.76,88,88,0,0,1-8.69,36.12c-28.79,59.64-122,82.2-177.18,96.45-79.92,20.63-164.75,20.5-245.66,5.75-74-13.49-284.71-68.22-275.51-176.83A1.79,1.79,0,0,1,1639.49,3241Z"/><path class="cls-11" d="M1552.3,2792.61c0,.12.07.28.14.53C1552.38,2792.92,1552.34,2792.74,1552.3,2792.61Z"/><path class="cls-11" d="M1552.3,2792.61c-.07-.27-.06-.24,0,0Z"/><path class="cls-10" d="M1528.14,2688.6l25.45,109.06-1.07-4.18c0-.16,0-.21-.08-.34s-.11-.41-.14-.53h0c0,.13.08.31.14.53l.08.34c1.06,4.18-67.33,18-73.36,13.28s-17.63-56.8-16.06-85.2S1528.14,2688.6,1528.14,2688.6Z"/><path class="cls-11" d="M1552.44,2793.14c-.06-.22-.1-.4-.14-.53C1552.33,2792.73,1552.37,2792.89,1552.44,2793.14Z"/><path class="cls-11" d="M1552.52,2793.48l-.08-.34c0,.13,0,.18.08.34Z"/><path class="cls-11" d="M1552.3,2792.61c-.07-.27-.06-.24,0,0Z"/><path class="cls-11" d="M1552.3,2792.61c0,.12.07.28.14.53C1552.38,2792.92,1552.34,2792.74,1552.3,2792.61Z"/><path class="cls-10" d="M1720.26,3996.29c9.53-4.81,213.18-84.52,272.56-87.29a1.26,1.26,0,0,1,.51,0l.51,0c59.37,2.84,263,82.55,272.56,87.36,10.25,5.17,3.41,45.89-3.42,48.47S2006.21,3973,2006.21,3973h-25.77s-249.94,74.32-256.77,71.73S1710,4001.46,1720.26,3996.29Z"/><path class="cls-10" d="M1716,4012.17a44.71,44.71,0,1,1-44.71,44.71A44.7,44.7,0,0,1,1716,4012.17Z"/><path class="cls-10" d="M2272.56,4012.17a44.71,44.71,0,1,1-44.7,44.71A44.71,44.71,0,0,1,2272.56,4012.17Z"/><rect class="cls-10" x="1959.07" y="3809.21" width="67.32" height="126.23" rx="30.24"/><polygon class="cls-9" points="4572.9 2647.14 4821.99 4101.38 4845.05 4101.38 4649.01 2647.14 4572.9 2647.14"/><path class="cls-12" d="M6498.72,2682.64a82.71,82.71,0,0,0-10.63-2.29c-1.18-.2-2.42-.33-3.67-.46-13.19-1.38-26.57,0-39.76,2.29C6341.2,2700.36,6250,2777,6214.32,2875.79c-12.67,35-18.7,72.1-23.1,109.1a1323,1323,0,0,0,66.46,595.39l92.11,14.69,15.68,2.5,31,4.92c2.36-78.21,11.09-156.87,36.22-230.94,25.58-75.19,67.44-143.61,105.36-213.35s72.82-143.22,82.4-222-9.51-164.8-66.65-220C6538.22,2701,6519.52,2688.29,6498.72,2682.64Z"/><path class="cls-2" d="M6750.32,2848.43a119.89,119.89,0,0,0-14-4.85c-17.85-5.19-38.58-6.89-62.46-4.6-225.16,21.79-285.72,759.21-285.72,759.21l39.83,4.26,14.69,1.58,61.41,6.56s114.75-172.42,227.07-314.33C6828.33,3173.51,6883,2904.72,6750.32,2848.43Z"/><path class="cls-13" d="M6484.42,2679.89c-14.76,66.59-52.09,127-74.53,191.57-28.67,82.47-44.15,170.64-58.52,256.52-25.92,154.64-35.69,313.47-1.58,467q4.72,21.66,10.76,43.11c2.56,9.12,16.8,5.24,14.24-3.94-3.41-12.2-6.49-24.41-9.32-36.67-37.85-165.07-23.75-336.11,6.5-501.77,14.83-81.41,29.92-165.06,60.23-242.35,22.43-57.08,53.14-111.27,66.52-170.71a82.71,82.71,0,0,0-10.63-2.29C6486.91,2680.15,6485.67,2680,6484.42,2679.89Z"/><path class="cls-12" d="M6665.76,2991.06A2169.89,2169.89,0,0,0,6428,3602.45l14.69,1.58c33.59-148.73,82.21-293.86,146.18-432.35,32.08-69.55,68.75-136.33,106.74-202.73,22.11-38.71,43-78.33,54.71-120.52a119.89,119.89,0,0,0-14-4.85C6722.11,2895.8,6693,2943.69,6665.76,2991.06Z"/><path class="cls-14" d="M6656.44,3537.68H6055.86c-5.4,0-9.83,5.58-9.83,12.42v53.64c0,6.83,4.43,12.42,9.83,12.42h600.58c5.4,0,9.83-5.59,9.83-12.42V3550.1C6666.27,3543.26,6661.84,3537.68,6656.44,3537.68Z"/><path class="cls-15" d="M6097.68,3616.16s72.76,484.79,91.54,485.21c10.21.22,93.25.21,166.93.14s156.72.08,166.92-.14c18.79-.42,91.55-485.21,91.55-485.21H6097.68Z"/><path class="cls-3" d="M5958.06,2831.05a147.59,147.59,0,0,0-13.32,8.2c-46.91,31.82-86.14,92.5-92.25,185.6-13.12,200.1,331.32,512.85,331.32,512.85h124.65c0-78.53-143-636.19-209.94-699.7C6065.65,2806.77,6008.9,2803,5958.06,2831.05Z"/><path class="cls-12" d="M5997,2978.33c-15.55-48.35-27.69-97.75-39-147.28a147.59,147.59,0,0,0-13.32,8.2c10.63,46.25,22,92.31,36.28,137.51,20.93,66.26,50.32,126.69,84.11,187.24,67.7,121.31,132.72,244.32,183.56,373.7h15.68c-48.41-124.46-109.89-243.21-174.71-359.92C6053.64,3112.83,6019.86,3049.32,5997,2978.33Z"/><path class="cls-16" d="M4200.47,2929.8l-16.88-348.14s-97.74-77.58-189.59-8.19c0,0-158.21,512-118.91,548.89s990.16,783,990.16,783,37.15,17.54,19.42-58.44Z"/><path class="cls-17" d="M4518.37,1430.49c6.28-14,7.73-27.76,3.05-37.86-17.28-37.3-74.92-84.59-93.29-105.77s-38.95-23.24-85.75,38.71-61.16,63.57-61.16,63.57,17.78,54.68,104.76,91.4c20.72,8.75,40.22,10.4,57.7,7.41,3.57,15.47,7.42,33.07,8.24,40.39,1.62,14.36,55,22.88,76.54-8.61l-10.05-89.26Z"/><path class="cls-18" d="M4521.38,1133.93c-65.14-49.35-151.76-57-215.32-1.93s-41.47,109.31-62.19,118.91-128.15,62.38-61.41,113,98.76,25.23,98.76,25.23,16.28-11.47,53.69-53.85,73.88-61.44,73.88-61.44c160,147,109.62,156.62,109.62,156.62C4566.07,1427.74,4586.52,1183.28,4521.38,1133.93Z"/><path class="cls-18" d="M5113.57,1135.22c-18.35-17.44-38.45-35-63.2-40.31-30.6-6.6-61.51,6.67-90.57,18.3-52.72,21.09-112,37.67-165.5,18.73-14.22-5-28.33-13.25-35.13-26.7-5.3-10.47-5.48-22.64-6.82-34.29-7.12-62.05-53-118-112.41-137.13-70.86-22.84-219.28-12.25-239.82,79-8.41,37.33,13.08,80.62,49.68,91.8,38.46,11.74,84.65-10.5,118.3,11.52,21.91,14.34,29.61,42.12,38.15,66.87s23.18,51.75,48.89,56.68c19,3.65,40.24-5.88,57.11,3.52,9.14,5.09,14.69,14.68,19.81,23.81,30.95,55.21,64.73,112.69,119.38,144.62,26.36,15.4,56.31,23.94,86.57,28,65.66,8.74,136.49-4.94,186.85-48s75-118.18,49-179.11C5160.89,1182.26,5137.41,1157.89,5113.57,1135.22Z"/><path class="cls-17" d="M4307,3170.08c-36.3-51,220.07-272.45,220.07-272.45-114-198.16-343.51-316-343.51-316S3927.4,3111.89,3950.72,3201s653.5,864.74,653.5,864.74c77.32,34.93,50.72-32,50.72-32S4343.32,3221,4307,3170.08Z"/><path class="cls-19" d="M4654.94,4033.73c-6,53.34-50.72,32-50.72,32,15.58,36.55-90.28,100.95-47.59,103.22s100.2-48.41,100.2-48.41c31-3.48,42.51-34.84,42.51-34.84C4668,4043.25,4654.94,4033.73,4654.94,4033.73Z"/><path class="cls-19" d="M4846.91,3889.46c23.61,31.7-55.83,118.15-16.47,110.54s78.44-69.72,78.44-69.72c27.23-10.47,29.58-43.38,29.58-43.38-39.42-33.79-53.79-40-53.79-40C4893,3899.79,4846.91,3889.46,4846.91,3889.46Z"/><path class="cls-10" d="M4324.79,2124.33c-179.6,69.73-330.79,449.14-330.79,449.14,216.53-92.82,533.1,324.16,533.1,324.16,258.77-202.1,198.89-570.88,131.52-666.74S4504.39,2054.61,4324.79,2124.33Z"/><path class="cls-20" d="M4705.17,1404.26s-1,53.16-67.07,31.42l85.6,133.23-184.54-54a92.08,92.08,0,0,1-37.58,18.66,76.26,76.26,0,0,1-10.48,1.66c-13.43,1.3-28.9-.83-45.08-9.84,0,0-154.19,54.49-180.19,75.13s-316.36,388.76-289.8,439.08,297.48,69.07,297.48,69.07-33-34.05,10.6-70.79L4120.64,1990s173.19-109.52,177.67-100.84,18.25,36.3,53.77,45.56l11.42,176.49s24.81,38.48,76.84,58.14c3.26,1.17,6.57,2.34,10,3.43,37,11.33,86.21,12.74,148.4-13l44.68-228.58s78.31-34.76,65.23-103.9c0,0,199.87,55.44,254,41.4s84.8-142.17,19.34-217S4705.17,1404.26,4705.17,1404.26Z"/><path class="cls-21" d="M4612.42,1388.17l25.68,47.51s65.76,28.82,67.06-31.43l-41.1-51.59S4659.28,1388.2,4612.42,1388.17Z"/><path class="cls-15" d="M4420,1958.2l-121.12,13.63s2.31,11.62,5.88,29.21c7.9,39,22,107.81,30.86,145,3.72,15.66,6.5,25.74,7.5,25.68,2.37-.21,21.85-2.4,39.09-4.34s36.72-4.14,39.13-4.46c1-.16,1.45-10.61,1.61-26.71.31-38.23-1.22-108.4-2.15-148.24C4420.3,1970.05,4420,1958.2,4420,1958.2Z"/><path class="cls-21" d="M4405.37,1916.76l-101.46,11.42a9.89,9.89,0,0,0,2.21,19.65l101.46-11.42a9.89,9.89,0,1,0-2.21-19.65Z"/><path class="cls-21" d="M4241,2025.23c-39.32,28.52-22.73,78.44-22.73,78.44l55.2,5c-19-31.58,10.6-70.82,10.6-70.82Z"/><polygon class="cls-21" points="4405.82 1539.99 4474.11 1597.01 4484.24 1535.53 4446.02 1525.37 4405.82 1539.99"/><path class="cls-3" d="M4429,1929.3c-.32-2.85-1.62-5.06-2.89-4.92l-70.35,7.92-70.36,7.91c-1.27.15-2,2.59-1.72,5.44l2.51,22.36c.32,2.85,1.62,5.06,2.89,4.92l70.36-7.91,70.36-7.92c1.26-.14,2-2.59,1.72-5.44Z"/><polygon class="cls-21" points="4504.69 1533.07 4528.22 1590.77 4577.47 1526.11 4539.69 1514.68 4504.69 1533.07"/><path class="cls-21" d="M4304.74,2001c7.9,39,22,107.81,30.86,145l87.33-9.83c.31-38.23-1.22-108.4-2.15-148.24Z"/><path class="cls-22" d="M4491.1,1535.19c5,49.89,3.21,100.64,1.54,150l-4.76,138.67c-2.51,72.44-5.06,147.36-15.42,220.36-5.4,38.22-13.88,83.1-32.12,125.15,3.26,1.17,6.57,2.34,10,3.43,18.46-42.92,27.09-88.35,32.54-127.11,10.4-73.53,13-148.72,15.5-221.47l4.77-138.63c1.7-50,3.46-101.29-1.61-152A76.26,76.26,0,0,1,4491.1,1535.19Z"/><path class="cls-17" d="M4367.07,2028.51c-25.84-9.48-83,9.33-83,9.33-32.84,38.18-10.6,70.82-10.6,70.82s32.65,15.11,62.82.41c14.29-7,34.73-6.58,50.18-8.8,12.52-1.79,49.42-1.41,58.56-11.35C4467.71,2064.31,4383.1,2034.39,4367.07,2028.51Z"/><path class="cls-3" d="M4524.93,1245.79c-1.69,3.27-66.21,171.81-63.65,174.24s82.85,24.57,82.85,24.57l66.69-171.14S4526.61,1242.52,4524.93,1245.79Z"/><path class="cls-17" d="M4589.67,1281.89c-17-1.13-106.51-8.14-95.8,23.54,4.32,12.8,38.19,27.42,48.9,34.15,13.22,8.29,32,16.23,42.28,28.39,14.25,16.93,42.93,34.6,64.47,19.8,19-13,18.08-44.07,12.18-63.69C4661.7,1324.08,4617.13,1283.71,4589.67,1281.89Z"/><path class="cls-23" d="M3016.34,3695.07c13.5,50.9,42,90.88,58.72,146.92-15.16,13.15-47.74,44-64.67,54.68-20.81,13.16-71.67,33.76-79.3,1.61s25.95-84,39.09-110.88C2984,3759.1,2999.76,3721.81,3016.34,3695.07Z"/><path class="cls-10" d="M2673.28,2389.2c11.66,231,68.45,520.25,216.13,957.34,43.81,129.67,194.29,553.23,211,609.27,15.24,51.14,107.7,53,101.55,14.73-26.54-165.3-21.36-210.47-22.44-222.51,20.16-24,40.37-47.7,61.32-70.05,102.48-109.35,168.16-206.35,205.64-351.45,43-166.32,34-315.27-2.43-483.15-34.2-157.63-87.76-374.72-185.32-646.49-4.88-13.59-12.08-29.17-26.27-31.77-16.5-3-30.06,14.47-32.68,31s1.22,33.76-2.23,50.17c-5.69,27.1-30.61,46.84-57.2,54.54s-54.9,5.6-82.5,3.43l-303.11-23.85c-13.61-1.07-57.56,67.82-67.92,76.71A40.61,40.61,0,0,0,2673.28,2389.2Zm365.55,248.46c.71,15.1,25.47,42.79,33.05,55.52,66.91,112.44,100.89,242.48,124,368.55,19,103.73,25.54,213.41-6.79,315.25-12.39,39-29.06,76.37-48,112.68C3099.94,3199,3052.24,2925.26,3038.83,2637.66Z"/><path class="cls-24" d="M3037.32,1076.18c9.52-.6,198.14,62.49,198.14,62.49s3,61.71-3.8,84.37-76.6,120.79-90.27,131.21-146.07-61.14-160.74-86.69,5.93-86.83,5.93-86.83S3027.81,1076.79,3037.32,1076.18Z"/><path class="cls-3" d="M3276,1194.11s64.37,33.18,62.4,37.63S3216.28,1442.6,3211.64,1442s-75.85-46-75.85-46l126.7-233.83Z"/><polygon class="cls-21" points="3238.83 1227.54 3267.21 1203.3 3255.26 1215.84 3320.59 1253.39 3219.73 1420.43 3157.23 1383.73 3173.82 1327.02 3238.83 1227.54"/><path class="cls-24" d="M3001.26,3902.33l-18.39,25.21S2933.42,3920,2919,3866l21.26-16.69S2952.72,3876.21,3001.26,3902.33Z"/><polygon class="cls-3" points="3017.91 1529.1 3038.83 1632.56 2992.24 1719.92 2932.64 1624.53 2994.51 1504.6 3017.91 1529.1"/><path class="cls-21" d="M3095.72,1525.89l-56.89,106.67-44.32-128-61.87,119.93s-75.49-113.28-98.92-261.67l52-49.9Z"/><path class="cls-19" d="M3202,3960.46s26.59,52.21,104.71,84.94,102.12,33,82,56.29-108.27,29.62-145,15.13-70.63-42-79-41.11-41.11,11.34-62.23-2-6.33-107.64-6.33-107.64S3139.05,3992.4,3202,3960.46Z"/><path class="cls-24" d="M3275.47,1261.94c8.66-8.27,16,.26,25.6,27s14.72,37.82,33.16,62,9.2,57.82,9.2,57.82-58.84,30.76-69.95,29.26-32.09-27.89-32.82-36.48,28.6-58.4,36.16-72.54S3266.81,1270.21,3275.47,1261.94Z"/><path class="cls-24" d="M2309.53,2515.1s46.68,10.52,68,25.42,18.7,18.78-1.87,13.89-28.39-4.52-20.2,2.94,41.1,78.39,44,88.67-4.93,36.75-17.26,28.83c-28.25-18.13-51.48-45.11-78.49-65.26-23.1-17.23-51.08-35.55-60.93-64.33C2237.34,2529.44,2276.92,2536.65,2309.53,2515.1Z"/><path class="cls-20" d="M3570.29,1797.67c23,102.12,15.85,239.79-31.4,233.44-33.81-4.55-101.56-36.85-153-69.4-75.11-143.8-92.46-440.36-92.46-440.36L3273.48,1438l69.95-29.26S3547.24,1695.54,3570.29,1797.67Z"/><path class="cls-20" d="M3157.73,1441.17s96.89,42.42,135.67,80.18c0,0,17.35,296.56,92.46,440.36-20.45-12.93-38.33-25.91-50.49-37.2-42.76-39.7-42.73-68-53.86-55.34s26.55,459.21,26.55,459.21-134.55,52.71-269.23,23.28c0,0-44.54-478.68-46.59-631.74l121.08-227Z"/><path class="cls-20" d="M2538.39,1492.26c40.84-30.87,85.36-56.14,134.75-76.82,9.3-3.9,160-55.56,160.58-52.58,34.87,189.54,158.52,357.06,158.52,357.06,1.94,90.8,46.59,631.74,46.59,631.74-131.39,65.32-366.27,40.23-366.27,40.23s16-482.65,2.67-495.81c-30.2-29.66-151.76,84.08-172.29,101-98.54,81.27-205.3,207.71-210.39,340.93a680,680,0,0,0,7.48,127.73c1.45,9.6,13.16,40.36,9.5,49.35-16.2,39.78-66.75,30.16-66.77,30.16-25.64-4.88-52.52-166.68-56.16-186.58C2129.7,2048,2289.2,1680.68,2538.39,1492.26Z"/><path class="cls-25" d="M2986.5,1180.66c-2,1.72-3.92,3.47-6,5.08a25.15,25.15,0,0,1-1.63-7.88l3.28-3.43A20.74,20.74,0,0,1,2986.5,1180.66Z"/><path class="cls-25" d="M2978.89,1177.86a25.15,25.15,0,0,0,1.63,7.88c2.06-1.61,4-3.36,6-5.08,8,17.47-9.53,43.6-1.87,63.64,5.2,13.59,20.69,20.25,35.1,22.2s29.38.74,43.21,5.25c15.72,5.12,28.13,17,40.24,28.28,10.48,9.75,23.17,19.94,37.35,18,12.12-1.64,21.12-11.64,29-21,19.69-23.4,48.6-45.75,49.17-77.57.52-29.55-10.23-59.42-35.2-76.84-42.83-29.87-103.33-14.51-151-35.87a148.73,148.73,0,0,1-46,73.89,20.74,20.74,0,0,0-4.33-6.23l-3.28,3.43c-.78-17.71,16.77-34.63,21.63-53.26,4-15.17-.84-31.12-.85-46.81,0-44.24,45.36-82.72,89-75.45,30.17,5,57.43,28,87.69,23.54,10.14-1.48,20.64-6,30.19-2.31,5.71,2.2,9.95,7,14.84,10.66,32.39,24.3,85.51-3.57,116.55,22.44,14.88,12.47,19.2,34,16.87,53.24-.73,6-2.13,12.26-5.91,17-9.69,12.22-29.42,9.46-42.29,18.27-11.82,8.08-15.12,23.66-19.2,37.39-6.93,23.34-28.65,40.52-45.57,59.36a113.87,113.87,0,0,0-13.61,18c-14.51,24.55-44.7,49.69-46.84,79.46-.8,11.23,2.69,22.58.8,33.67-4.21,24.57-33.7,45-24.46,68.12,5.23,13.12,21.28,19.31,26.86,32.29,5.19,12.09-.75,26.75-10.86,35.18s-23.42,11.84-36.4,14c-76.84,12.76-159.06-12.24-215.79-65.63-9.79-9.21-18.89-19.26-25.94-30.7-25.17-40.84-20.65-94.59-.48-138.12C2914.63,1246.08,2946.82,1211.46,2978.89,1177.86Z"/><path class="cls-19" d="M2919,3866s10.19,44.91,63.92,61.5c0,0-13.71,44.62,12.88,106.66s40.15,75.51,15.74,77.66-78.4-43-91.41-71.71-17.17-63.17-22.45-67.31-29.81-16.29-34.53-35.61S2919,3866,2919,3866Z"/><path class="cls-24" d="M3198.8,3946.61l3.17,13.85s-49.12,40.77-105.88,5.64l2.82-15.2S3133.68,3961.34,3198.8,3946.61Z"/><path class="cls-26" d="M3364.74,1270c22.93-16.4,39.89-48.44,18-72.51-7.3-8,6.12-18.16,13.37-10.2,28.14,30.87,9,74.56-21.12,96.08C3366.15,1289.64,3355.92,1276.28,3364.74,1270Z"/><path class="cls-26" d="M3446.09,1275.27c34.22-21.29,35.61-65.12,4-89.78-8.53-6.66,1.79-20,10.35-13.26,39.47,30.83,39.38,89.3-4.19,116.41C3447.17,1294.32,3436.89,1281,3446.09,1275.27Z"/><path class="cls-24" d="M3032.11,1299.07a88.48,88.48,0,0,1,47.62,22.69c3.61,3.37,7.05,7.23,8.37,12,5.31,19.2-18,22.57-30.81,18.46a106.93,106.93,0,0,1-38.82-22.38c-3.3-3-6.48-6.25-8.42-10.26s-2.51-8.89-.56-12.9C3013.21,1299,3023.67,1297.88,3032.11,1299.07Z"/></svg>