<svg id="Слой_1" data-name="Слой 1" xmlns="http://www.w3.org/2000/svg" viewBox="0 0 4826.59 3016.62"><defs><style>.cls-1{fill:#cce2ff;}.cls-2{fill:#d5e5fb;}.cls-3{fill:#f37168;}.cls-4{fill:#e2915a;}.cls-5{fill:#d54a41;}.cls-6{fill:#75a1de;}.cls-7{fill:#ffb27d;}.cls-8{fill:#fff;}.cls-9{fill:#ed975d;}.cls-10{fill:#233862;}.cls-11{fill:#2b478b;}.cls-12{fill:#f99746;}.cls-13{fill:#ed7d2b;}.cls-14{fill:#e9f3fe;}.cls-15{fill:#d9e9f9;}.cls-16{fill:#ba4c43;}.cls-17{fill:#c65447;}.cls-18{fill:#c6dcf7;}.cls-19{opacity:0.8;}.cls-20{fill:#9ec8ff;}.cls-21{fill:#74b570;}.cls-22{fill:#9cd499;}</style></defs><path class="cls-1" d="M4444.09,2768.51c-343.65-16.8-1512.69,11.66-1868.23,22.76s-768.25-14.64-982.62-52.49-1453.56,3.23-1397.33,105,552.11,45.51,1114.45,86.41,1827-5.11,2112.31,0,546.87-10.23,914.51-30.67S4643.29,2778.25,4444.09,2768.51Z"/><path class="cls-2" d="M4073,1566.84,2857.25,2697.67l-625.89-592.79c-117.18,114.72-298.14,291.79-480.19,469.47-124.41,121.44-225.13,219.56-306.77,299l-568.55-.65c157.68-149.27,792.57-769.56,1220.29-1188.76l130.78-128.17L2859.63,2155l928.87-864Z"/><polygon class="cls-2" points="3637.91 1154.9 4210.87 1757.81 4325.46 1069.7 3637.91 1154.9"/><path class="cls-3" d="M2854.17,1113.32l-83.27,158-42.72-15.54,13.87,42.16-83.5,251.53S2612.37,1229.91,2854.17,1113.32Z"/><path class="cls-3" d="M2715.25,1253s-92.09,339.51-101,663.48c0,0,76.39,26.63,196.38,5.54C2931.27,1900.87,2715.25,1253,2715.25,1253Z"/><path class="cls-4" d="M2274.27,1723.8c24.72-.46,59.52,2.59,71-10,13-14.26,28.41-12.17,28.41-12.17l-3.11-16.29-3.73-19.47s-1.4-1.77-6.47-1.71c0,0-17.91.77-26.46-2.28-20.81-7.44-103.62,42.18-100.84,55.95C2234.14,1723,2263.75,1724,2274.27,1723.8Z"/><path class="cls-3" d="M2725.63,1246.37s-139.89,289-183.19,320-197.61,98.08-197.61,98.08-4,9.61-.3,23.68c3.9,14.65,11.6,18.79,11.6,18.79s215.77-19.26,265.94-50.48,160.78-155.69,160.78-155.69Z"/><path class="cls-5" d="M3135.1,2866.47h82.79c10.43-5.66,19.71-18.62,22.65-37.94,4-26.67,33.94-41.22,40.41-63s-26.68-52.51-26.68-52.51l-5.54-7.14-5.76-7.42-55,12.94s-1.36,13.09-2.18,29.76a378.38,378.38,0,0,0-.24,38.12c1.61,29.09-8.14,60.42-34,66.08C3132.49,2849.5,3133.34,2860.84,3135.1,2866.47Z"/><path class="cls-5" d="M2654.59,2866.47h189.34c9.11-11.11,5.76-52.12,4.38-65.51-.29-2.7-.48-4.27-.48-4.27s-64.66-51.72-73.54-12.12c-.27,1.25-.6,2.46-1,3.66-11.19,37-61.38,53.87-90.36,58.56C2664.13,2849.85,2657.16,2859.64,2654.59,2866.47Z"/><path class="cls-6" d="M2690.67,1809.56s9.81,122.49,21.35,269.74c15.69,200,34.55,445.71,36.41,492.26,3.23,80.82,16.17,210.1,16.17,210.1s30.69,30.71,92.12,17.77c0,0,54.74-184.55,70.38-379.82.24-3.2.48-6.43.72-9.65,14.55-198.78,37.17-617.37,37.17-617.37Z"/><path class="cls-6" d="M2690.67,1809.56s9.81,122.49,21.35,269.74l215.08,340.31c.24-3.2.48-6.43.72-9.65,14.55-198.78,37.17-617.37,37.17-617.37Z"/><path class="cls-6" d="M2735.5,1824.11s177,443.62,293.33,652.1,152.72,266.66,152.72,266.66,66.67-26.66,72.73-44.84c0,0-44.5-402.48-122.42-500.6-44-55.44-95.76-221.81-98.19-280s-15.75-173.33-15.75-173.33Z"/><path class="cls-7" d="M2779.55,1177.39c69.16,21.83,188.81-37.06,188.81-37.06s-63.76-47.86-60.42-147.35l-53.47,43.09-36.32,29.26s.15,17.26,4.12,47.5q1.09,8.26,2.58,17.83a12.78,12.78,0,0,1-5.81,12.89C2793.84,1159.14,2779.55,1177.39,2779.55,1177.39Z"/><path class="cls-8" d="M2683,1819.77a11.22,11.22,0,0,0,7.26,2.76c26-.35,101.7,14.08,165.77,7.5,54-5.19,101.83-21.19,153.18-44.21,6.81-3,22.51-11.43,22.15-19-.22-8.35-1.05-20.45-2.1-35.69-3.63-53-10-144.15-3.79-249.31,1.11-19.58,1.69-39,1.77-58.13.53-142.53-27.74-267.89-84.53-310.32,0,0-39.59,22.22-67,31-26.85,8.58-40.69,6.86-54.61-2.38,0,0-27.12,13.47-38.71,26.11-26.84,29.25-47.79,68.08-61.64,123.83-11.78,47.44-22.81,116.61-26.63,205.26C2692.44,1537.29,2681.31,1818.37,2683,1819.77Z"/><path class="cls-3" d="M3018.88,1348.82l-76.13-235.5s-182.75,68.92-191.21,327c-3.33,58.81-17.43,299.8,8.08,499.51,0,0,142.39,55.47,317-54Z"/><path class="cls-9" d="M2818.15,1065.33s.15,17.26,4.12,47.5c40.24-6.91,85.9-72,85.9-72-20.49-5.91-38.43-7-53.7-4.8Z"/><path class="cls-7" d="M2788.2,1063.49s124.56,20.69,136.25-57.08,35.64-127.46-43.39-144-99,10.84-109.2,35.85S2756.1,1056.1,2788.2,1063.49Z"/><path class="cls-10" d="M3334.75,2069.5l-254.31,36.24a61,61,0,0,1-68.76-51.6L2996,1943.93a61,61,0,0,1,51.6-68.76l254.31-36.24a61,61,0,0,1,68.76,51.61l15.7,110.2A61,61,0,0,1,3334.75,2069.5Z"/><path class="cls-11" d="M3029.49,1939.08l15.89,111.48a61.15,61.15,0,0,0,35.92,47.22,59.88,59.88,0,0,0,19.81,5h0a59,59,0,0,0,13.24-.42l253.85-36.18a61.18,61.18,0,0,0,51.79-69l-15.87-111.5a61.21,61.21,0,0,0-69-51.79l-87.41,12.46-3.38-23.78a20.15,20.15,0,0,0-22.77-17.09l-9.58,1.36-53.17,7.58-13.21,1.89a20.12,20.12,0,0,0-17.09,22.76l3.38,23.79-50.64,7.2c-2,.29-4,.67-5.87,1.14a0,0,0,0,1,0,0h0a61.24,61.24,0,0,0-42.13,36.79v0A60.5,60.5,0,0,0,3029.49,1939.08Zm205.76-91-90.84,13-3.38-23.78a7.52,7.52,0,0,1,6.38-8.49l22.81-3.25,41.85-6,11.29-1.6a7.76,7.76,0,0,1,2.26,0,7.55,7.55,0,0,1,6.25,6.35Z"/><path class="cls-7" d="M3141.36,1741.34s13.36,17.79,13.89,24.9c3.59,48.18-18.43,54.84,38.57,81.61,0,0,24.33,9.28,24.75-9.61s-16.89-19.2-13.73-45.65c3.65-30.5,3.28-30.79-16.74-46.72L3174.85,1724Z"/><path class="cls-3" d="M3175.32,1755c-21.47,4.18-44.74,2.49-44.74,2.49s-63.75-196.93-72-214.91-189.34-230.91-189.34-230.91l73.47-198.33s43.1,25.23,88.66,103.84c56.28,97.1,118.15,253.49,129.15,278.9,32.87,76,44.28,246.37,44.28,246.37A82.08,82.08,0,0,1,3175.32,1755Z"/><path class="cls-11" d="M2924.55,998.93s-12.78-2.14-10.72-19.74,2-40.62-12.28-36.33-15,15.75-20.91,9.06-6-34.89-48.58-36.86-59.9,12.87-79.7,4.16-20.85-38.69-20.85-38.69,5.63,10.71,14.14,14.11c0,0-33-45.19,5.21-76.19s77.26-10.7,99.41-9.36c48.78,3,80.29,5.88,96.22,37.94S2955.85,968.08,2924.55,998.93Z"/><path class="cls-7" d="M3162.43,1762.53s-12.86,13.4-13.67,19c-2.61,17.91-8.59,25.64-5.59,27.59,6.23,4.05,14.47-9.21,18.41-21.1S3162.43,1762.53,3162.43,1762.53Z"/><path class="cls-3" d="M2942.75,1113.32l-83.27,158-42.72-15.54,13.87,42.16-83.49,251.53S2701,1229.91,2942.75,1113.32Z"/><path class="cls-8" d="M2779.55,1019.36s4.86,12.82,17,13.16,21.49-11.43,21.49-11.43S2791.69,1015,2779.55,1019.36Z"/><path class="cls-12" d="M2129.64,2211.51l252.9-58.59a61.61,61.61,0,0,0,46-73.71l-25.39-109.6a61.62,61.62,0,0,0-73.71-46l-252.9,58.6a61.6,61.6,0,0,0-46,73.71l25.39,109.59A61.61,61.61,0,0,0,2129.64,2211.51Z"/><path class="cls-13" d="M2354.94,1949.36h0A61.86,61.86,0,0,0,2301.8,1930h-.06c-2,.26-3.95.6-5.95,1.07l-50.35,11.68-5.49-23.66a20.34,20.34,0,0,0-24.4-15.22l-13.14,3-52.88,12.25-9.53,2.21a20.36,20.36,0,0,0-15.22,24.41l5.48,23.65-86.93,20.13a61.86,61.86,0,0,0-46.15,74l25.7,110.87a61.81,61.81,0,0,0,74,46.14l252.45-58.48a60.23,60.23,0,0,0,12.64-4.43h0a60.64,60.64,0,0,0,16.85-11.94,61.78,61.78,0,0,0,16.63-57.61l-25.68-110.86A61.23,61.23,0,0,0,2354.94,1949.36Zm-217.74-6.42a7.62,7.62,0,0,1,5.69-9.11l11.23-2.61,41.62-9.63,22.68-5.26a7.61,7.61,0,0,1,9.11,5.68l5.49,23.65-90.34,20.92Z"/><path class="cls-7" d="M2189.09,1806.72s-7.64,27.09-5,35.72c17.77,58.48,48.49,96.76-34.09,86.88,0,0,3.41-3.38-12.39-33.14-18.24-34.33-17.93-34.83-1.58-62.78l5.64-31.9Z"/><path class="cls-7" d="M2293,1737.07c-24.93-1.51-55.32-8-66.39-21.21-12.56-14.95-25.09-19-25.09-19l3.82-16.33,4.59-19.49s1.49-1.73,6.61-1.46c0,0,19.55,4.43,26.81-1.19s20.53-2.19,28.7,3.24c10.4,6.91,24.43,5.79,24.08,9.17,0,0-20.61,10.13-18.68,11.84,18.87,16.75,68.58,23.42,65.35,36.51C2341.51,1724.34,2303.61,1737.72,2293,1737.07Z"/><path class="cls-7" d="M1945.55,1100.11l-.08,13.56s3.69,42.38-48.5,48.57-95,5.39-93.58-27.32c4.7-25.32,13.13-64.63,13.48-85.58A148.46,148.46,0,0,0,1815,1024l101.13-2,29.79,4.86Z"/><path class="cls-4" d="M1945.93,1026.8l-.38,73.31a85.51,85.51,0,0,1-36.46,8.05c-46.48,0-76.52-34.09-92.22-58.82A148.46,148.46,0,0,0,1815,1024l101.13-2Z"/><path class="cls-7" d="M1807.26,1007.68c11.74,63.15,93.22,61.08,128.43,57.11,9.92-1.1,16.15-2.37,16.15-2.37,11.17-3,17.41-20.58,20.3-43.64,5.75-45.62-1.51-112.59-9.21-129.72-11.6-25.78-33.45-53.65-115.51-33.54S1792.21,926.77,1807.26,1007.68Z"/><path class="cls-5" d="M1740.59,2900.88h115.46a277.78,277.78,0,0,0-9.21-41.45,117.31,117.31,0,0,0-6.54-16.63c-11.23-22.42-82.55-8.16-82.55-8.16s-6.63,5.68-11.8,27.36C1743.66,2871.55,1741.64,2884.22,1740.59,2900.88Z"/><path class="cls-5" d="M2089.51,2864.44c.32,15.71,2.29,30.57,8,36.44h228.39c-2.9-8.27-11.12-20.69-34.57-24.5-26.64-4.31-68.17-17.14-92.42-42.77-8.64-9.11-15.08-19.85-17.89-32.41-10.75-47.84-88.85,14.66-88.85,14.66S2089,2841.05,2089.51,2864.44Z"/><path class="cls-6" d="M1937.6,2323.81c3.18,17.51,5.2,31.88,5.73,42.18,7.27,141.63,119.22,465.44,139.24,473,31,11.69,79.78-13.16,105.31-21.29,10.57-3.38,17.71-14.05,15.36-24.87-55.44-254.88-75.82-621.89-83.23-839.17-3.75-109.45-22.53-185.05-22.53-185.05s-273-72.85-274.67,19.3C1821.37,1869.45,1913.25,2189.27,1937.6,2323.81Z"/><path class="cls-6" d="M1937.6,2323.81,2120,1953.65c-3.75-109.45-22.53-185.05-22.53-185.05s-273-72.85-274.67,19.3C1821.37,1869.45,1913.25,2189.27,1937.6,2323.81Z"/><path class="cls-6" d="M1998.35,1788.23,1854,2834.39s-63.39,15.29-112.69,3.06c0,0-42.26-556.4-38.74-690.91s-30.33-359.94,7.73-384.8S1998.35,1788.23,1998.35,1788.23Z"/><path class="cls-10" d="M1966.09,898.94c-22.55,7.1-70.23-.15-90.16,16s-1,42.72-23.73,52.21l-.09,0a11.26,11.26,0,0,1-13.09-3.28c-6.3-7.88-15-15.73-23-12.48-6.55,2.68-6.88,11.14-4,19.36a22.89,22.89,0,0,1-2.45,20.68c-1.81,2.6-3,5.44-2.48,8.32,1.89,10.43,7.07,24,9,30.91l.53,7.28s-38.16-41.31-54.24-76.07c-11-23.86-10.8-113,43.15-139.06a1.93,1.93,0,0,1-.52-.59c-1.16-2.08-4.41-1.61-4.41-1.61,4.64-2.09,11.84-.77,11.84-.77-.16-.11.13-.44.78-.94.94-6.3,7.29-10.81,7.29-10.81a21.19,21.19,0,0,0-3.45,8.53c14.17-7.47,57.79-24,92.36-9a288.73,288.73,0,0,0,59.4,18.4,24.77,24.77,0,0,1,20.06,25.23C1988.2,868.42,1982.24,893.05,1966.09,898.94Z"/><path class="cls-14" d="M1791.08,1153.1l33.24,713.06s277.37,4.54,269.45-58.23-100-633-100-633"/><path class="cls-3" d="M1882.52,1599.77s-14.08,190.45-41.13,310c0,0-161.86,8.59-200.27-53.91,0,0,30.4-257.28,30.4-309.46,0-18.35-1.41-43.28-3.65-71.16-3.36-42.22-8.59-91.13-13.54-133.74-6.89-59.33-13.21-106.49-13.21-106.49l133.45-108.45Z"/><path class="cls-3" d="M2203.69,1825.11s-30.2,18.9-77.75,12.56c-17.31,42.45-58.14,56.87-58.14,53,0-.47-9.16-80.17-20-174.1-1.06-9.39-2.15-18.91-3.26-28.49-.09-.83-.2-1.64-.29-2.47-1.82-15.73-3.64-31.64-5.48-47.48-13-113.13-25.54-221.57-25.54-221.57-28.38-173.75-52.41-288.58-52.41-288.58,60.55,6.3,101.4,27.87,117.71,56.12,48.33,83.77,83.33,293.28,103.83,450.12q.06.6.15,1.2c3.53,27.07,6.64,52.57,9.28,75.54.18,1.44.33,2.86.49,4.25C2199.83,1781,2203.69,1825.11,2203.69,1825.11Z"/><path class="cls-8" d="M1922.89,1018.07s2.64,8.15,23.19,5.17c0,0,17.26-2.49,16-11.58C1962.07,1011.66,1944.71,1006.55,1922.89,1018.07Z"/><path class="cls-15" d="M1783.22,1125.73c-.33-6.81,31.9-16.21,31.9-16.21s36.89,51.15,97.67,52c0,0-17.32,33.71-37.73,42.44C1875.06,1204,1785.23,1166.14,1783.22,1125.73Z"/><path class="cls-15" d="M1912.79,1160.36s32.2-19.09,32.31-39.78c0,0,20.8-2.61,29.89,7.48,0,0,7.63,35.47-2.5,56.07C1972.49,1184.13,1926.12,1177.06,1912.79,1160.36Z"/><path class="cls-16" d="M1890.94,1157.29l43.66-10.46s5.7.49,5.55,7.6-12.3,27.9-17.68,29.56S1880.61,1171.68,1890.94,1157.29Z"/><path class="cls-14" d="M1788.31,1122.22c-.34-6.81,21.48-20.83,21.48-20.83s42.22,49.35,103,50.24c0,0-17.32,33.71-37.73,42.44C1875.06,1194.07,1790.32,1162.63,1788.31,1122.22Z"/><path class="cls-14" d="M1912.79,1151.63s32.57-17.27,32.68-38c0,0,19.66,8.65,28.74,18.73,0,0,8.41,22.39-1.72,43C1972.49,1175.39,1926.12,1168.33,1912.79,1151.63Z"/><path class="cls-17" d="M1992.61,1749.55c-1.68,20.44-9.51,39.56-22,53.61l-19.56,22.09c-4.91,5.54-12.55,4.87-16.57-1.44l-23.61-37c-6.34-9.93-9.23-22.56-8.13-35.25,2.52-28.26,7.22-82.72,11.07-135.28,3.13-42.58,5.71-83.94,6.12-109.09,1.3-80.3-9.22-336.19-9.22-336.19l15.69.82s38,98.93,57.16,233.91c4.71,33.23,8.26,68.62,9.83,105.3C1993.43,1511,2000.21,1657.13,1992.61,1749.55Z"/><path class="cls-16" d="M1992.61,1749.55c-1.68,20.44-9.51,39.56-22,53.61l-19.56,22.09c-4.91,5.54-12.55,4.87-16.57-1.44l-23.61-37c-6.34-9.93-9.23-22.56-8.13-35.25,2.52-28.26,7.22-82.72,11.07-135.28,44-60.27,62.35-143.07,69.75-210.55,4.71,33.23,8.26,68.62,9.83,105.3C1993.43,1511,2000.21,1657.13,1992.61,1749.55Z"/><path class="cls-3" d="M1809.79,1101.39s86.44,362.07,72.69,498.47c0,0-31.79-145.76-108.28-265.14,0,0,27.92-24.55,26.4-33.6,0,0-20.72-6.14-40.82-2,0,0,2.22-156.07,14.76-172.56S1809.79,1101.39,1809.79,1101.39Z"/><path class="cls-3" d="M1945.47,1113.67c-13,1,85.67,353.81,93,466.88,0,0-8.67-201.78-7.81-259.93,0,0-35.91-19-35.91-25.68s38.31-24.7,38.31-24.7-24.26-124.26-37.5-138S1945.47,1113.67,1945.47,1113.67Z"/><path class="cls-7" d="M2126,1852s-6,8.1-2.18,28.46,1.71,31.58,7,28.07,16.14-28,16.14-28Z"/><path class="cls-3" d="M1872,1655.56c-100.64-15-167.94-109.07-204.09-180.3-3.36-42.22-8.59-91.13-13.54-133.74l23.54-67.18Z"/><path class="cls-3" d="M2192.29,1715.24c-20,4.64-80.84,16-144.48,1.36-1.06-9.39-2.15-18.91-3.26-28.49-.09-.83-.2-1.64-.29-2.47l6.28-24.49c36,12.89,116.5,41.14,141.26,49.84C2192,1712.43,2192.13,1713.85,2192.29,1715.24Z"/><path class="cls-3" d="M1774.54,1126.55s-88.44,11.17-128.8,67.52,46.32,363.21,226.22,461.48c86.54,47.27,336.25,57.92,336.25,57.92s13.72,1.38,19.17-26.26c1.9-9.63,0-26.07,0-26.07s-284.25-106.57-309.24-127.09S1774.54,1126.55,1774.54,1126.55Z"/><path class="cls-4" d="M2333.92,1661.9s-29.74-7.46-38.26-9.26c-9.95-2.1-19.06-9.59-22-6.06-5.39,6.55,17.37,18.08,26.35,38.33,4.41,9.94,13.29,15.34,31.07,8C2340.07,1689.27,2347.2,1670.7,2333.92,1661.9Z"/><circle class="cls-2" cx="3306.14" cy="935.26" r="129.14" transform="translate(-51.73 207.24) rotate(-3.56)"/><path class="cls-8" d="M3264.69,883.45a41.45,41.45,0,1,1,41.45,41.45A41.45,41.45,0,0,1,3264.69,883.45Z"/><path class="cls-8" d="M3306.14,924.9a72.53,72.53,0,0,0-72.54,72.53h145.07A72.53,72.53,0,0,0,3306.14,924.9Z"/><circle class="cls-18" cx="2351.63" cy="591.7" r="87.12" transform="translate(1235.47 2744.47) rotate(-76.72)"/><path class="cls-8" d="M2323.67,556.75a28,28,0,1,1,28,28A28,28,0,0,1,2323.67,556.75Z"/><path class="cls-8" d="M2351.63,584.71a48.93,48.93,0,0,0-48.94,48.93h97.87A48.93,48.93,0,0,0,2351.63,584.71Z"/><path class="cls-2" d="M2972.81,154.3a7.58,7.58,0,1,1,5,9.48A7.58,7.58,0,0,1,2972.81,154.3Z"/><path class="cls-2" d="M3006.35,164.62a7.59,7.59,0,1,1,5,9.48A7.59,7.59,0,0,1,3006.35,164.62Z"/><path class="cls-2" d="M3045.35,184.55a7.58,7.58,0,1,1,9.48-5A7.59,7.59,0,0,1,3045.35,184.55Z"/><path class="cls-2" d="M3074.32,185.53a7.58,7.58,0,1,1,5,9.48A7.58,7.58,0,0,1,3074.32,185.53Z"/><path class="cls-2" d="M3107.86,195.85a7.58,7.58,0,1,1,5,9.48A7.59,7.59,0,0,1,3107.86,195.85Z"/><path class="cls-2" d="M3146.86,215.79a7.59,7.59,0,1,1,9.48-5A7.6,7.6,0,0,1,3146.86,215.79Z"/><path class="cls-2" d="M3174.46,216.34a7.59,7.59,0,1,1,5,9.48A7.58,7.58,0,0,1,3174.46,216.34Z"/><path class="cls-2" d="M3208,226.67a7.58,7.58,0,1,1,5,9.47A7.57,7.57,0,0,1,3208,226.67Z"/><path class="cls-2" d="M3247,246.6a7.59,7.59,0,1,1,9.48-5A7.58,7.58,0,0,1,3247,246.6Z"/><path class="cls-2" d="M3276,247.58a7.59,7.59,0,1,1,5,9.48A7.59,7.59,0,0,1,3276,247.58Z"/><path class="cls-2" d="M3309.52,257.9a7.58,7.58,0,1,1,5,9.48A7.59,7.59,0,0,1,3309.52,257.9Z"/><path class="cls-2" d="M3348.52,277.83a7.58,7.58,0,1,1,9.48-5A7.58,7.58,0,0,1,3348.52,277.83Z"/><path class="cls-2" d="M3377.57,278.84a7.59,7.59,0,1,1,5,9.48A7.58,7.58,0,0,1,3377.57,278.84Z"/><path class="cls-2" d="M3411.11,289.16a7.59,7.59,0,1,1,5,9.48A7.58,7.58,0,0,1,3411.11,289.16Z"/><path class="cls-2" d="M3450.11,309.09a7.58,7.58,0,1,1,9.48-5A7.57,7.57,0,0,1,3450.11,309.09Z"/><path class="cls-2" d="M3479.08,310.07a7.59,7.59,0,1,1,5,9.48A7.59,7.59,0,0,1,3479.08,310.07Z"/><path class="cls-2" d="M3512.62,320.39a7.59,7.59,0,1,1,5,9.48A7.59,7.59,0,0,1,3512.62,320.39Z"/><path class="cls-2" d="M3551.62,340.33a7.59,7.59,0,1,1,9.48-5A7.6,7.6,0,0,1,3551.62,340.33Z"/><path class="cls-2" d="M3579.23,340.88a7.59,7.59,0,1,1,5,9.48A7.57,7.57,0,0,1,3579.23,340.88Z"/><path class="cls-2" d="M3612.77,351.2a7.59,7.59,0,1,1,5,9.48A7.58,7.58,0,0,1,3612.77,351.2Z"/><path class="cls-2" d="M3651.77,371.14a7.59,7.59,0,1,1,9.48-5A7.58,7.58,0,0,1,3651.77,371.14Z"/><path class="cls-2" d="M3680.74,372.12a7.59,7.59,0,1,1,5,9.48A7.58,7.58,0,0,1,3680.74,372.12Z"/><path class="cls-2" d="M3714.28,382.44a7.59,7.59,0,1,1,5,9.48A7.58,7.58,0,0,1,3714.28,382.44Z"/><path class="cls-2" d="M3753.28,402.37a7.58,7.58,0,1,1,9.48-5A7.59,7.59,0,0,1,3753.28,402.37Z"/><path class="cls-2" d="M3396.63,803.14a7.58,7.58,0,1,1,10.6-1.64A7.59,7.59,0,0,1,3396.63,803.14Z"/><path class="cls-2" d="M3417.37,774.83a7.58,7.58,0,1,1,10.6-1.64A7.58,7.58,0,0,1,3417.37,774.83Z"/><path class="cls-2" d="M3449,744.51a7.59,7.59,0,1,1-1.64-10.6A7.58,7.58,0,0,1,3449,744.51Z"/><path class="cls-2" d="M3459.39,717.46a7.58,7.58,0,1,1,10.6-1.63A7.58,7.58,0,0,1,3459.39,717.46Z"/><path class="cls-2" d="M3480.13,689.15a7.58,7.58,0,1,1,10.6-1.63A7.59,7.59,0,0,1,3480.13,689.15Z"/><path class="cls-2" d="M3511.74,658.83a7.58,7.58,0,1,1-1.64-10.6A7.59,7.59,0,0,1,3511.74,658.83Z"/><path class="cls-2" d="M3522.21,631.71a7.58,7.58,0,1,1,10.6-1.63A7.59,7.59,0,0,1,3522.21,631.71Z"/><path class="cls-2" d="M3542.94,603.4a7.58,7.58,0,1,1,10.6-1.63A7.59,7.59,0,0,1,3542.94,603.4Z"/><path class="cls-2" d="M3574.56,573.08a7.58,7.58,0,1,1-1.64-10.6A7.59,7.59,0,0,1,3574.56,573.08Z"/><path class="cls-2" d="M3585,546a7.58,7.58,0,1,1,10.6-1.64A7.59,7.59,0,0,1,3585,546Z"/><path class="cls-2" d="M3605.71,517.72a7.58,7.58,0,1,1,10.6-1.63A7.58,7.58,0,0,1,3605.71,517.72Z"/><path class="cls-2" d="M3637.32,487.41a7.58,7.58,0,1,1-1.64-10.6A7.59,7.59,0,0,1,3637.32,487.41Z"/><path class="cls-2" d="M3646.89,461.51a7.58,7.58,0,1,1,10.6-1.64A7.58,7.58,0,0,1,3646.89,461.51Z"/><path class="cls-2" d="M3667.63,433.2a7.58,7.58,0,1,1,10.6-1.64A7.59,7.59,0,0,1,3667.63,433.2Z"/><path class="cls-2" d="M3699.24,402.88a7.58,7.58,0,1,1-1.63-10.6A7.58,7.58,0,0,1,3699.24,402.88Z"/><path class="cls-2" d="M3709.65,375.83a7.58,7.58,0,1,1,10.61-1.64A7.59,7.59,0,0,1,3709.65,375.83Z"/><path class="cls-2" d="M3730.39,347.52a7.59,7.59,0,1,1,10.6-1.64A7.59,7.59,0,0,1,3730.39,347.52Z"/><path class="cls-2" d="M3762,317.2a7.58,7.58,0,1,1-1.63-10.6A7.58,7.58,0,0,1,3762,317.2Z"/><path class="cls-2" d="M3459.39,922a7.59,7.59,0,1,1,8.71,6.25A7.59,7.59,0,0,1,3459.39,922Z"/><path class="cls-2" d="M3494,916.31a7.58,7.58,0,1,1,8.71,6.26A7.6,7.6,0,0,1,3494,916.31Z"/><path class="cls-2" d="M3537.82,916.82a7.58,7.58,0,1,1,6.26-8.72A7.6,7.6,0,0,1,3537.82,916.82Z"/><path class="cls-2" d="M3564.2,904.81a7.59,7.59,0,1,1,8.71,6.25A7.57,7.57,0,0,1,3564.2,904.81Z"/><path class="cls-2" d="M3598.83,899.13a7.58,7.58,0,1,1,8.71,6.26A7.59,7.59,0,0,1,3598.83,899.13Z"/><path class="cls-2" d="M3642.63,899.63a7.58,7.58,0,1,1,6.26-8.71A7.58,7.58,0,0,1,3642.63,899.63Z"/><path class="cls-2" d="M3669.1,887.61a7.58,7.58,0,1,1,8.71,6.26A7.58,7.58,0,0,1,3669.1,887.61Z"/><path class="cls-2" d="M3703.73,881.94a7.59,7.59,0,1,1,8.71,6.25A7.59,7.59,0,0,1,3703.73,881.94Z"/><path class="cls-2" d="M3747.53,882.44a7.59,7.59,0,1,1,6.25-8.71A7.57,7.57,0,0,1,3747.53,882.44Z"/><path class="cls-2" d="M3773.9,870.43a7.58,7.58,0,1,1,8.71,6.26A7.6,7.6,0,0,1,3773.9,870.43Z"/><path class="cls-2" d="M3808.53,864.75a7.58,7.58,0,1,1,8.72,6.26A7.6,7.6,0,0,1,3808.53,864.75Z"/><path class="cls-2" d="M3852.33,865.26a7.58,7.58,0,1,1,6.26-8.71A7.58,7.58,0,0,1,3852.33,865.26Z"/><path class="cls-2" d="M3877.31,853.48a7.58,7.58,0,1,1,8.71,6.26A7.58,7.58,0,0,1,3877.31,853.48Z"/><path class="cls-2" d="M3911.94,847.8a7.58,7.58,0,1,1,8.71,6.26A7.58,7.58,0,0,1,3911.94,847.8Z"/><path class="cls-2" d="M3955.74,848.31a7.59,7.59,0,1,1,6.25-8.71A7.59,7.59,0,0,1,3955.74,848.31Z"/><path class="cls-2" d="M3982.11,836.3a7.58,7.58,0,1,1,8.71,6.26A7.59,7.59,0,0,1,3982.11,836.3Z"/><path class="cls-2" d="M4016.75,830.62a7.58,7.58,0,1,1,8.71,6.26A7.58,7.58,0,0,1,4016.75,830.62Z"/><path class="cls-2" d="M4060.54,831.13a7.58,7.58,0,1,1,6.26-8.71A7.58,7.58,0,0,1,4060.54,831.13Z"/><path class="cls-2" d="M3260.05,783.65a7.58,7.58,0,1,1,4.92-9.53A7.58,7.58,0,0,1,3260.05,783.65Z"/><path class="cls-2" d="M3249.37,750.22a7.59,7.59,0,1,1,4.91-9.53A7.59,7.59,0,0,1,3249.37,750.22Z"/><path class="cls-2" d="M3243.46,706.82a7.59,7.59,0,1,1-9.54-4.91A7.59,7.59,0,0,1,3243.46,706.82Z"/><path class="cls-2" d="M3227.71,682.49a7.59,7.59,0,1,1,4.92-9.54A7.59,7.59,0,0,1,3227.71,682.49Z"/><path class="cls-2" d="M3217,649.06a7.59,7.59,0,1,1,4.91-9.53A7.6,7.6,0,0,1,3217,649.06Z"/><path class="cls-2" d="M3211.11,605.66a7.58,7.58,0,1,1-9.53-4.91A7.57,7.57,0,0,1,3211.11,605.66Z"/><path class="cls-2" d="M3195.35,581.24a7.59,7.59,0,1,1,4.91-9.53A7.6,7.6,0,0,1,3195.35,581.24Z"/><path class="cls-2" d="M3184.66,547.81a7.59,7.59,0,1,1,4.91-9.53A7.57,7.57,0,0,1,3184.66,547.81Z"/><path class="cls-2" d="M3178.75,504.41a7.59,7.59,0,1,1-9.54-4.91A7.59,7.59,0,0,1,3178.75,504.41Z"/><path class="cls-2" d="M3163,480.08a7.59,7.59,0,1,1,4.91-9.54A7.6,7.6,0,0,1,3163,480.08Z"/><path class="cls-2" d="M3152.32,446.65a7.59,7.59,0,1,1,4.91-9.53A7.59,7.59,0,0,1,3152.32,446.65Z"/><path class="cls-2" d="M3146.41,403.25a7.59,7.59,0,1,1-9.54-4.92A7.59,7.59,0,0,1,3146.41,403.25Z"/><path class="cls-2" d="M3131.1,380.27a7.59,7.59,0,1,1,4.91-9.53A7.57,7.57,0,0,1,3131.1,380.27Z"/><path class="cls-2" d="M3120.41,346.84a7.58,7.58,0,1,1,4.92-9.53A7.58,7.58,0,0,1,3120.41,346.84Z"/><path class="cls-2" d="M3114.5,303.44a7.59,7.59,0,1,1-9.53-4.91A7.59,7.59,0,0,1,3114.5,303.44Z"/><path class="cls-2" d="M3098.76,279.11a7.59,7.59,0,1,1,4.91-9.53A7.59,7.59,0,0,1,3098.76,279.11Z"/><path class="cls-2" d="M3088.07,245.68a7.59,7.59,0,1,1,4.92-9.53A7.57,7.57,0,0,1,3088.07,245.68Z"/><path class="cls-2" d="M3082.16,202.28a7.59,7.59,0,1,1-9.53-4.91A7.57,7.57,0,0,1,3082.16,202.28Z"/><path class="cls-2" d="M2400.14,549.17a7.58,7.58,0,1,1,10.55,1.93A7.59,7.59,0,0,1,2400.14,549.17Z"/><path class="cls-2" d="M2429,529.23a7.59,7.59,0,1,1,10.55,1.94A7.58,7.58,0,0,1,2429,529.23Z"/><path class="cls-2" d="M2468.84,511a7.58,7.58,0,1,1,1.93-10.55A7.59,7.59,0,0,1,2468.84,511Z"/><path class="cls-2" d="M2487.55,488.84a7.58,7.58,0,1,1,10.55,1.93A7.59,7.59,0,0,1,2487.55,488.84Z"/><path class="cls-2" d="M2516.43,468.9a7.58,7.58,0,1,1,10.55,1.94A7.59,7.59,0,0,1,2516.43,468.9Z"/><path class="cls-2" d="M2556.24,450.64a7.58,7.58,0,1,1,1.94-10.55A7.58,7.58,0,0,1,2556.24,450.64Z"/><path class="cls-2" d="M2575,428.46a7.58,7.58,0,1,1,10.55,1.93A7.59,7.59,0,0,1,2575,428.46Z"/><path class="cls-2" d="M2603.91,408.52a7.59,7.59,0,1,1,10.55,1.93A7.58,7.58,0,0,1,2603.91,408.52Z"/><path class="cls-2" d="M2643.72,390.26a7.59,7.59,0,1,1,1.94-10.55A7.58,7.58,0,0,1,2643.72,390.26Z"/><path class="cls-2" d="M2662.44,368.13a7.58,7.58,0,1,1,10.55,1.93A7.58,7.58,0,0,1,2662.44,368.13Z"/><path class="cls-2" d="M2691.32,348.19a7.58,7.58,0,1,1,10.55,1.93A7.59,7.59,0,0,1,2691.32,348.19Z"/><path class="cls-2" d="M2731.13,329.93a7.59,7.59,0,1,1,1.93-10.55A7.58,7.58,0,0,1,2731.13,329.93Z"/><path class="cls-2" d="M2748.67,308.61a7.58,7.58,0,1,1,10.55,1.93A7.58,7.58,0,0,1,2748.67,308.61Z"/><path class="cls-2" d="M2777.55,288.67a7.59,7.59,0,1,1,10.55,1.93A7.58,7.58,0,0,1,2777.55,288.67Z"/><path class="cls-2" d="M2817.37,270.41a7.59,7.59,0,1,1,1.93-10.55A7.59,7.59,0,0,1,2817.37,270.41Z"/><path class="cls-2" d="M2836.08,248.28a7.58,7.58,0,1,1,10.55,1.93A7.59,7.59,0,0,1,2836.08,248.28Z"/><path class="cls-2" d="M2865,228.34a7.59,7.59,0,1,1,10.55,1.93A7.59,7.59,0,0,1,2865,228.34Z"/><path class="cls-2" d="M2904.77,210.08a7.59,7.59,0,1,1,1.94-10.55A7.59,7.59,0,0,1,2904.77,210.08Z"/><path class="cls-2" d="M3850.16,445.45a7.59,7.59,0,1,1-.23,10.72A7.59,7.59,0,0,1,3850.16,445.45Z"/><path class="cls-2" d="M3874.44,470.79a7.59,7.59,0,1,1-.23,10.72A7.59,7.59,0,0,1,3874.44,470.79Z"/><path class="cls-2" d="M3898.81,507.19a7.58,7.58,0,1,1,10.72.23A7.58,7.58,0,0,1,3898.81,507.19Z"/><path class="cls-2" d="M3923.64,522.14a7.58,7.58,0,1,1-.23,10.72A7.58,7.58,0,0,1,3923.64,522.14Z"/><path class="cls-2" d="M3947.92,547.48a7.58,7.58,0,1,1-.23,10.72A7.58,7.58,0,0,1,3947.92,547.48Z"/><path class="cls-2" d="M3972.29,583.88a7.59,7.59,0,1,1,10.72.23A7.57,7.57,0,0,1,3972.29,583.88Z"/><path class="cls-2" d="M3997.18,598.89a7.59,7.59,0,1,1-.23,10.73A7.59,7.59,0,0,1,3997.18,598.89Z"/><path class="cls-2" d="M4021.45,624.24a7.59,7.59,0,1,1-.23,10.72A7.59,7.59,0,0,1,4021.45,624.24Z"/><path class="cls-2" d="M4045.82,660.63a7.59,7.59,0,1,1,10.73.23A7.59,7.59,0,0,1,4045.82,660.63Z"/><path class="cls-2" d="M4070.65,675.58a7.59,7.59,0,1,1-.23,10.73A7.59,7.59,0,0,1,4070.65,675.58Z"/><path class="cls-2" d="M4094.93,700.92a7.59,7.59,0,1,1-.23,10.73A7.59,7.59,0,0,1,4094.93,700.92Z"/><path class="cls-2" d="M4119.3,737.32a7.58,7.58,0,1,1,10.72.23A7.57,7.57,0,0,1,4119.3,737.32Z"/><circle class="cls-2" cx="3034.18" cy="164.11" r="107.33" transform="translate(2386.16 3132.82) rotate(-80.78)"/><path class="cls-8" d="M2999.73,121.05a34.45,34.45,0,1,1,34.45,34.45A34.44,34.44,0,0,1,2999.73,121.05Z"/><path class="cls-8" d="M3034.18,155.5a60.29,60.29,0,0,0-60.29,60.29h120.57A60.28,60.28,0,0,0,3034.18,155.5Z"/><circle class="cls-18" cx="3777.82" cy="353.43" r="165.38" transform="translate(2917.39 4048.9) rotate(-82.24)"/><circle class="cls-8" cx="3777.82" cy="287.08" r="53.08"/><path class="cls-8" d="M3777.82,340.16a92.9,92.9,0,0,0-92.9,92.9h185.79A92.89,92.89,0,0,0,3777.82,340.16Z"/><circle class="cls-2" cx="4191.85" cy="806.63" r="111.65" transform="translate(2976.08 4898.6) rotate(-84.34)"/><path class="cls-8" d="M4205.08,833.19a17.4,17.4,0,0,0-.88-6.05,12.76,12.76,0,0,0-3.09-4.78,23.93,23.93,0,0,0-5.61-4,62.77,62.77,0,0,0-8.42-3.63,164,164,0,0,1-15.54-6.55,52.09,52.09,0,0,1-11.92-7.8,30.76,30.76,0,0,1-7.63-10.23,34.82,34.82,0,0,1,.08-26.44,29.18,29.18,0,0,1,7.17-9.85,36.36,36.36,0,0,1,11-6.73A48.49,48.49,0,0,1,4184.6,744l.25-17.46,14,.2-.26,17.71a43.49,43.49,0,0,1,13.65,4.19,33.08,33.08,0,0,1,16.8,19.47,44.06,44.06,0,0,1,2.11,14.76l-25.38-.37q.14-9.8-4.13-14.71t-11.57-5a18.79,18.79,0,0,0-6.82,1,12.71,12.71,0,0,0-4.75,2.95,12.09,12.09,0,0,0-2.79,4.49,17.55,17.55,0,0,0-1,5.61,16.35,16.35,0,0,0,.8,5.48,11.84,11.84,0,0,0,3,4.57,24,24,0,0,0,5.65,4,79.81,79.81,0,0,0,8.77,3.92q8.48,3.32,15.41,6.76a52.46,52.46,0,0,1,11.87,7.88,31.21,31.21,0,0,1,7.63,10.27,34.89,34.89,0,0,1-.12,26.6,29,29,0,0,1-7.22,9.77,35.31,35.31,0,0,1-11.12,6.53A52.58,52.58,0,0,1,4195,865.6l-.23,16.24-14-.21.24-16.15a58.84,58.84,0,0,1-14-3.39,37,37,0,0,1-12-7.23,33.24,33.24,0,0,1-8.26-11.75,40.43,40.43,0,0,1-2.92-16.85l25.38.37a25.14,25.14,0,0,0,1.48,9.69,16.35,16.35,0,0,0,4.26,6.27,15.83,15.83,0,0,0,6.14,3.35,27.21,27.21,0,0,0,7.06,1,22.41,22.41,0,0,0,7.26-1,14.89,14.89,0,0,0,5.27-2.86,12,12,0,0,0,3.23-4.4A14.72,14.72,0,0,0,4205.08,833.19Z"/><g class="cls-19"><path class="cls-20" d="M842.06,757.43H795.37a32.73,32.73,0,0,1-32.69-32.69V678.05a32.73,32.73,0,0,1,32.69-32.69h46.69a32.73,32.73,0,0,1,32.69,32.69v46.69A32.73,32.73,0,0,1,842.06,757.43Zm-46.69-99.2a19.85,19.85,0,0,0-19.83,19.82v46.69a19.86,19.86,0,0,0,19.83,19.83h46.69a19.85,19.85,0,0,0,19.82-19.83V678.05a19.84,19.84,0,0,0-19.82-19.82Z"/></g><g class="cls-19"><path class="cls-20" d="M622.39,757.43H575.7A32.73,32.73,0,0,1,543,724.74V678.05a32.73,32.73,0,0,1,32.69-32.69h46.69a32.73,32.73,0,0,1,32.69,32.69v46.69A32.72,32.72,0,0,1,622.39,757.43Zm-46.69-99.2a19.84,19.84,0,0,0-19.82,19.82v46.69a19.85,19.85,0,0,0,19.82,19.83h46.69a19.86,19.86,0,0,0,19.83-19.83V678.05a19.85,19.85,0,0,0-19.83-19.82Z"/></g><path class="cls-3" d="M602,730.25h-.26a5.51,5.51,0,0,1-4.11-2.16L564,684.33a5.52,5.52,0,0,1,8.76-6.71l29.59,38.6,77.25-82.78a5.52,5.52,0,1,1,8.06,7.53L606,728.5A5.53,5.53,0,0,1,602,730.25Z"/><path class="cls-21" d="M920.38,1916.88c58.6,53.5,33.12,107-10.19,206.37s-51,466.23-51,466.23l35.67-5.1s-5.09-377.06,43.31-479,68.79-152.86,112.1-119.74S920.38,1916.88,920.38,1916.88Z"/><path class="cls-22" d="M888.19,1847.61c7.12-31.71,49.38-66,105.89-95.11-8.4,46.76-35.34,123.22-7.46,138.91,37.6,21.15,3.66-85.61,18.17-144.29,53.07-25.91,116.9-47.09,175.69-57.63-.08.22-.15.43-.24.65-33.12,84.07-76.43,117.19-58.59,129.93,13.41,9.58,57.12-87.53,114.82-137.32,43.32-2.31,80,3.57,101.64,20.73,33.51,26.53,56,50.06,22.3,130.84-19.25,13.75-44.19,23.62-73.16,26.51-76.43,7.65-112.1,10.19-58.6,35.67,26.2,12.48,70.11-.7,105.72-8.73-11.55,21.28-25.75,45.37-43,72.81a270.22,270.22,0,0,1-35.81,45.57c-24.64,4.72-46.11,4.77-57.48-.1-35.67-15.28-127.39-63.69-150.32-43.31-22.44,20,169.86,32.58,156.54,83.28-93.21,53.7-199.87,28.15-218.72-21.16C960.26,1958.63,866.76,1943.05,888.19,1847.61Z"/><path class="cls-21" d="M1080.88,2209.87c-101.9-76.43-206.36-5.1-259.86,76.43s-15.29,265-15.29,265,20.38,0,20.38-7.64-56.05-216.56,76.43-310.82c82.88-59,142.68-30.57,150.32-2.55s-33.12,79-33.12,79Z"/><path class="cls-22" d="M846.5,2052.76c101.9,0,135,158,107,249.67s-66.24,262.42-66.24,262.42l-25.48-25.48s96.81-239.48,73.89-346.49S856.69,2068,846.5,2068,846.5,2052.76,846.5,2052.76Z"/><path class="cls-21" d="M932,2303.14a73.86,73.86,0,0,1,26.82-22.54,199,199,0,0,1-5.29,21.83c-12.77,41.79-27.65,100-40.07,150.93-1.13-6.52-2.87-16.58-5.56-32.1-.63-3.66-1.13-7.64-1.48-11.85C916.37,2375.46,925.8,2338.49,932,2303.14Z"/><path class="cls-22" d="M959.83,2303.91c193.63-81.53,91.61-193.4,262.31-119.52,12,5.21,26.68,18.33,41.35,36.42-15.21,4.31-33.62,7.42-54.09,4.34-51-7.64-33.12,33.13,50.95,43.32,15.85,1.92,28.71,4.56,39.4,8.31,40,76.93,58.11,178.15-26.66,213.33-16.7,6.94-37.34,10.9-60.32,12.38-26.16-20.78,6.38-141.08-33.94-124.47C1140.11,2394,1191,2481.14,1184,2503.1c-38.21-.69-80.52-6.93-121-16.95-16-9-28.21-21-32-36.8-12.74-53.5,71.34-86.62,73.89-132.48,2.34-42.16-30.82,92.75-118.66,112.6C906.85,2392.37,869.32,2342,959.83,2303.91Z"/><path class="cls-22" d="M821.87,2159.76c20.38-43.31-33.12-53.5-30.58-20.38,2.26,29.35,2.51,100.69-27.59,120.11-51.91-5.62-122.53-26.54-175.92-58.42a21.64,21.64,0,0,1,2.25-13.28c22.92-45.86,170.69-84.08,124.83-99.36-36.52-12.18-100.52,59.68-152.09,95.88-31-23.5-51.72-51.52-51.72-82.79,0-42.32,51.43-90.23,117.93-113.14,29.94,3,57.74,19.39,101.17,44,64.15,36.35,49.32-22.43-11.34-57.31,52.37,2.71,104.58,25.08,143.08,78.53,0,0-3.64,22.85,20.54,58.19,66,96.41-10.16,152.7-101.17,149C786.41,2235.42,807.78,2189.69,821.87,2159.76Z"/><path class="cls-21" d="M1074.75,2205.55c49.83,38.5,105.17,83.51,173.11,114.08s54.36,130.23,54.36,130.23,10.19-86.06-46.43-115.5-94-64.55-137-71.34-66.81-13.59-66.81-13.59,13.59-27.18,5.67-37.37S1074.75,2205.55,1074.75,2205.55Z"/><path class="cls-21" d="M1320.34,1753.45c-182.32,48.69-315.94,165.33-340.85,193.64s-24.91,36.23-24.91,36.23l19.25,36.24,9.06-4.53s-14.72-30.58,23.78-70.21c66.4-68.35,147.21-122.29,202.69-146.07S1320.34,1753.45,1320.34,1753.45Z"/><path class="cls-6" d="M767.43,2512.87h169a40,40,0,0,1,40,40v209.7a0,0,0,0,1,0,0h-249a0,0,0,0,1,0,0v-209.7A40,40,0,0,1,767.43,2512.87Z" transform="translate(1703.84 5275.45) rotate(180)"/><rect class="cls-8" x="727.42" y="2541.48" width="249.01" height="17.53"/><rect class="cls-8" x="727.42" y="2573.44" width="249.01" height="10.31"/><path class="cls-20" d="M1172.11,1003.93h27.07a12.08,12.08,0,0,1,12.08,12.08v21.94a12.08,12.08,0,0,1-12.08,12.08h-27.07a12.08,12.08,0,0,1-12.08-12.08V1016A12.07,12.07,0,0,1,1172.11,1003.93Z" transform="translate(2212.62 -158.66) rotate(90)"/><path class="cls-20" d="M1172.11,1097.05h27.07a12.08,12.08,0,0,1,12.08,12.08v21.94a12.08,12.08,0,0,1-12.08,12.08h-27.06a12.08,12.08,0,0,1-12.08-12.08v-21.94A12.07,12.07,0,0,1,1172.11,1097.05Z" transform="translate(2305.74 -65.54) rotate(90)"/><path class="cls-20" d="M1172.11,1190.17h27.07a12.07,12.07,0,0,1,12.07,12.07v21.94a12.08,12.08,0,0,1-12.08,12.08h-27.06a12.08,12.08,0,0,1-12.08-12.08v-21.94A12.07,12.07,0,0,1,1172.11,1190.17Z" transform="translate(2398.86 27.58) rotate(90)"/></svg>