<svg id="Layer_1" data-name="Layer 1" xmlns="http://www.w3.org/2000/svg" xmlns:xlink="http://www.w3.org/1999/xlink" viewBox="0 0 1080 1080"><defs><style>.cls-1{fill:url(#linear-gradient);}.cls-2{fill:url(#linear-gradient-2);}.cls-3{fill:none;clip-rule:evenodd;}.cls-4{clip-path:url(#clip-path);}.cls-5{fill:url(#linear-gradient-3);}.cls-6{mask:url(#mask);}.cls-7{fill:#27306d;fill-rule:evenodd;}.cls-8{clip-path:url(#clip-path-2);}.cls-9{fill:url(#linear-gradient-4);}.cls-10{mask:url(#mask-2);}.cls-11{clip-path:url(#clip-path-3);}.cls-12{fill:url(#linear-gradient-5);}.cls-13{font-size:196.53px;fill:#fff;font-family:Montserrat-Regular, Montserrat;}.cls-14{letter-spacing:-0.02em;}.cls-15{letter-spacing:-0.09em;}.cls-16{letter-spacing:-0.05em;}.cls-17{letter-spacing:-0.01em;}</style><linearGradient id="linear-gradient" x1="714.28" y1="392.78" x2="135.11" y2="392.78" gradientTransform="translate(103.15 -161.85)" gradientUnits="userSpaceOnUse"><stop offset="0" stop-color="#fff"/><stop offset="1" stop-color="#010101"/></linearGradient><linearGradient id="linear-gradient-2" x1="-151.56" y1="1578.08" x2="669.34" y2="156.29" gradientTransform="translate(88.44 -126.22)" xlink:href="#linear-gradient"/><clipPath id="clip-path"><path class="cls-3" d="M385.21,129.6H542.54c12.55,14.74,23.77,30.62,19.05,62.23a138.08,138.08,0,0,1-3.13,14.86C548,246.2,489.14,329.47,448.61,335h-63.4c-56.16,0-101.69-46-101.69-102.72S329.05,129.6,385.21,129.6"/></clipPath><linearGradient id="linear-gradient-3" x1="555.55" y1="362.95" x2="302.63" y2="110.03" gradientUnits="userSpaceOnUse"><stop offset="0" stop-color="#2d479d"/><stop offset="1" stop-color="#59caee"/></linearGradient><mask id="mask" x="453.24" y="129.6" width="109.45" height="202.67" maskUnits="userSpaceOnUse"><rect class="cls-1" x="453.24" y="129.6" width="109.45" height="202.67"/></mask><clipPath id="clip-path-2"><path class="cls-3" d="M459.49,614.28a101,101,0,0,1-74.28,32.56c-56.16,0-101.69-46-101.69-102.71a102.89,102.89,0,0,1,32.24-75l-.08-.09L439,344.5c45-45.42,167.19-144.74,91.34-214.9H675.38c44.88,0,83.2,29.75,96.61,70.69,20.18,61.69-13.5,109.45-51.91,150.42l-.47.5-.46.49-.37.4-.1.1-.06.06-.87.92-.46.5-.47.49-.1.1-.37.39-.47.48-.93,1-.29.3-.18.19-.47.49-.47.49-.47.48-.46.49h0l-.93,1-.47.48-.47.48-.2.2-.27.28-.47.49-.47.48-.47.48-.39.39-.08.09-.47.48-.47.48-.47.48-.47.47-.11.11-.36.37-.47.47-.47.48-.47.48-.29.3c-4.75,4.8-9.47,9.53-14.06,14.16L459.49,614.28Z"/></clipPath><linearGradient id="linear-gradient-4" x1="255.81" y1="876.78" x2="719.82" y2="72.99" xlink:href="#linear-gradient-3"/><mask id="mask-2" x="324.57" y="129.6" width="452.84" height="517.24" maskUnits="userSpaceOnUse"><rect class="cls-2" x="324.57" y="129.6" width="452.84" height="517.24"/></mask><clipPath id="clip-path-3"><path class="cls-3" d="M712.77,441.29c56.17,0,101.7,46,101.7,102.72s-45.53,102.71-101.7,102.71S611.08,600.73,611.08,544s45.53-102.72,101.69-102.72"/></clipPath><linearGradient id="linear-gradient-5" x1="804.57" y1="849.42" x2="603.54" y2="180.58" xlink:href="#linear-gradient-3"/></defs><g class="cls-4"><rect class="cls-5" x="283.52" y="129.6" width="282.79" height="205.43"/></g><g class="cls-6"><path class="cls-7" d="M530.3,129.6h12.24c12.55,14.74,23.77,30.62,19.05,62.23a138.08,138.08,0,0,1-3.13,14.86c-9.64,36.35-60.24,109.77-99.83,125.58-3.35-1-5.39-1.72-5.39-1.72,43.22-36.92,123.94-143.23,77.06-201"/></g><g class="cls-8"><rect class="cls-9" x="283.52" y="129.6" width="508.65" height="517.24"/></g><g class="cls-10"><path class="cls-7" d="M385,646.84a100.61,100.61,0,0,1-60.43-20.25,103.32,103.32,0,0,0,13.63-12.31h0L569,381.18c4.59-4.63,9.31-9.36,14.06-14.16l.29-.3.47-.48.47-.48.47-.47.36-.37.11-.11.47-.47.47-.48.47-.48.47-.48.08-.09.39-.39.47-.48.47-.48L589,361l.27-.28.2-.2.47-.48.46-.48.94-1h0l.47-.49.47-.48.47-.49.47-.49.18-.19.29-.3.93-1,.47-.48.37-.39.1-.1.46-.49.47-.5.87-.92.06-.06.09-.1.38-.4.46-.49.47-.5c38.41-41,72.09-88.73,51.9-150.42C637.3,159.35,599,129.6,554.1,129.6H674.76c44.88,0,83.2,29.75,96.6,70.69,20.19,61.69-13.49,109.45-51.9,150.42l-.47.5-.46.49-.37.4-.1.1-.06.06-.87.92-.47.5-.46.49-.1.1-.37.39-.47.48-.93,1-.29.3-.18.19-.47.49-.47.49-.47.48-.46.49h0l-.93,1-.47.48-.47.48-.2.2-.27.28-.47.49-.47.48-.47.48-.38.39-.09.09-.47.48-.47.48-.47.48-.47.47-.1.11-.37.37-.47.47-.47.48-.47.48-.29.3c-4.75,4.8-9.47,9.53-14.06,14.16L458.87,614.28h0A101,101,0,0,1,385,646.84"/></g><g class="cls-11"><rect class="cls-12" x="611.08" y="441.29" width="203.39" height="205.43"/></g><text class="cls-13" transform="translate(149.93 937.51)"><tspan class="cls-14">Z</tspan><tspan x="124.99" y="0">e</tspan><tspan class="cls-15" x="243.69" y="0">u</tspan><tspan class="cls-16" x="357.87" y="0">T</tspan><tspan x="459.87" y="0">e</tspan><tspan class="cls-17" x="578.57" y="0">c</tspan><tspan x="687.64" y="0">h</tspan></text></svg>