<svg id="Layer_1" data-name="Layer 1" xmlns="http://www.w3.org/2000/svg" xmlns:xlink="http://www.w3.org/1999/xlink" viewBox="0 0 1080 1080"><defs><style>.cls-1{fill:url(#linear-gradient);}.cls-2{fill:url(#linear-gradient-2);}.cls-3{fill:none;clip-rule:evenodd;}.cls-4{clip-path:url(#clip-path);}.cls-5{fill:url(#linear-gradient-3);}.cls-6{mask:url(#mask);}.cls-7{fill:#27306d;fill-rule:evenodd;}.cls-8{clip-path:url(#clip-path-2);}.cls-9{fill:url(#linear-gradient-4);}.cls-10{mask:url(#mask-2);}.cls-11{clip-path:url(#clip-path-3);}.cls-12{fill:url(#linear-gradient-5);}.cls-13{font-size:137.81px;fill:#1f232c;font-family:Montserrat-Regular, Montserrat;}.cls-14{letter-spacing:-0.01em;}.cls-15{letter-spacing:-0.09em;}.cls-16{letter-spacing:-0.05em;}.cls-17{letter-spacing:-0.01em;}</style><linearGradient id="linear-gradient" x1="635.15" y1="433.91" x2="229.03" y2="433.91" gradientTransform="translate(103.15 -161.85)" gradientUnits="userSpaceOnUse"><stop offset="0" stop-color="#fff"/><stop offset="1" stop-color="#010101"/></linearGradient><linearGradient id="linear-gradient-2" x1="32.42" y1="1254.4" x2="608.03" y2="257.44" gradientTransform="translate(88.44 -126.22)" xlink:href="#linear-gradient"/><clipPath id="clip-path"><path class="cls-3" d="M435.23,201H545.55c8.8,10.33,16.67,21.47,13.35,43.63a94.79,94.79,0,0,1-2.19,10.42c-7.34,27.71-48.61,86.1-77,90H435.23c-39.38,0-71.31-32.25-71.31-72s31.93-72,71.31-72"/></clipPath><linearGradient id="linear-gradient-3" x1="554.67" y1="364.63" x2="377.32" y2="187.28" gradientUnits="userSpaceOnUse"><stop offset="0" stop-color="#2d479d"/><stop offset="1" stop-color="#59caee"/></linearGradient><mask id="mask" x="482.93" y="201.01" width="76.75" height="142.11" maskUnits="userSpaceOnUse"><rect class="cls-1" x="482.93" y="201.01" width="76.75" height="142.11"/></mask><clipPath id="clip-path-2"><path class="cls-3" d="M487.31,540.87a70.77,70.77,0,0,1-52.08,22.83c-39.38,0-71.31-32.24-71.31-72a72.18,72.18,0,0,1,22.61-52.61l-.06-.05,86.44-87.32C504.45,319.85,590.15,250.2,537,201H638.7c31.46,0,58.34,20.86,67.74,49.57,14.15,43.25-9.47,76.74-36.4,105.48l-.33.34-.32.35-.27.28-.06.07,0,0-.61.65-.33.34-.33.35-.07.07-.25.27-.33.34-.66.69-.2.21-.13.13-.32.34-.34.34-.32.35-.33.33h0l-.65.67-.33.34-.33.34-.13.14-.2.2-.33.34-.33.34-.32.33-.28.28,0,.06-.33.33-.33.34-.33.34-.33.33-.08.08-.25.26-.33.33-.33.33-.33.34-.2.21c-3.33,3.37-6.65,6.68-9.86,9.93L487.31,540.87Z"/></clipPath><linearGradient id="linear-gradient-4" x1="344.49" y1="724.93" x2="669.86" y2="161.31" xlink:href="#linear-gradient-3"/><mask id="mask-2" x="392.7" y="201.01" width="317.54" height="362.69" maskUnits="userSpaceOnUse"><rect class="cls-2" x="392.7" y="201.01" width="317.54" height="362.69"/></mask><clipPath id="clip-path-3"><path class="cls-3" d="M664.92,419.57c39.38,0,71.31,32.25,71.31,72s-31.93,72-71.31,72-71.31-32.25-71.31-72,31.93-72,71.31-72"/></clipPath><linearGradient id="linear-gradient-5" x1="729.29" y1="705.75" x2="588.32" y2="236.76" xlink:href="#linear-gradient-3"/></defs><g class="cls-4"><rect class="cls-5" x="363.92" y="201.01" width="198.3" height="144.05"/></g><g class="cls-6"><path class="cls-7" d="M537,201h8.59c8.8,10.33,16.67,21.47,13.35,43.63a94.79,94.79,0,0,1-2.19,10.42c-6.76,25.5-42.24,77-70,88.06-2.35-.73-3.78-1.21-3.78-1.21C513.24,316,569.84,241.48,537,201"/></g><g class="cls-8"><rect class="cls-9" x="363.92" y="201.01" width="356.67" height="362.69"/></g><g class="cls-10"><path class="cls-7" d="M435.08,563.7a70.56,70.56,0,0,1-42.38-14.2,73.22,73.22,0,0,0,9.57-8.63h0L564.09,377.42c3.22-3.25,6.53-6.56,9.86-9.93l.21-.21.33-.34.33-.33.33-.33.25-.26.08-.08.32-.33.33-.34.33-.34.33-.33.06-.06.27-.28.33-.33.33-.34.33-.34.19-.2.14-.14.33-.34.33-.34.65-.67h0l.32-.33.33-.35.33-.34.33-.34.13-.13.2-.21.65-.69.33-.34.26-.27.07-.07.33-.35.32-.34.61-.65,0,0,.06-.07.26-.28.33-.35.33-.34c26.93-28.74,50.54-62.23,36.39-105.48C612,221.87,585.12,201,553.65,201h84.61c31.47,0,58.34,20.86,67.74,49.57,14.15,43.25-9.46,76.74-36.39,105.48l-.33.34-.33.35-.26.28-.06.07,0,0-.61.65-.33.34-.32.35-.07.07-.26.27-.33.34-.65.69-.2.21-.13.13-.33.34-.33.34-.33.35-.33.33h0l-.65.67-.33.34-.33.34-.14.14-.19.2-.33.34-.33.34-.33.33-.27.28-.06.06-.33.33-.33.34-.33.34-.33.33L660,366l-.26.26-.32.33-.33.33-.33.34-.21.21c-3.33,3.37-6.64,6.68-9.86,9.93L486.88,540.87h0a70.83,70.83,0,0,1-51.8,22.83"/></g><g class="cls-11"><rect class="cls-12" x="593.61" y="419.57" width="142.62" height="144.05"/></g><text class="cls-13" transform="translate(279.53 779.55)"><tspan class="cls-14">Z</tspan><tspan x="87.64" y="0">e</tspan><tspan class="cls-15" x="170.88" y="0">u</tspan><tspan class="cls-16" x="250.94" y="0">T</tspan><tspan x="322.46" y="0">e</tspan><tspan class="cls-17" x="405.7" y="0">c</tspan><tspan x="482.18" y="0">h</tspan></text></svg>